<svg xmlns="http://www.w3.org/2000/svg" viewBox="0 0 731.49 552.57"><defs><style>.cls-1{opacity:0.65;}.cls-2{fill:#79db80;}.cls-3{fill:#a8d180;}.cls-4{fill:#996262;}.cls-11,.cls-12,.cls-13,.cls-14,.cls-15,.cls-4,.cls-5,.cls-6,.cls-7,.cls-8{stroke:#000;stroke-miterlimit:10;}.cls-11,.cls-12,.cls-13,.cls-14,.cls-4,.cls-5,.cls-6,.cls-7,.cls-8{stroke-width:0.5px;}.cls-5{fill:#b58633;}.cls-6{fill:#604700;}.cls-7{fill:#4a3933;}.cls-15,.cls-8{fill:none;}.cls-9{opacity:0.7;}.cls-10{fill:#bd9354;}.cls-11{fill:#aa8976;}.cls-12{fill:#f2f2f2;}.cls-13{fill:#edcfa9;}.cls-14{fill:#f2a149;}.cls-15{stroke-width:0.25px;}</style></defs><title>cornfield</title><g id="ground_v003" class="cls-1"><path class="cls-2" d="M501.5,181.25a.25.25,0,0,0,0-.5.25.25,0,0,0,0,.5Z" transform="translate(-25.64 -31.41)"/><path class="cls-3" d="M611,459c15-12.09,27.42-27.05,39.7-41.91,23.9-29,70-88.08,70-88.08,4.55-7.37,9-14.73,14-21.82,14.79-21.08,32.7-49.5,15.14-74.5l-57.13-64C654.58,136,599.58,134,551.09,144l-.34.07L539,146.47l.3-.21q-3.76.8-7.51,1.63l2.18-1.06a75.18,75.18,0,0,1-25.33,8.87c-11.15,1.75-23.22.78-32.62-5.46-4.06-2.7-8-6.48-12.85-6.49l.27-.18L409.1,133.29c-31.52-6-48-24-80.27-19.79-15.47,2-46.52,16.11-61.44,20.53-15.2,4.5-28.2,14.78-49.49,28.18l-.75.8c-34.57,14-65.57,36-89.57,66-5,8-10,14-17,19-32,23-60,47-74.11,82.11l.09-1.15c.3,6-2.93,11.42-5.33,16.87a65.11,65.11,0,0,0-5.08,33S24,429.86,28.44,455c3.88,22.2,12.58,42.86,26.64,60.56a107,107,0,0,0,24.74,22.93l.54.9c.91,8.09,2.77,16.28,9.78,20.44s15.41,5,23.52,5.77l139.29,13c44.73,4.17,90.67,8.23,133.9-4l3.66-1A226.24,226.24,0,0,0,438.29,565c16-4.69,31.13-11.87,45.85-19.7,14.48-7.72,28.05-17.47,42-26.19A192.09,192.09,0,0,0,546,505.05c6.22-5.09,13.76-8.82,20.36-13.46,15.11-10.65,29.65-22.15,44.34-33.37" transform="translate(-25.64 -31.41)"/></g><g id="muehle"><path class="cls-4" d="M482.67,95s-26,59.67-29,78.67-11.34,63.33-8.34,68,97-3.67,97-3.67-1.7-41.62-5.33-56c-3.51-13.92-15.67-85.67-21.33-86s-11-3.33-20-2.67A87.33,87.33,0,0,0,482.67,95Z" transform="translate(-25.64 -31.41)"/><path class="cls-5" d="M482.67,95s-13.42,33.13-14.29,35.13,26.25,3,32,2.37,25.37-4,25.37-4S521.08,97.12,515.67,96s-13.21-3.46-20-2.67S482.67,95,482.67,95Z" transform="translate(-25.64 -31.41)"/></g><g id="arme_muehle"><path class="cls-6" d="M391.5,98.67l4.17,25.16s49.71-2.52,56.46-3.64,17.18-5.5,17.18-5.5,4.57-20.31,4.32-21.19-28.46-1.17-40,.33S391.5,98.67,391.5,98.67Z" transform="translate(-25.64 -31.41)"/><polygon class="cls-6" points="490.86 68.93 487.36 90.09 558.69 90.59 564.36 63.43 490.86 68.93"/><polygon class="cls-6" points="464.36 66.26 483.52 66.26 509.52 0.26 475.86 1.09 464.36 66.26"/><polygon class="cls-6" points="460.52 91.76 453.02 173.59 482.86 171.09 481.52 90.76 460.52 91.76"/><polygon class="cls-7" points="467.98 66.84 467.36 75.72 445.86 73.22 444.61 78.84 467.73 80.84 465.98 91.47 472.61 91.22 472.73 80.72 488.86 81.34 489.73 76.97 473.36 76.34 474.48 66.34 467.98 66.84"/><line class="cls-8" x1="468.36" y1="92.93" x2="468.02" y2="172.93"/><line class="cls-8" x1="459.69" y1="106.93" x2="481.69" y2="106.93"/><line class="cls-8" x1="457.69" y1="118.59" x2="482.36" y2="118.26"/><line class="cls-8" x1="456.69" y1="130.59" x2="481.69" y2="130.93"/><line class="cls-8" x1="455.69" y1="142.26" x2="482.69" y2="141.93"/><line class="cls-8" x1="456.02" y1="156.59" x2="481.02" y2="153.59"/><line class="cls-8" x1="454.69" y1="165.93" x2="483.69" y2="164.26"/><line class="cls-8" x1="432.02" y1="62.26" x2="429.69" y2="85.93"/><line class="cls-8" x1="419.69" y1="62.59" x2="418.69" y2="89.59"/><line class="cls-8" x1="408.02" y1="62.43" x2="408.02" y2="90.26"/><line class="cls-8" x1="400.36" y1="63.93" x2="400.69" y2="90.93"/><line class="cls-8" x1="388.02" y1="64.59" x2="387.69" y2="90.93"/><line class="cls-8" x1="374.69" y1="67.93" x2="376.02" y2="91.59"/><line class="cls-8" x1="368.69" y1="77.59" x2="444.02" y2="76.93"/><line class="cls-8" x1="489.69" y1="78.93" x2="560.69" y2="78.26"/><line class="cls-8" x1="551.69" y1="65.59" x2="547.02" y2="90.93"/><line class="cls-8" x1="540.69" y1="67.26" x2="536.02" y2="91.26"/><line class="cls-8" x1="529.02" y1="67.26" x2="527.69" y2="89.26"/><line class="cls-8" x1="518.02" y1="67.59" x2="514.69" y2="89.93"/><line class="cls-8" x1="505.36" y1="68.26" x2="500.69" y2="87.59"/><line class="cls-8" x1="490.02" y1="1.26" x2="474.48" y2="66.34"/><line class="cls-8" x1="475.69" y1="9.93" x2="505.02" y2="11.59"/><line class="cls-8" x1="472.02" y1="21.26" x2="502.02" y2="23.26"/><line class="cls-8" x1="469.69" y1="32.93" x2="495.69" y2="34.26"/><line class="cls-8" x1="468.36" y1="44.59" x2="492.36" y2="44.26"/><line class="cls-8" x1="466.48" y1="56.22" x2="487.04" y2="56.03"/></g><g id="Layer_17" data-name="Layer 17"><path d="M541.38,508.25,487.3,475,433,441.54,402.58,422.8c-.27-.17-.53.26-.25.43l54.07,33.29,54.28,33.42,30.44,18.75c.28.17.53-.27.26-.44Z" transform="translate(-25.64 -31.41)"/><g class="cls-9"><path class="cls-10" d="M129.34,260.81c32.38,21.89,46.73,30.47,60.88,40.13A468.33,468.33,0,0,1,247,346.74l61,45,61.85,43.42c46.08,32.34,94.14,67.65,144.88,92-9.35,6.09-19.75,12.27-31.19,18.28a388.14,388.14,0,0,1-45.35,20.24l-32-19.76c-34.89-21.57-35.32-21.81-36.83-22.76-35.15-22.07-63.47-54.3-97.36-92.89-10.71-12.19-96-94.81-123.42-118.25Q119.26,287,91.75,262.13L110.58,248C114.84,250.93,121.36,255.41,129.34,260.81Z" transform="translate(-25.64 -31.41)"/><path d="M129.22,261c15.25,10.31,30.66,20.36,46.11,30.37,12.15,7.87,24.08,16,35.55,24.86q13.2,10.19,25.66,21.28c4.08,3.63,7.87,7.62,12.27,10.87l24.11,17.81,28.3,20.9C312,395.07,323,402.65,334,410.33q30.87,21.68,61.71,43.39c19.94,14,40,27.93,60.59,40.95,10.15,6.41,20.43,12.61,30.9,18.47q7.78,4.36,15.7,8.46c2.51,1.3,5,2.57,7.57,3.82.63.31,3.51,1.28,3.55,2,0,.39-3.18,2-3.65,2.33a389.74,389.74,0,0,1-65.05,33c-1.31.51-2.63,1-3.95,1.53-1,.39-2.43,1.26-3.56.93a16,16,0,0,1-3.2-2l-3.38-2.09L417,552.34q-13.11-8.08-26.2-16.19-10.17-6.28-20.32-12.55c-32.47-20.13-58.66-48.71-83.82-77.05-8-9.07-15.9-18.19-24.44-26.78q-13.26-13.36-26.8-26.45C213.51,372,191.47,350.87,169,330.15c-9.76-9-19.74-17.74-29.8-26.43Q124.57,291,110.06,278.17q-7-6.19-13.94-12.44a28.46,28.46,0,0,1-3-2.7c-.83-1-.75-.75.1-1.7a14.36,14.36,0,0,1,2-1.51l8.07-6.06L107,251c.77-.58,2.79-2.71,3.82-2.52.73.14,1.82,1.26,2.44,1.69l2.33,1.59q6.8,4.67,13.62,9.28c.26.18.51-.26.25-.44q-9.41-6.36-18.76-12.81a.25.25,0,0,0-.25,0L91.62,261.91a.25.25,0,0,0-.05.39c28.84,26,58.66,50.88,87,77.41q35.72,33.42,70.54,67.77c7.13,7,14.33,14,21.16,21.35s13.06,14.82,19.64,22.18c8.34,9.34,16.78,18.59,25.54,27.54C331.2,494.62,348,509.77,367,522c4.59,3,9.28,5.78,13.94,8.66l52.84,32.66c1.42.88,3.43,2.92,5.1,2.42,2.9-.86,5.74-2.18,8.55-3.31q8.37-3.36,16.6-7.1a391,391,0,0,0,35.66-18.53q7.68-4.5,15.15-9.36a.25.25,0,0,0,0-.43c-38.1-18.35-73.4-41.92-108-66.08-17.6-12.29-35.11-24.71-52.68-37-15.5-10.88-31.23-21.5-46.53-32.67-14.56-10.65-29-21.44-43.53-32.16-5.52-4.08-11.19-8-16.6-12.26-2.05-1.61-3.88-3.55-5.81-5.31q-5.79-5.28-11.73-10.37-10.16-8.7-20.78-16.81c-21.36-16.29-44.43-30.17-66.77-45.05q-6.48-4.31-12.91-8.67C129.2,260.41,129,260.85,129.22,261Z" transform="translate(-25.64 -31.41)"/></g><path d="M139.93,237.12c29.28,9.5,55.09,26.8,79.95,44.53q9.92,7.07,19.78,14.2L250,303.3l4.91,3.53c1.57,1.12,3.23,2.75,5,3.55a19.23,19.23,0,0,0,2.91.79l7.61,2.08,44.9,12.22,6.64,1.81a43.69,43.69,0,0,1,7.27,3.16c15,7.17,30.2,13.78,45.42,20.37q23.16,10,46.31,20.06c14.52,6.25,29.18,12.29,44.41,16.58q5.81,1.64,11.71,2.9c.31.06.45-.42.13-.49-15.77-3.36-30.93-8.93-45.8-15.1-15.55-6.45-30.94-13.3-46.39-20-15.29-6.62-30.62-13.18-45.75-20.16q-5.65-2.6-11.26-5.3a39.91,39.91,0,0,0-4.44-2.1c-1.45-.48-3-.81-4.44-1.21l-43.79-11.92-14.58-4a3.61,3.61,0,0,1-1.48-.76c-3.44-2.51-6.91-5-10.37-7.45L228.21,287c-24.44-17.57-49.27-35.35-77.43-46.51q-5.29-2.1-10.72-3.86c-.31-.1-.44.38-.13.48Z" transform="translate(-25.64 -31.41)"/><path d="M118.57,319.47l18,2.74c.32.05.46-.44.14-.48l-18-2.75c-.32,0-.45.44-.13.49Z" transform="translate(-25.64 -31.41)"/><path d="M118,329.46l20.67,2c.32,0,.32-.47,0-.5L118,329c-.32,0-.32.47,0,.5Z" transform="translate(-25.64 -31.41)"/><path d="M119.16,337.1a19.84,19.84,0,0,0,18.18,8.19c.31,0,.32-.53,0-.5a19.35,19.35,0,0,1-17.75-8c-.18-.26-.62,0-.43.26Z" transform="translate(-25.64 -31.41)"/><path d="M111.33,347.55a132.55,132.55,0,0,1,51.14,21.71A130.48,130.48,0,0,1,175,379.32c.24.21.59-.14.35-.36a133.06,133.06,0,0,0-48.27-27.89,131.31,131.31,0,0,0-15.64-4c-.32-.06-.45.42-.14.48Z" transform="translate(-25.64 -31.41)"/><path d="M162,379.69a32.1,32.1,0,0,1,17.85,10.15c.21.24.56-.11.35-.35a32.59,32.59,0,0,0-18.07-10.29c-.32-.06-.45.42-.13.49Z" transform="translate(-25.64 -31.41)"/><path d="M188.67,381.27a48.05,48.05,0,0,1,25.89,5.25c.28.14.54-.29.25-.44a48.56,48.56,0,0,0-26.14-5.31c-.32,0-.32.52,0,.5Z" transform="translate(-25.64 -31.41)"/><path d="M190.69,385.68a49.35,49.35,0,0,1,23.81,8.93c.26.19.51-.25.25-.43a49.8,49.8,0,0,0-24.06-9c-.32,0-.32.47,0,.5Z" transform="translate(-25.64 -31.41)"/><path d="M160,347l23.47,5.38c.31.07.45-.41.13-.48l-23.47-5.39a.25.25,0,0,0-.13.49Z" transform="translate(-25.64 -31.41)"/><path d="M189.87,363.88l21.34,9.33c.29.13.54-.3.25-.43l-21.33-9.33c-.29-.13-.55.3-.26.43Z" transform="translate(-25.64 -31.41)"/><path d="M236.75,412.22l10.52,9.49c.24.22.6-.13.36-.35l-10.53-9.49c-.24-.22-.59.14-.35.35Z" transform="translate(-25.64 -31.41)"/><path d="M213,401.64a94.61,94.61,0,0,1,30.28,24.92c.2.25.55-.11.35-.36a94.88,94.88,0,0,0-30.38-25c-.28-.14-.54.29-.25.44Z" transform="translate(-25.64 -31.41)"/><path d="M252.26,466l17.57,15.81c.24.22.6-.13.36-.35l-17.57-15.81c-.24-.22-.6.14-.36.35Z" transform="translate(-25.64 -31.41)"/><path d="M250.58,473.16l13,9.15c.27.19.52-.25.26-.43l-13-9.16c-.26-.18-.51.25-.25.44Z" transform="translate(-25.64 -31.41)"/><path d="M312,495.62l12.6,10.08c.25.2.61-.15.36-.35l-12.61-10.08c-.25-.2-.6.15-.35.35Z" transform="translate(-25.64 -31.41)"/><path d="M315.14,511.15l12,2.57c.32.07.45-.42.14-.48l-12-2.57c-.32-.07-.45.41-.14.48Z" transform="translate(-25.64 -31.41)"/><path d="M338,506.23a115.18,115.18,0,0,1,41.41,2.23.25.25,0,0,0,.14-.48A115.52,115.52,0,0,0,338,505.73c-.31,0-.32.54,0,.5Z" transform="translate(-25.64 -31.41)"/><path d="M334.06,510,358,515.69c.31.07.44-.41.13-.48l-23.93-5.66a.25.25,0,0,0-.13.49Z" transform="translate(-25.64 -31.41)"/><path d="M326.77,518l9.25,4.18c.3.13.55-.3.26-.44L327,517.61c-.29-.13-.54.3-.25.43Z" transform="translate(-25.64 -31.41)"/><path d="M331.57,525.92a12.76,12.76,0,0,0,10.43,5.9c.32,0,.32-.49,0-.5a12.25,12.25,0,0,1-10-5.65c-.17-.27-.6,0-.43.25Z" transform="translate(-25.64 -31.41)"/><path d="M340.69,489.1a24.58,24.58,0,0,1,21.11,4.21c.25.2.5-.23.25-.43a25.11,25.11,0,0,0-21.49-4.27.25.25,0,0,0,.13.49Z" transform="translate(-25.64 -31.41)"/><path d="M387.38,492.25a41.68,41.68,0,0,0,25.43.57.25.25,0,0,0-.14-.48,41.19,41.19,0,0,1-25.16-.57c-.3-.1-.43.38-.13.48Z" transform="translate(-25.64 -31.41)"/><path d="M397.82,500.52l21.36,3.88c.31.06.45-.42.13-.48L398,500c-.32,0-.45.43-.14.49Z" transform="translate(-25.64 -31.41)"/><path d="M392.08,502.17,416,510.5c.3.11.43-.38.13-.48l-23.88-8.34c-.31-.1-.44.38-.13.49Z" transform="translate(-25.64 -31.41)"/><path d="M379.54,503.75l21.2,7.08c.3.1.44-.39.13-.49l-21.19-7.07c-.31-.11-.44.38-.14.48Z" transform="translate(-25.64 -31.41)"/><path d="M165.88,264.12l29.22,7.76a.25.25,0,0,0,.13-.48L166,263.64a.25.25,0,0,0-.13.48Z" transform="translate(-25.64 -31.41)"/><path d="M183.2,275.59l21.33,4c.31.06.45-.42.13-.48l-21.33-4c-.31-.06-.45.42-.13.48Z" transform="translate(-25.64 -31.41)"/><path d="M203.33,290l23.33,2.66c.32,0,.32-.47,0-.5l-23.33-2.66c-.32,0-.32.46,0,.5Z" transform="translate(-25.64 -31.41)"/><path d="M210.71,296.05l20.6,4.31c.32.06.45-.42.13-.48l-20.6-4.31c-.31-.07-.45.42-.13.48Z" transform="translate(-25.64 -31.41)"/><path d="M223.71,305.11l20.94,13.63c.27.18.52-.25.25-.43L224,304.68c-.27-.18-.52.26-.25.43Z" transform="translate(-25.64 -31.41)"/><path d="M319.62,332.44l22.6,12.13c.28.15.54-.28.25-.43L319.87,332c-.28-.15-.53.28-.25.43Z" transform="translate(-25.64 -31.41)"/><path d="M346.68,372.29l40.67-1.92c.32,0,.33-.52,0-.5l-40.67,1.92c-.32,0-.32.51,0,.5Z" transform="translate(-25.64 -31.41)"/><path d="M378.63,376.14c16.42,1.71,29.78,12.3,42.4,22,6.58,5.07,13.2,10.13,20.45,14.21a101.59,101.59,0,0,0,55.13,12.8c.32,0,.33-.52,0-.5a101.33,101.33,0,0,1-53.36-11.9c-14.57-7.86-26.38-19.74-40.48-28.32-7.4-4.51-15.46-7.92-24.14-8.82-.32,0-.32.46,0,.5Z" transform="translate(-25.64 -31.41)"/><path d="M394.65,375.5l30,2.46c.32,0,.32-.47,0-.5l-30-2.46c-.32,0-.32.48,0,.5Z" transform="translate(-25.64 -31.41)"/><path d="M410,389l27.33-.82c.32,0,.32-.51,0-.5l-27.33.82c-.32,0-.32.51,0,.5Z" transform="translate(-25.64 -31.41)"/><path d="M431.5,394.75A37.42,37.42,0,0,0,458,402.66c.32,0,.32-.53,0-.5a36.92,36.92,0,0,1-26.16-7.77c-.25-.19-.6.16-.35.36Z" transform="translate(-25.64 -31.41)"/><path d="M449.53,412A77.75,77.75,0,0,1,489,415.36c.3.11.43-.37.13-.48a78.19,78.19,0,0,0-39.77-3.37c-.32.06-.18.54.13.48Z" transform="translate(-25.64 -31.41)"/><path d="M455.86,388.8a63.55,63.55,0,0,0,35.53,1.09.25.25,0,0,0-.13-.48A63.09,63.09,0,0,1,456,388.32c-.31-.1-.44.38-.13.48Z" transform="translate(-25.64 -31.41)"/><path d="M433.36,375.88l32-1.45c.32,0,.32-.52,0-.5l-32,1.45c-.32,0-.32.51,0,.5Z" transform="translate(-25.64 -31.41)"/><path d="M408,366.83l30.66.55a.25.25,0,0,0,0-.5L408,366.33a.25.25,0,0,0,0,.5Z" transform="translate(-25.64 -31.41)"/><path d="M407.44,364.81l17.32-2.73c.32-.05.18-.53-.13-.48l-17.33,2.73c-.31.05-.18.53.14.48Z" transform="translate(-25.64 -31.41)"/><path d="M375.35,352.31l30-1.58c.32,0,.32-.52,0-.5l-30,1.58c-.32,0-.32.52,0,.5Z" transform="translate(-25.64 -31.41)"/><path d="M374.22,350.47l20-5.32a.25.25,0,0,0-.13-.49l-20,5.33a.25.25,0,0,0,.14.48Z" transform="translate(-25.64 -31.41)"/><path d="M340,323.14l21.33,1.28c.33,0,.32-.49,0-.5L340,322.64c-.32,0-.32.48,0,.5Z" transform="translate(-25.64 -31.41)"/><path d="M346.79,332.27a125.43,125.43,0,0,1,38,.51c.32.05.45-.43.13-.49a126.24,126.24,0,0,0-38.27-.5c-.31,0-.18.53.14.48Z" transform="translate(-25.64 -31.41)"/><path d="M322,374.34l19.5-.37a.25.25,0,0,0,0-.5l-19.5.37c-.32,0-.32.51,0,.5Z" transform="translate(-25.64 -31.41)"/><path d="M325.16,368.19l19-3.84c.31-.06.18-.55-.13-.48l-19,3.84c-.31.06-.18.54.14.48Z" transform="translate(-25.64 -31.41)"/><path d="M342.49,390.1a50,50,0,0,0,35.14-.19c.3-.12.17-.6-.13-.49a49.58,49.58,0,0,1-34.88.2c-.3-.11-.43.37-.13.48Z" transform="translate(-25.64 -31.41)"/><path d="M360.7,400.84l28.51-6.46c.31-.07.18-.55-.13-.48l-28.51,6.46c-.31.07-.18.55.13.48Z" transform="translate(-25.64 -31.41)"/><path d="M368.49,404.61l21.94-1.72c.32,0,.32-.52,0-.5l-21.94,1.72c-.32,0-.32.53,0,.5Z" transform="translate(-25.64 -31.41)"/><path d="M383.47,410.63A37,37,0,0,0,402.12,412c.31-.05.18-.54-.14-.48a36.41,36.41,0,0,1-18.37-1.38c-.31-.1-.44.38-.14.49Z" transform="translate(-25.64 -31.41)"/><path d="M396.64,420.43a56.22,56.22,0,0,1,27.83-10.09c.32,0,.32-.52,0-.5A56.76,56.76,0,0,0,396.39,420c-.27.19,0,.62.25.43Z" transform="translate(-25.64 -31.41)"/><path d="M403,422.35a61.12,61.12,0,0,0,31.09-8.19.25.25,0,0,0-.25-.44A60.68,60.68,0,0,1,403,421.85a.25.25,0,0,0,0,.5Z" transform="translate(-25.64 -31.41)"/><path d="M417,428l25,.75c.32,0,.32-.49,0-.5l-25-.75c-.32,0-.32.49,0,.5Z" transform="translate(-25.64 -31.41)"/><path d="M431.46,434.14a31.74,31.74,0,0,0,18.17-1.23c.3-.11.17-.6-.13-.48a31.28,31.28,0,0,1-17.91,1.23c-.31-.07-.45.41-.13.48Z" transform="translate(-25.64 -31.41)"/><path d="M439.5,438.65,461,437.59c.32,0,.32-.51,0-.5l-21.49,1.06c-.33,0-.33.52,0,.5Z" transform="translate(-25.64 -31.41)"/><path d="M444.51,444.26l29.5-.42c.32,0,.32-.51,0-.5l-29.5.42c-.32,0-.33.51,0,.5Z" transform="translate(-25.64 -31.41)"/><g class="cls-9"><path class="cls-10" d="M369.09,576.6c-25.82-13.13-52.27-26.72-71.65-48.26,0,0-68.61-78.23-68.91-78.62a315.67,315.67,0,0,0-71.81-67.08C142,372.7,78.32,311.12,64.36,288a96.28,96.28,0,0,0-23.29,33q13.55,9.58,27.52,20.09c9.07,6.84,83.52,83.41,111,117.13,11.59,14.22,23,28.61,34.35,43l57.11,72.21s5.27,4.58,7.6,6.91c0,0,28,5.32,56.68,2.65S369.09,576.6,369.09,576.6Z" transform="translate(-25.64 -31.41)"/><path d="M369.22,576.39c-19.66-10-39.55-20.13-56.72-34.14a171,171,0,0,1-20.17-20.11Q282,510.34,271.65,498.55l-24.88-28.38q-8.27-9.42-16.52-18.85c-2.72-3.11-5.2-6.42-7.85-9.59a313.57,313.57,0,0,0-23-24.78,314.76,314.76,0,0,0-25.54-22.18q-6.48-5-13.21-9.74c-2.22-1.55-4.48-3-6.61-4.68-9.12-7.06-17.54-15.1-25.9-23q-17.06-16.18-33.27-33.25c-9.27-9.8-18.59-19.78-26.56-30.68-1.3-1.79-2.56-3.62-3.71-5.51a.26.26,0,0,0-.4-.05,97.64,97.64,0,0,0-23.33,33,.27.27,0,0,0,.09.34q13.52,9.57,26.74,19.51a67.33,67.33,0,0,1,5.64,4.9c6.9,6.47,13.56,13.21,20.21,19.95q14.23,14.43,28.2,29.12,15,15.75,29.68,31.77c8.35,9.13,16.63,18.34,24.59,27.82,13.08,15.57,25.55,31.68,38.17,47.63l42.32,53.52L267,568.75a55.81,55.81,0,0,0,4,5c1,.94,2.05,1.79,3.05,2.69,1.32,1.18,2.64,2.36,3.9,3.59a1.71,1.71,0,0,0,1,.6,34.55,34.55,0,0,0,4.87.78,221.61,221.61,0,0,0,54.64,1.5,183.2,183.2,0,0,0,22-3.28,36.79,36.79,0,0,0,8.08-2.46,5.76,5.76,0,0,0,.69-.38c.26-.19,0-.62-.25-.43a14.93,14.93,0,0,1-4.47,1.73,123.44,123.44,0,0,1-19.55,3.6,227.53,227.53,0,0,1-61.13-.78c-1.08-.16-2.16-.33-3.23-.51a7.55,7.55,0,0,1-1.71-.29c-.94-.42-1.91-1.74-2.69-2.46-1.32-1.21-2.66-2.39-4-3.57a28.29,28.29,0,0,1-3.4-3.92L263.12,563l-11.74-14.85q-23.15-29.26-46.3-58.54c-11.66-14.7-23.22-29.51-35.54-43.65-9.75-11.19-19.78-22.13-29.89-33Q123.53,395.67,107,378.69c-8.83-9.11-17.71-18.19-26.78-27.07-2.81-2.75-5.62-5.5-8.53-8.15A163.21,163.21,0,0,0,58.17,333q-7.32-5.39-14.71-10.65a7.6,7.6,0,0,1-1.76-1.24c-.32-.51-.1-.75.13-1.26.49-1.11,1-2.2,1.53-3.29,1.15-2.35,2.4-4.67,3.75-6.92a96.51,96.51,0,0,1,10.51-14.42q2.51-2.83,5.22-5.47a8,8,0,0,1,1.2-1.13c.48-.31,0-.36.42,0a5.79,5.79,0,0,1,.81,1.26c6.53,10,14.77,18.9,22.81,27.64,10.39,11.29,21.17,22.23,32.18,32.91,9.18,8.91,18.48,17.74,28.24,26a120.14,120.14,0,0,0,9.75,7.5,312.05,312.05,0,0,1,26.56,20.38,314.76,314.76,0,0,1,23.7,22.5c7,7.39,13.36,15.24,19.87,23.06,3.51,4.22,7.24,8.28,10.86,12.41L262,488.24,285,514.58c4,4.59,8,9.2,12.08,13.77,12.42,14,28.22,24.73,44.39,33.94,9,5.13,18.23,9.84,27.46,14.53C369.25,577,369.51,576.53,369.22,576.39Z" transform="translate(-25.64 -31.41)"/></g><path d="M381.26,481.92a121.09,121.09,0,0,1,30.8-14.19.25.25,0,0,0-.13-.48A121.17,121.17,0,0,0,381,481.49c-.27.18,0,.61.25.43Z" transform="translate(-25.64 -31.41)"/><path d="M398.46,481.88l39.87-20.25c.28-.15,0-.58-.26-.44L398.2,481.45c-.28.14,0,.57.26.43Z" transform="translate(-25.64 -31.41)"/><path d="M410.23,484.38a214.24,214.24,0,0,0,36-12.51c.29-.13,0-.56-.26-.43a213.06,213.06,0,0,1-35.85,12.46c-.31.07-.18.56.14.48Z" transform="translate(-25.64 -31.41)"/><path d="M430,487.05a37.33,37.33,0,0,0,18-.27c2.12-.58,4.35-1.51,5.67-3.35a5.09,5.09,0,0,0,.38-5.75c-.17-.27-.61,0-.43.25,1.35,2.1.45,4.74-1.34,6.27s-4.26,2.14-6.53,2.59a37.12,37.12,0,0,1-15.6-.22c-.31-.07-.45.41-.13.48Z" transform="translate(-25.64 -31.41)"/></g><g id="corn"><path d="M493,374.63c8.26-2.35,16.77-3.5,25.26-4.62,8.26-1.09,16.51-2.3,24.73-3.72q24.82-4.29,49.22-10.76,13.8-3.67,27.4-8c.16-.05.09-.29-.06-.24q-24.12,7.69-48.86,13.27t-50,8.9c-9.31,1.24-18.66,2.37-27.72,4.95-.15,0-.09.29.07.24Z" transform="translate(-25.64 -31.41)"/><path d="M478.4,380.51c18.19-2.54,36.27-6,54.24-9.82,20-4.23,39.89-8.94,59.55-14.5,9.23-2.61,18.41-5.41,27.42-8.68.15-.06.09-.3-.06-.24-17.24,6.27-35.07,11-52.86,15.38q-29.78,7.34-60,12.93c-9.44,1.75-18.9,3.36-28.41,4.69-.16,0-.09.26.07.24Z" transform="translate(-25.64 -31.41)"/><path d="M470.08,378.33c12-15,29.33-24.24,46.29-32.56,9-4.39,18-8.65,26.61-13.69a139.51,139.51,0,0,0,22.83-16.94c7.76-7,15.53-14.24,25.26-18.36.15-.06,0-.27-.12-.21-8.46,3.57-15.49,9.57-22.25,15.64-3.42,3.07-6.81,6.18-10.38,9.08a117.34,117.34,0,0,1-12.6,8.85c-16.82,10.34-35.51,17.22-52.23,27.73-8.82,5.55-17.05,12.12-23.58,20.28-.1.12.07.3.17.18Z" transform="translate(-25.64 -31.41)"/><path d="M472.15,380.3a327,327,0,0,1,39.15-30.53c7.18-4.76,14.55-9.21,22-13.56,3.35-2,6.78-3.82,10.06-5.89,2.68-1.69,5.26-3.54,7.81-5.41,6-4.36,11.76-9.07,18.15-12.8.14-.08,0-.3-.12-.22-5.67,3.31-10.85,7.42-16.12,11.3-2.69,2-5.39,4-8.18,5.83-3,2-6.11,3.7-9.2,5.5a402,402,0,0,0-42.5,27.87q-11,8.42-21.21,17.73c-.12.11,0,.28.17.18Z" transform="translate(-25.64 -31.41)"/><path d="M431.61,359.63a402.28,402.28,0,0,1,93.73-71.32q14.49-8,29.62-14.77c.15-.06,0-.28-.13-.21a402.75,402.75,0,0,0-99.16,63.27q-12.59,10.92-24.24,22.85c-.11.12.07.3.18.18Z" transform="translate(-25.64 -31.41)"/><path d="M434.73,359.41c11.06-4.73,17.8-15.24,25.71-23.75,9.74-10.49,21.94-18.35,33.59-26.53l21.46-15.06c.13-.09,0-.3-.13-.21-12.27,8.61-24.68,17.05-36.79,25.89A138,138,0,0,0,462.67,333c-4.31,4.29-8.06,9.09-12.1,13.61-4.56,5.1-9.61,9.87-16,12.59-.15.07,0,.28.13.22Z" transform="translate(-25.64 -31.41)"/><path d="M439,370.18c9.92-14,23.9-24.31,38.72-32.58,15.7-8.75,32.49-15.26,48.73-22.89a208.31,208.31,0,0,0,27.38-15.1c.13-.09,0-.31-.13-.22-15.66,10.49-33.12,17.73-50.26,25.38-15.72,7-31.39,14.54-45.05,25.15a96.51,96.51,0,0,0-19.61,20.14c-.09.13.13.25.22.12Z" transform="translate(-25.64 -31.41)"/><path d="M442.29,371.9c.71-5.61,5-9.75,9.17-13.11,4.84-3.88,10-7.46,15.1-10.92,10.12-6.81,20.65-13,31.3-18.93,6.08-3.38,12.19-6.69,18.3-10,.15-.07,0-.29-.12-.21-22.13,12-44.66,24-64.46,39.65-4.37,3.47-8.8,7.71-9.54,13.53,0,.16.23.16.25,0Z" transform="translate(-25.64 -31.41)"/><path d="M412.73,348.74q18.74-15.51,38.71-29.44,19.69-13.73,40.46-25.81,11.76-6.84,23.82-13.12c.14-.08,0-.29-.13-.22q-21.48,11.21-42,24.15t-39.87,27.52Q423,340,412.55,348.56c-.12.11.05.28.18.18Z" transform="translate(-25.64 -31.41)"/><path d="M406.1,354.05q21.42-16.5,43.41-32.25t44.33-30.57q12.66-8.4,25.49-16.56a.13.13,0,0,0-.13-.22Q496.39,289,474.08,304.27t-43.85,31.25q-12.23,9-24.26,18.31c-.13.1,0,.32.13.22Z" transform="translate(-25.64 -31.41)"/><path d="M505.41,354c16.34-6.12,34.05-3,51-4.47a68.93,68.93,0,0,0,13.81-2.51c.15-.05.09-.29-.07-.24-16.68,5-34.25,1.63-51.28,3.75a59.55,59.55,0,0,0-13.56,3.23c-.15.06-.09.3.06.24Z" transform="translate(-25.64 -31.41)"/><path d="M497,358.79c19.56-.42,39.45-2.19,58.45-7a109.48,109.48,0,0,0,14.8-4.76c.15-.06.08-.3-.07-.24a132.81,132.81,0,0,1-27.23,7.4,283.94,283.94,0,0,1-30.49,3.63q-7.73.53-15.46.7a.13.13,0,0,0,0,.25Z" transform="translate(-25.64 -31.41)"/><path d="M538,334.77c13.86-1.57,27.72-3.07,41.59-4.64.15,0,.15-.27,0-.25-13.87,1.57-27.73,3.07-41.59,4.64-.16,0-.16.27,0,.25Z" transform="translate(-25.64 -31.41)"/><path d="M534.67,337.41a149.23,149.23,0,0,0,36.07-4.48,69.9,69.9,0,0,0,8.92-2.81c.15-.06.08-.3-.07-.24a86.74,86.74,0,0,1-16.47,4.44,173,173,0,0,1-19.24,2.48c-3.07.22-6.14.36-9.21.36a.13.13,0,0,0,0,.25Z" transform="translate(-25.64 -31.41)"/><path d="M569.25,315.16a165.57,165.57,0,0,1,59.17-17.63,119.51,119.51,0,0,1,16.71-.53c.16,0,.16-.24,0-.25-20.62-.83-41.54,3.83-60.67,11.29a162.21,162.21,0,0,0-15.34,6.9c-.14.08,0,.29.13.22Z" transform="translate(-25.64 -31.41)"/><path d="M567.22,316.4c21.53,1.92,40.63-10.65,60.61-16.41a68.13,68.13,0,0,1,17.93-2.89c.16,0,.16-.26,0-.25-21.58.29-40.11,13.15-60.67,17.87a56.86,56.86,0,0,1-17.87,1.43c-.16,0-.16.24,0,.25Z" transform="translate(-25.64 -31.41)"/><path d="M559.28,318.28c4.44-15.41,19.68-23.24,33-29.76.15-.07,0-.28-.12-.21-13.41,6.55-28.69,14.43-33.14,29.91,0,.15.19.22.24.06Z" transform="translate(-25.64 -31.41)"/><path d="M553.1,323.05c1.5-8.31,8.14-14.3,14.71-19s13.57-8.76,18.18-15.45c.09-.13-.13-.25-.22-.12-5,7.21-12.8,11.38-19.67,16.5-6,4.5-11.85,10.26-13.24,18,0,.16.21.22.24.07Z" transform="translate(-25.64 -31.41)"/><path d="M514.38,346.12a226.5,226.5,0,0,1,32.22-32.94q5.13-4.24,10.59-8.07c.13-.09,0-.31-.13-.22a203.16,203.16,0,0,0-34.5,31.2q-4.3,4.82-8.35,9.86c-.1.12.07.3.17.17Z" transform="translate(-25.64 -31.41)"/><path d="M521.22,342.4a223.44,223.44,0,0,1,36.46-37.81c.12-.11-.06-.28-.18-.18A224.75,224.75,0,0,0,521,342.27c-.1.13.12.25.22.13Z" transform="translate(-25.64 -31.41)"/><path d="M500.39,353.12A317.57,317.57,0,0,1,540.1,313.5c.13-.1-.05-.27-.17-.17a316.15,316.15,0,0,0-39.71,39.61c-.11.12.07.3.17.18Z" transform="translate(-25.64 -31.41)"/><path d="M509.83,348.7c9.37-12.25,20.92-22.64,30.28-34.89.1-.12-.12-.25-.22-.12-9.36,12.24-20.91,22.63-30.27,34.88-.1.13.12.25.21.13Z" transform="translate(-25.64 -31.41)"/><path d="M486.53,363.37c1.06-14.26,16.1-20.93,25.08-29.79.12-.11-.06-.29-.17-.18-9,8.93-24.09,15.62-25.16,30,0,.16.24.15.25,0Z" transform="translate(-25.64 -31.41)"/><path d="M488.66,360.32a160.6,160.6,0,0,1,32.76-34.9c.13-.1,0-.27-.18-.18a161,161,0,0,0-32.8,34.95c-.09.13.13.26.22.13Z" transform="translate(-25.64 -31.41)"/><path d="M554.67,368.45a214.77,214.77,0,0,0,55.74-8.55q7.68-2.25,15.18-5.07c.15-.05.09-.29-.06-.24a214.68,214.68,0,0,1-54.87,12.69q-8,.77-16,.92a.13.13,0,0,0,0,.25Z" transform="translate(-25.64 -31.41)"/><path d="M560.81,368.26a156.51,156.51,0,0,0,49.27-7.3c4.56-1.44,9-3.11,13.45-5,.15-.07.09-.31-.06-.25a156.32,156.32,0,0,1-48.56,11.81c-4.69.37-9.4.51-14.1.45a.13.13,0,0,0,0,.25Z" transform="translate(-25.64 -31.41)"/><path d="M547.63,364.48a155.75,155.75,0,0,1,40.93-31.63c4.46-2.38,9.05-4.54,13.72-6.48.15-.06.09-.3-.06-.24a156,156,0,0,0-44.08,27.65c-3.73,3.33-7.29,6.85-10.69,10.52-.11.12.07.3.18.18Z" transform="translate(-25.64 -31.41)"/><path d="M550.6,364.29a319.8,319.8,0,0,1,40.11-31q5.94-3.89,12-7.49c.14-.08,0-.3-.12-.21a320.93,320.93,0,0,0-41.32,29.07c-3.7,3.06-7.33,6.22-10.88,9.44-.12.11.06.29.17.18Z" transform="translate(-25.64 -31.41)"/><path d="M516,373c13.33-13.45,28.23-25.72,44.92-34.78.15-.08,0-.29-.12-.22-16.71,9.08-31.63,21.36-45,34.83-.11.11.07.29.18.17Z" transform="translate(-25.64 -31.41)"/><path d="M521.8,371.08,561,338.24c.12-.1-.06-.28-.18-.18L521.63,370.9c-.13.11,0,.28.17.18Z" transform="translate(-25.64 -31.41)"/><path d="M561,322.68q13.47.29,26.93-.66c4-.28,8.1-.54,12.1-1.13,3-.44,6.09-1.32,8.09-3.77.1-.12-.08-.3-.18-.18-2.24,2.76-5.85,3.48-9.2,3.87-4.09.48-8.19.8-12.29,1.06q-12.71.84-25.45.56a.13.13,0,0,0,0,.25Z" transform="translate(-25.64 -31.41)"/><path d="M466,350c14.49-4,28.15-10.43,42.65-14.4a.13.13,0,0,0-.07-.24c-14.49,4-28.16,10.43-42.65,14.4-.16,0-.09.28.07.24Z" transform="translate(-25.64 -31.41)"/><path d="M469.37,346a76.48,76.48,0,0,1,40.31-10.29.13.13,0,0,0,0-.25,76.87,76.87,0,0,0-40.44,10.32c-.14.08,0,.3.13.22Z" transform="translate(-25.64 -31.41)"/><path d="M503.48,304.26c10.34,1.75,20.23-2.56,29.19-7.26,4.73-2.48,9.41-5.07,14.32-7.18a106,106,0,0,1,33.64-8.36c.16,0,.16-.27,0-.25a107.29,107.29,0,0,0-30.34,7,131.07,131.07,0,0,0-13.83,6.52,120.71,120.71,0,0,1-14.64,7c-5.83,2.15-12.09,3.32-18.28,2.27-.15,0-.22.22-.06.25Z" transform="translate(-25.64 -31.41)"/><path d="M498.11,303.29c9.72,4.57,20.93,2.79,30.53-1.13,10.7-4.37,20.17-11.24,30.9-15.54A45.48,45.48,0,0,1,579,282.94c.16,0,.16-.24,0-.25-23.26-1.31-40,19.15-62.08,22.59a32.06,32.06,0,0,1-18.63-2.21c-.14-.07-.27.15-.13.22Z" transform="translate(-25.64 -31.41)"/><path d="M489.91,310.09l.33.33a.13.13,0,1,0,.18-.18l-.33-.33a.13.13,0,0,0-.18.18Z" transform="translate(-25.64 -31.41)"/><path d="M491.08,311.12,534.35,305c.16,0,.1-.27-.06-.25L491,310.88c-.16,0-.09.26.07.24Z" transform="translate(-25.64 -31.41)"/><path d="M489.66,312.71a141.2,141.2,0,0,0,48.7-7c.15-.05.08-.29-.07-.24a141.07,141.07,0,0,1-48.63,6.95.13.13,0,0,0,0,.25Z" transform="translate(-25.64 -31.41)"/><path d="M501.42,299.73A295.94,295.94,0,0,1,547.64,264c.14-.09,0-.3-.12-.22a295.45,295.45,0,0,0-36.61,27q-4.94,4.26-9.67,8.73c-.12.11.06.29.18.18Z" transform="translate(-25.64 -31.41)"/><path d="M507.44,297.92c13-6.08,20.09-19.34,31-28a35.18,35.18,0,0,1,11.08-6.08c.15-.05.08-.29-.07-.24-13.88,4.4-21.6,17.74-31.87,27a42,42,0,0,1-10.31,7.05c-.14.07,0,.29.13.22Z" transform="translate(-25.64 -31.41)"/><path d="M467.81,325.11l39-37c.12-.11-.06-.28-.17-.17l-39,37c-.12.11.06.29.18.18Z" transform="translate(-25.64 -31.41)"/><path d="M478.45,317.49A33.48,33.48,0,0,0,495.2,306c4.45-5.79,6.74-13.19,12.53-17.93.12-.11-.06-.28-.18-.18-5.38,4.42-7.76,11.15-11.65,16.72a33.14,33.14,0,0,1-17.52,12.67c-.15.05-.09.29.07.24Z" transform="translate(-25.64 -31.41)"/><path d="M478.41,300.74c1.65-8.64,7.16-16.14,13.67-21.84,7.13-6.26,15.85-10.11,24.83-12.93,5.16-1.62,10.42-2.91,15.68-4.2a.13.13,0,0,0-.07-.24c-9.6,2.35-19.31,4.74-28.25,9.08A52.54,52.54,0,0,0,484,287.48a34.36,34.36,0,0,0-5.82,13.2c0,.15.21.22.24.06Z" transform="translate(-25.64 -31.41)"/><path d="M480.94,299.73c9.81-13.74,22.68-25.82,38-33.07a70.81,70.81,0,0,1,13.47-4.79c.16,0,.09-.28-.07-.24-16.63,4-31.18,14.35-42.64,26.83a116,116,0,0,0-9,11.14c-.1.13.12.26.21.13Z" transform="translate(-25.64 -31.41)"/><path d="M434.61,333.14a195.26,195.26,0,0,0,41.92-20.74q5.66-3.72,11.05-7.82c.13-.09,0-.31-.12-.21a195.31,195.31,0,0,1-40.14,23.51q-6.3,2.73-12.78,5c-.15.05-.08.29.07.24Z" transform="translate(-25.64 -31.41)"/><path d="M443.36,325.69l44.73-20.46c.15-.07,0-.28-.13-.22l-44.73,20.47c-.14.07,0,.28.13.21Z" transform="translate(-25.64 -31.41)"/><path d="M464,332.67a55.74,55.74,0,0,0,38.62-12.13c.13-.1-.05-.27-.17-.17A55.58,55.58,0,0,1,464,332.42c-.16,0-.16.24,0,.25Z" transform="translate(-25.64 -31.41)"/><path d="M467.33,329.89a155.36,155.36,0,0,0,40.89-12.45c.14-.07,0-.28-.13-.22a154.79,154.79,0,0,1-40.83,12.43c-.16,0-.09.26.07.24Z" transform="translate(-25.64 -31.41)"/><path d="M399.55,350.64A410.43,410.43,0,0,1,428,318.82c9.47-9.68,19.28-19,28.59-28.85s18.44-20.08,27.7-30.09c4.44-4.8,8.91-9.56,13.49-14.22a30.93,30.93,0,0,1,4.32-4.17l3.39-2.28,4.59-3.09a17.19,17.19,0,0,0,2.82-1.9s.61-.49-.14-.15c-.25.11-.59.62-.78.82l-1.94,2q-2,2.12-4,4.24c-6.06,6.55-12,13.2-18,19.88C474,276.92,460.05,293,446,308.91c-12.38,14.09-24.74,28.22-37.57,41.9-1.18,1.25-2.35,2.49-3.54,3.73-.11.11.07.29.18.17,6.23-6.5,12.29-13.18,18.31-19.89q11.25-12.52,22.33-25.2,11.91-13.53,23.78-27.1,11.28-12.86,22.65-25.63c6.25-7,12.52-13.93,19-20.73l2-2.07c.09-.1,0-.28-.15-.2l-5.55,3.74c-1.95,1.32-4.05,2.53-5.91,4a55.61,55.61,0,0,0-4.91,4.92q-3.07,3.16-6.11,6.37c-4.09,4.33-8.12,8.71-12.14,13.1-8.15,8.91-16.24,17.89-24.6,26.62s-17.34,17.28-25.9,26a406.77,406.77,0,0,0-28.45,31.82c-.1.12.08.3.18.17Z" transform="translate(-25.64 -31.41)"/><path d="M489.71,258.71c1.58-2,4.5-2.52,6.86-2.88a89.18,89.18,0,0,1,8.94-.68c7.73-.4,15.35-2.47,22.87-4.17,5-1.13,10-2.21,15.15-2.92.16,0,.09-.26-.06-.24-9.18,1.27-18.12,3.77-27.21,5.56a75.62,75.62,0,0,1-10.9,1.52c-2.85.15-5.72.24-8.55.65-2.48.35-5.61.89-7.27,3-.1.12.07.3.17.17Z" transform="translate(-25.64 -31.41)"/><path d="M489.75,259.71a155.33,155.33,0,0,0,22.83.29,115.09,115.09,0,0,0,23.34-3.52A58.33,58.33,0,0,0,547,252.36c.14-.07,0-.29-.13-.22-6.58,3.33-13.89,5.08-21.14,6.22A145.15,145.15,0,0,1,501.89,260c-4.05,0-8.1-.2-12.14-.56-.16,0-.16.23,0,.25Z" transform="translate(-25.64 -31.41)"/><path d="M476.35,275.4a86.31,86.31,0,0,1,18-6.24c6.12-1.55,12.48-3,18.81-3.08a.13.13,0,0,0,0-.25c-6.36.13-12.74,1.53-18.87,3.09s-12.41,3.37-18.07,6.26a.13.13,0,0,0,.12.22Z" transform="translate(-25.64 -31.41)"/><path d="M474.66,277.79A171.18,171.18,0,0,0,513.3,266.2c.14-.06,0-.27-.13-.21a171.14,171.14,0,0,1-38.58,11.56c-.16,0-.09.26.07.24Z" transform="translate(-25.64 -31.41)"/><path d="M461.83,290.4a35.86,35.86,0,0,1,8.72-.35,47.5,47.5,0,0,0,10.28-1.15c7.82-1.53,15.52-3.6,23.23-5.63,3.86-1,7.73-2,11.63-2.89.16,0,.09-.28-.07-.24-7.18,1.6-14.26,3.63-21.4,5.44-3.87,1-7.75,1.91-11.66,2.71A52.83,52.83,0,0,1,471,289.81c-3.15-.06-6.16-.31-9.27.35a.12.12,0,0,0,.06.24Z" transform="translate(-25.64 -31.41)"/><path d="M456.36,296.67c7.57,2.63,15.49,1.52,22.85-1.27,6.2-2.34,12.38-4.86,18.34-7.73a66.23,66.23,0,0,0,9.39-5.31c.13-.09,0-.31-.13-.22-6.73,4.74-14.65,7.83-22.25,10.88a74.09,74.09,0,0,1-12.67,4.28,29.15,29.15,0,0,1-15.47-.87c-.15-.05-.22.19-.06.24Z" transform="translate(-25.64 -31.41)"/><path d="M379.86,339.74c9-6.57,18.77-12,28.21-18a163.34,163.34,0,0,0,18.68-13.55,367.79,367.79,0,0,0,35.53-34.65,168.89,168.89,0,0,0,14.46-17.79c.09-.14-.13-.26-.22-.13a158.18,158.18,0,0,1-12.76,15.89c-5.49,6.19-11.23,12.18-17.12,18-11,10.91-22.5,21.57-35.56,30-10.4,6.73-21.32,12.66-31.35,20-.13.09,0,.31.13.21Z" transform="translate(-25.64 -31.41)"/><path d="M381.45,334.41l37.65-32.83c11.84-10.32,23.6-20.74,36-30.4,7-5.43,14.14-10.61,21.6-15.35.14-.08,0-.3-.12-.21-13.06,8.3-25.21,17.92-37,27.92-12.4,10.51-24.57,21.29-36.82,32l-21.47,18.71c-.12.11.06.28.18.18Z" transform="translate(-25.64 -31.41)"/><path d="M374.64,309.8q20.75-23.76,43.17-46c13.58-13.44,27.54-26.8,43.62-37.27a117.25,117.25,0,0,1,28.39-13.73c.15-.05.09-.29-.07-.24-17.78,5.64-33.43,16.18-47.55,28.15-15.38,13-29.59,27.59-43.46,42.2q-12.4,13.08-24.27,26.68c-.11.12.07.3.17.18Z" transform="translate(-25.64 -31.41)"/><path d="M377.29,311.19q19.6-21.46,41-41.17t44.86-37.64q13.07-10,26.61-19.36c.13-.09,0-.3-.12-.21q-24,16.51-46.39,35.1t-43.4,39.36Q388.22,298.85,377.11,311c-.1.12.07.3.18.18Z" transform="translate(-25.64 -31.41)"/><path d="M440.56,252c12.13-8.72,28.21-7.5,42-11.65a39.16,39.16,0,0,0,10.67-4.91c.13-.09,0-.31-.13-.21-12.37,8.38-28.35,7.06-42.14,11.44a37,37,0,0,0-10.51,5.12c-.13.09,0,.31.12.21Z" transform="translate(-25.64 -31.41)"/><path d="M437.38,254.6a88.83,88.83,0,0,0,44.92-11.79,86.71,86.71,0,0,0,10.85-7.38c.13-.1,0-.27-.18-.17a88,88,0,0,1-55.59,19.09.13.13,0,0,0,0,.25Z" transform="translate(-25.64 -31.41)"/><path d="M426.66,263.5c7.7-1.83,15.61-2.85,23.38-4.32l24.21-4.56c.16,0,.09-.27-.07-.24L450,258.94c-7.78,1.47-15.69,2.49-23.39,4.31-.15,0-.09.28.07.25Z" transform="translate(-25.64 -31.41)"/><path d="M424.61,265c1.53,2.33,4.88,2.66,7.45,2.53,3.6-.18,7.22-1.32,10.74-2,7-1.44,14.14-2.82,20.87-5.39a52.27,52.27,0,0,0,10.61-5.48c.13-.09,0-.31-.13-.22-7.13,4.82-15.32,7.37-23.65,9.22-4.14.93-8.31,1.72-12.45,2.61a28.83,28.83,0,0,1-7.14,1.08c-2.2-.09-4.78-.45-6.08-2.43-.09-.13-.31,0-.22.13Z" transform="translate(-25.64 -31.41)"/><path d="M401.72,287A122.38,122.38,0,0,0,448,270.4a.12.12,0,0,0-.13-.21,122,122,0,0,1-46.25,16.51c-.16,0-.1.27.06.25Z" transform="translate(-25.64 -31.41)"/><path d="M399.58,289.18c14,1.05,27.57-3.76,39.08-11.52a93,93,0,0,0,9.41-7.28c.12-.1-.06-.28-.18-.17-13.34,11.67-30.19,20.08-48.31,18.72-.16,0-.16.24,0,.25Z" transform="translate(-25.64 -31.41)"/><path d="M396.8,285.18a93.84,93.84,0,0,1,8.05-18.89,169.9,169.9,0,0,1,11.64-18.38c2.25-3.1,4.59-6.12,7.05-9.06.11-.12-.07-.3-.17-.17a154.42,154.42,0,0,0-23,36.05,78.4,78.4,0,0,0-3.83,10.39c-.05.15.19.22.24.06Z" transform="translate(-25.64 -31.41)"/><path d="M403.24,278a302.35,302.35,0,0,0,20.32-39.19c.06-.15-.15-.27-.21-.13A302.35,302.35,0,0,1,403,277.89a.12.12,0,0,0,.21.13Z" transform="translate(-25.64 -31.41)"/><path d="M426.23,255.53c-3.51-8.18,1.83-16.32,6.1-23l14-21.95c.09-.14-.12-.26-.21-.13q-7.54,11.79-15.07,23.58c-4,6.32-8.32,14-5.06,21.63.06.14.28,0,.21-.13Z" transform="translate(-25.64 -31.41)"/><path d="M429.23,252.75c6.38-13.73,11-28.19,17.38-41.92.06-.15-.15-.27-.22-.13-6.38,13.73-11,28.2-17.37,41.92-.07.15.15.28.21.13Z" transform="translate(-25.64 -31.41)"/><path d="M446.33,237.36a31.52,31.52,0,0,1,14.55-27.67c.14-.09,0-.31-.13-.22a31.82,31.82,0,0,0-14.67,27.89c0,.16.26.16.25,0Z" transform="translate(-25.64 -31.41)"/><path d="M448.38,236c3.58-3.37,2.53-9,4.45-13.17,2.16-4.73,6.29-8.26,8.11-13.18.05-.15-.19-.21-.24-.06-1.81,4.89-5.93,8.41-8.09,13.12-1.9,4.15-.87,9.79-4.41,13.12-.11.11.06.28.18.17Z" transform="translate(-25.64 -31.41)"/><path d="M455.38,230.63a21.08,21.08,0,0,1,1.71-10.18,19.89,19.89,0,0,1,7.42-9c7.05-4.92,15.65-6.94,22.8-11.71.14-.09,0-.3-.12-.21-7.56,5-16.79,7-24,12.59a21.29,21.29,0,0,0-8,18.56c0,.15.26.15.25,0Z" transform="translate(-25.64 -31.41)"/><path d="M458.75,228.4a18.94,18.94,0,0,1,2.53-10,21.25,21.25,0,0,1,7.74-7.44c3.12-1.93,6.53-3.28,9.7-5.1a66.27,66.27,0,0,0,8.62-6.17c.12-.1,0-.28-.18-.18a60.36,60.36,0,0,1-9.68,6.75c-3.49,1.86-7.12,3.37-10.37,5.65a19.5,19.5,0,0,0-6.5,7.21,19,19,0,0,0-2.11,9.3c0,.16.26.16.25,0Z" transform="translate(-25.64 -31.41)"/><path d="M350.6,313c3.71-13.39,13.73-23.6,23.68-32.75q16-14.73,31.88-29.58,9.33-8.76,18.8-17.37a.12.12,0,0,0-.17-.18c-10.94,9.92-21.65,20.09-32.45,30.18-5.59,5.22-11.24,10.38-16.9,15.54a144.25,144.25,0,0,0-14.6,14.86,53.08,53.08,0,0,0-10.48,19.24.12.12,0,0,0,.24.06Z" transform="translate(-25.64 -31.41)"/><path d="M350.1,309c4.1-14.16,13.63-25.82,24.43-35.52,11.34-10.19,24.28-18.36,36.25-27.75a128.69,128.69,0,0,0,19.11-17.92c.1-.12-.07-.3-.18-.18-10.3,12.19-23.49,21.34-36.3,30.65-11.83,8.6-23.57,17.66-32.51,29.36a65.11,65.11,0,0,0-11,21.29c0,.15.2.22.24.07Z" transform="translate(-25.64 -31.41)"/><path d="M398.27,225.31c-7.44,3.37-13.91,8.61-20.68,13.1a66.79,66.79,0,0,1-10.1,5.76c-4.22,1.84-8.73,3.11-13.07,4.63a133.75,133.75,0,0,0-12.7,5.06c-3.9,1.85-7.56,4.12-11.27,6.32-5.57,3.31-11,6.85-14.64,12.34-.58.87-1.11,1.77-1.6,2.69-.26.49-.51,1-.75,1.49a3.92,3.92,0,0,0-.58,1.27,6.85,6.85,0,0,0,.63,1.83l2.2,6.23c0,.1.18.14.23,0a57.15,57.15,0,0,1,15.42-19.58c6.55-5.36,14.07-9.34,21.72-12.88a173.22,173.22,0,0,0,18.17-10.1c6-3.7,11.91-7.56,17.76-11.51,3.15-2.13,6.29-4.27,9.39-6.47.13-.09,0-.3-.13-.21-7.5,5.32-15.17,10.43-22.94,15.35-5.84,3.7-11.76,7.31-17.89,10.51-6.58,3.44-13.39,6.29-19.65,10.34a62.33,62.33,0,0,0-16.46,15.05,58,58,0,0,0-3.31,5c-.47.81-.92,1.63-1.36,2.47a7.51,7.51,0,0,0-.68,1.36c-.06.23.11.69-.08.42a12.54,12.54,0,0,1-.95-2.7l-1.31-3.69a11.25,11.25,0,0,1-.39-1.11c-.12-.54.08-.77.34-1.33a33.49,33.49,0,0,1,2.9-5,31.57,31.57,0,0,1,7.57-7.42c3-2.14,6.18-3.95,9.34-5.82a98.13,98.13,0,0,1,12.91-6.61c4.56-1.88,9.24-3.45,13.91-5.05a69.38,69.38,0,0,0,11.39-4.68c7.57-4.22,14.29-9.79,21.74-14.21a51.62,51.62,0,0,1,5-2.66C398.54,225.46,398.42,225.24,398.27,225.31Z" transform="translate(-25.64 -31.41)"/><path d="M357.23,247c10.27-13.17,23.6-23.75,37.21-33.28.13-.09,0-.31-.13-.21-13.62,9.53-27,20.13-37.25,33.32-.1.12.07.3.17.17Z" transform="translate(-25.64 -31.41)"/><path d="M352.38,248.39a91.27,91.27,0,0,1,42.11-34.77c.15-.06.08-.3-.06-.24a91.91,91.91,0,0,0-35,25.17,90.17,90.17,0,0,0-7.26,9.71c-.09.14.12.26.21.13Z" transform="translate(-25.64 -31.41)"/><path d="M342.26,258.72a52.9,52.9,0,0,0,37.61-9.87c.13-.09,0-.31-.12-.22a52.72,52.72,0,0,1-37.49,9.84c-.16,0-.16.23,0,.25Z" transform="translate(-25.64 -31.41)"/><path d="M338.66,261.05c14.43.36,29.07-4.58,41.21-12.2.14-.08,0-.3-.12-.22-12.1,7.6-26.7,12.53-41.09,12.17a.13.13,0,0,0,0,.25Z" transform="translate(-25.64 -31.41)"/><path d="M337,253.47c2.54-16.67,17.52-26.7,30.63-35.08.13-.09,0-.31-.13-.22-13.15,8.41-28.19,18.51-30.74,35.23,0,.16.22.22.24.07Z" transform="translate(-25.64 -31.41)"/><path d="M338.47,255.24a117,117,0,0,1,29.19-36.87c.12-.11-.06-.28-.18-.18a117.38,117.38,0,0,0-29.23,36.93c-.07.14.15.27.22.12Z" transform="translate(-25.64 -31.41)"/><path d="M348.73,244.93c22.35-15.21,41.85-34.42,58.37-55.76q6.81-8.79,12.94-18.07c.09-.13-.12-.25-.21-.12a279.38,279.38,0,0,1-52.91,59.88c-5.88,4.91-12,9.55-18.32,13.85-.13.09,0,.31.13.22Z" transform="translate(-25.64 -31.41)"/><path d="M351.16,238.68c10.61-4.82,19.37-12.69,27.3-21.08,8.93-9.44,17.4-19.34,26.05-29L420,171.13c.11-.12-.07-.3-.17-.18l-27.4,30.77c-7.93,8.9-15.66,18.15-24.76,25.91A71.53,71.53,0,0,1,351,238.47c-.14.06,0,.28.13.21Z" transform="translate(-25.64 -31.41)"/><path d="M397.63,201.88c16.76,2.18,34.94-.78,48.62-11.18a54,54,0,0,0,13.69-15.47.12.12,0,0,0-.21-.13A54,54,0,0,1,432.58,198a70.25,70.25,0,0,1-26.49,4.3,82.38,82.38,0,0,1-8.46-.64c-.16,0-.16.22,0,.25Z" transform="translate(-25.64 -31.41)"/><path d="M392.58,207a92,92,0,0,0,23.58-3A97.18,97.18,0,0,0,439.93,195a50.31,50.31,0,0,0,10.16-7.21c.12-.12-.06-.29-.18-.18-5.78,5.42-13.08,9.11-20.41,12a110.76,110.76,0,0,1-24,6.33,80.71,80.71,0,0,1-12.9.91.13.13,0,0,0,0,.25Z" transform="translate(-25.64 -31.41)"/><path d="M322.78,228.71l54.92-38.9,15.46-10.95c.13-.1,0-.31-.12-.22l-54.93,38.9-15.45,11c-.13.1,0,.31.12.22Z" transform="translate(-25.64 -31.41)"/><path d="M322.05,234.43a495.41,495.41,0,0,0,54-40.81q7.29-6.35,14.34-13c.12-.11-.06-.29-.18-.18a496.79,496.79,0,0,1-52.47,43q-7.79,5.53-15.79,10.76c-.13.09,0,.3.13.21Z" transform="translate(-25.64 -31.41)"/><path d="M351.3,213.79c12.05,2.14,24.26-.39,35.36-5.2.14-.07,0-.28-.13-.22-11,4.78-23.19,7.31-35.16,5.18-.16,0-.23.21-.07.24Z" transform="translate(-25.64 -31.41)"/><path d="M346.84,218.48c13.13,4.34,27.86.18,38.5-8.14.12-.1,0-.28-.18-.18-10.57,8.27-25.21,12.38-38.25,8.08-.15-.05-.22.19-.07.24Z" transform="translate(-25.64 -31.41)"/><path d="M316.54,206.34l48.92-33.29c.14-.09,0-.3-.12-.21l-48.93,33.28c-.13.09,0,.31.13.22Z" transform="translate(-25.64 -31.41)"/><path d="M318.21,210.71c12.51-10.05,25.15-20,37.72-29.93l9.37-7.48c.12-.1-.06-.28-.18-.18-12.51,10.06-25.15,19.95-37.71,29.94q-4.7,3.72-9.37,7.48c-.13.1,0,.27.17.17Z" transform="translate(-25.64 -31.41)"/><path d="M336.35,195.48a64.11,64.11,0,0,0,41.49-13.14c.12-.09,0-.31-.13-.21a64,64,0,0,1-41.36,13.1.13.13,0,0,0,0,.25Z" transform="translate(-25.64 -31.41)"/><path d="M330.33,201.16a56.87,56.87,0,0,0,40.57-11.82,54.63,54.63,0,0,0,8.94-8.85c.1-.13-.08-.31-.18-.18a56.54,56.54,0,0,1-37.32,20.53,54.19,54.19,0,0,1-12,.07c-.16,0-.16.23,0,.25Z" transform="translate(-25.64 -31.41)"/><path d="M299.59,188.14a236.84,236.84,0,0,1,52.67-29.25q7.85-3.13,15.91-5.68a.13.13,0,0,0-.07-.25,237.61,237.61,0,0,0-54.5,25.32q-7.25,4.56-14.13,9.64c-.13.1,0,.31.12.22Z" transform="translate(-25.64 -31.41)"/><path d="M294.56,186.86a242.46,242.46,0,0,1,57-29.16q8.49-3,17.19-5.36a.13.13,0,0,0-.07-.25,242.69,242.69,0,0,0-58.89,24.75q-7.86,4.6-15.37,9.81c-.13.09,0,.31.13.21Z" transform="translate(-25.64 -31.41)"/><path d="M326,171.11a120.55,120.55,0,0,0,53.87-13.68c.15-.07,0-.29-.12-.21A120.34,120.34,0,0,1,326,170.86a.13.13,0,0,0,0,.25Z" transform="translate(-25.64 -31.41)"/><path d="M320.65,174.67a98.33,98.33,0,0,0,42.16-8.38,97.27,97.27,0,0,0,11.08-5.8.12.12,0,0,0-.13-.21,98.09,98.09,0,0,1-53.11,14.14.13.13,0,0,0,0,.25Z" transform="translate(-25.64 -31.41)"/><path d="M328.59,167.17c12.87-10.49,27.21-20.91,43.79-24.36.15,0,.09-.27-.07-.24-16.62,3.46-31,13.9-43.9,24.42-.12.11,0,.28.18.18Z" transform="translate(-25.64 -31.41)"/><path d="M335.43,164.1a144.57,144.57,0,0,1,36.95-21.29c.15-.05.08-.3-.07-.24a144.81,144.81,0,0,0-37.05,21.36c-.13.1.05.27.17.17Z" transform="translate(-25.64 -31.41)"/><path d="M318.22,172.5a93.76,93.76,0,0,1,38.06-30.9,63.36,63.36,0,0,1,13-4.12c.15,0,.09-.27-.07-.24-16.27,3.19-31.12,13.14-42.57,24.84a89.92,89.92,0,0,0-8.68,10.3c-.09.13.13.25.22.12Z" transform="translate(-25.64 -31.41)"/><path d="M316,173.4a74,74,0,0,1,39.34-32.55,71.22,71.22,0,0,1,14-3.37c.15,0,.09-.26-.07-.24a74.13,74.13,0,0,0-44.93,24.2,70.67,70.67,0,0,0-8.51,11.83c-.08.14.13.27.21.13Z" transform="translate(-25.64 -31.41)"/><path d="M281.11,180.53a165.5,165.5,0,0,0,36.24-22.79c.12-.11-.06-.28-.18-.18A165.43,165.43,0,0,1,281,180.32c-.15.06,0,.28.13.21Z" transform="translate(-25.64 -31.41)"/><path d="M276.83,179.16a147.24,147.24,0,0,0,20.7-9.42,188.7,188.7,0,0,0,19.79-12c.13-.09,0-.3-.12-.21a189.47,189.47,0,0,1-19.44,11.8,148.83,148.83,0,0,1-21,9.58c-.15.06-.08.3.07.24Z" transform="translate(-25.64 -31.41)"/><path d="M286.27,171.49a90.71,90.71,0,0,1,43-42.66c.14-.06,0-.28-.13-.21A91.64,91.64,0,0,0,293,159.36a90.24,90.24,0,0,0-7,12c-.07.15.15.27.22.13Z" transform="translate(-25.64 -31.41)"/><path d="M277.23,175.59c3.61-8.21,9.75-15.21,16.14-21.38A149.61,149.61,0,0,1,316.63,136a124.37,124.37,0,0,1,12.62-7.15c.14-.07,0-.28-.13-.21a138.42,138.42,0,0,0-23.41,14.71,120.07,120.07,0,0,0-21.25,20.22A54.17,54.17,0,0,0,277,175.47c-.06.14.15.27.22.12Z" transform="translate(-25.64 -31.41)"/><path d="M297.56,153.81A86.82,86.82,0,0,0,337,139.05c.13-.1,0-.31-.13-.22a86.44,86.44,0,0,1-39.33,14.73c-.16,0-.16.27,0,.25Z" transform="translate(-25.64 -31.41)"/><path d="M296,155.84c2.88,2.26,6.56,1.83,9.91,1a56.88,56.88,0,0,0,11-3.84c7.29-3.39,14.43-7.95,19.92-13.89.11-.12-.07-.29-.18-.18a62.63,62.63,0,0,1-18.41,13.16,57.33,57.33,0,0,1-10.29,4c-3.79,1-8.34,2.22-11.75-.45-.12-.1-.3.08-.17.18Z" transform="translate(-25.64 -31.41)"/><path d="M137.51,226.17c9.82-10.63,22.26-18.48,35.24-24.71,13.43-6.45,27.69-10.57,41.84-15.1A226.21,226.21,0,0,0,237.31,178c.15-.06,0-.28-.12-.21-13.74,6.08-28.33,9.89-42.55,14.65C181,197,167.76,202.8,155.71,210.69A97.68,97.68,0,0,0,137.33,226c-.11.12.07.3.18.18Z" transform="translate(-25.64 -31.41)"/><path d="M145.19,228.15c7.58-9.91,18.93-15.74,30-20.94,13.3-6.28,26.64-12.46,40-18.69l22.64-10.58c.14-.07,0-.28-.13-.21L196.45,197l-20.12,9.4a155.82,155.82,0,0,0-16.6,8.69A54.89,54.89,0,0,0,145,228c-.1.13.11.25.21.13Z" transform="translate(-25.64 -31.41)"/><path d="M173.38,207.94c5.3.12,10.68.1,15.88-1.1a44.29,44.29,0,0,0,14.18-6.44c.13-.09,0-.3-.13-.22a43.94,43.94,0,0,1-14.12,6.42c-5.17,1.2-10.53,1.21-15.81,1.09-.17,0-.17.24,0,.25Z" transform="translate(-25.64 -31.41)"/><path d="M163.9,213.35a44.87,44.87,0,0,0,22.91-3.25c3.08-1.23,6.11-2.61,9.1-4a26.84,26.84,0,0,0,7.55-5.67c.12-.11-.06-.29-.17-.18a27,27,0,0,1-7.62,5.69c-3.06,1.46-6.15,2.88-9.3,4.12a44.43,44.43,0,0,1-22.47,3.09c-.16,0-.16.23,0,.25Z" transform="translate(-25.64 -31.41)"/><path d="M169.1,232.93q26.24-21.06,53.18-41.26,7.6-5.7,15.28-11.34c.13-.09,0-.31-.12-.21q-27.15,19.95-53.62,40.79-7.48,5.9-14.9,11.85c-.13.1.05.27.18.17Z" transform="translate(-25.64 -31.41)"/><path d="M173.47,238.55a238.79,238.79,0,0,0,50.12-42.13q6.18-6.87,11.83-14.2c.1-.12-.12-.25-.22-.12a238.14,238.14,0,0,1-46.63,45.82q-7.41,5.51-15.23,10.42a.12.12,0,0,0,.13.21Z" transform="translate(-25.64 -31.41)"/><path d="M191.94,251.63a141.42,141.42,0,0,1,29.12-33.35q5-4.16,10.34-7.83c.14-.09,0-.31-.12-.21a141.19,141.19,0,0,0-32.15,30.57q-3.94,5.17-7.4,10.69c-.09.14.13.26.21.13Z" transform="translate(-25.64 -31.41)"/><path d="M197.94,254.5A163.1,163.1,0,0,1,225,221.7c.12-.11-.06-.29-.17-.18a163.58,163.58,0,0,0-27.14,32.85c-.09.14.13.26.22.13Z" transform="translate(-25.64 -31.41)"/><path d="M237.51,278.86a61.88,61.88,0,0,0,15.52-19c.08-.14-.14-.27-.21-.13a61.62,61.62,0,0,1-15.49,19c-.13.1,0,.28.18.18Z" transform="translate(-25.64 -31.41)"/><path d="M239.34,281a98.17,98.17,0,0,0,15-19.84c.08-.14-.14-.26-.22-.12a98.23,98.23,0,0,1-15,19.79.12.12,0,0,0,.18.17Z" transform="translate(-25.64 -31.41)"/><path d="M245.85,287.11A49.09,49.09,0,0,1,261.68,272a.12.12,0,0,0-.13-.21A49.42,49.42,0,0,0,245.63,287c-.09.14.13.26.22.13Z" transform="translate(-25.64 -31.41)"/><path d="M251.4,289.07l11.52-14.78c.1-.12-.07-.3-.17-.17L251.23,288.9c-.1.12.07.3.17.17Z" transform="translate(-25.64 -31.41)"/><path d="M308.19,195.74c12.22-6.9,24.9-13,37.12-19.88.14-.08,0-.3-.12-.22-12.23,6.91-24.9,13-37.13,19.88-.14.08,0,.3.13.22Z" transform="translate(-25.64 -31.41)"/><path d="M309.6,196.85a119.37,119.37,0,0,0,35.74-21c.12-.11-.06-.28-.18-.18a118.93,118.93,0,0,1-35.62,21c-.15,0-.09.29.06.24Z" transform="translate(-25.64 -31.41)"/><path d="M194,234.35a226.82,226.82,0,0,0,39.83-30.57c.12-.12-.06-.29-.18-.18a225.76,225.76,0,0,1-39.78,30.53c-.14.08,0,.3.13.22Z" transform="translate(-25.64 -31.41)"/><path d="M195.77,229.85a226.29,226.29,0,0,0,37.08-25.42q5-4.16,9.64-8.61c.11-.11-.06-.28-.18-.17a226.08,226.08,0,0,1-35.71,27.57q-5.39,3.36-11,6.41c-.14.08,0,.29.13.22Z" transform="translate(-25.64 -31.41)"/><path d="M221.59,207.51A73.78,73.78,0,0,1,253.33,183c.14-.06.08-.3-.07-.24a74.18,74.18,0,0,0-31.89,24.6c-.09.13.12.25.22.13Z" transform="translate(-25.64 -31.41)"/><path d="M326.9,231.31a14.29,14.29,0,0,0,5.59-.45,83.69,83.69,0,0,0,9-2.49c6.52-2.1,12.94-4.55,19.28-7.15,2.19-.9,4.38-1.8,6.52-2.8.15-.07,0-.28-.13-.22-4.66,2.17-9.47,4-14.27,5.86a158.68,158.68,0,0,1-18.78,6.19c-2.2.53-4.82,1.29-7.1.82-.16,0-.22.21-.07.24Z" transform="translate(-25.64 -31.41)"/><path d="M322.19,234.5a83.8,83.8,0,0,0,19.35-2.81,72,72,0,0,0,17.85-7.81.12.12,0,0,0-.13-.21,71.75,71.75,0,0,1-17.79,7.78,83.74,83.74,0,0,1-19.28,2.8c-.16,0-.16.26,0,.25Z" transform="translate(-25.64 -31.41)"/><path d="M332.09,222.09c7.16-9.05,15.06-17.78,24.66-24.28.13-.09,0-.31-.13-.22-9.62,6.52-17.54,15.26-24.71,24.32-.1.13.08.3.18.18Z" transform="translate(-25.64 -31.41)"/><path d="M325.12,227a37.6,37.6,0,0,1,12.14-18.44c5.71-4.86,13-7.22,19.49-10.78a.13.13,0,0,0-.13-.22c-6.63,3.64-14.06,6-19.84,11.09A37.72,37.72,0,0,0,324.88,227a.12.12,0,0,0,.24.06Z" transform="translate(-25.64 -31.41)"/><path d="M340.55,189.91c3.49-4.94,8.45-8.78,13.27-12.34,4.51-3.33,9.24-6.36,13.68-9.78a16.42,16.42,0,0,0,3.94-3.77c.09-.13-.13-.26-.21-.12a15.91,15.91,0,0,1-3.69,3.54c-2.08,1.62-4.26,3.13-6.42,4.64A157.73,157.73,0,0,0,346.67,183a40.56,40.56,0,0,0-6.34,6.82c-.09.13.12.26.22.13Z" transform="translate(-25.64 -31.41)"/><path d="M334.55,194.06A89.83,89.83,0,0,1,371.27,164c.15-.06,0-.28-.12-.21a90.11,90.11,0,0,0-36.82,30.17c-.09.13.12.25.22.12Z" transform="translate(-25.64 -31.41)"/><path d="M297.23,184.72a106.36,106.36,0,0,1,15-18.17,141.08,141.08,0,0,1,18-15.3c.13-.09,0-.31-.12-.22A142.76,142.76,0,0,0,312,166.37a106.94,106.94,0,0,0-15,18.22.13.13,0,0,0,.22.13Z" transform="translate(-25.64 -31.41)"/><path d="M307.69,178.4c6.61-9.71,13.52-19.51,22.52-27.17.12-.1-.06-.28-.18-.18-9,7.68-15.94,17.5-22.55,27.22-.1.13.12.26.21.13Z" transform="translate(-25.64 -31.41)"/><path d="M319.41,192.91A37.07,37.07,0,0,0,338.93,186c.14-.09,0-.31-.12-.22a44.38,44.38,0,0,1-9.21,4.81,45.36,45.36,0,0,1-10.19,2c-.16,0-.16.26,0,.25Z" transform="translate(-25.64 -31.41)"/><path d="M312.66,195.88A36.19,36.19,0,0,0,339,186c.12-.11-.06-.29-.17-.18a35.93,35.93,0,0,1-26.18,9.8c-.16,0-.16.24,0,.25Z" transform="translate(-25.64 -31.41)"/><path d="M376.92,320a131.18,131.18,0,0,1,40.72-35.11c.14-.08,0-.3-.12-.22a130.94,130.94,0,0,0-33.25,26.15c-2.66,2.9-5.18,5.93-7.56,9.05-.1.13.11.26.21.13Z" transform="translate(-25.64 -31.41)"/><path d="M464.59,243.56l21.93-14.11c.14-.08,0-.3-.12-.21l-21.93,14.1c-.14.09,0,.31.12.22Z" transform="translate(-25.64 -31.41)"/><path d="M379.65,321c9.78-10.44,19.84-20.62,29.63-31.06a.12.12,0,0,0-.18-.17c-9.79,10.43-19.84,20.61-29.63,31.05-.11.12.07.29.18.18Z" transform="translate(-25.64 -31.41)"/><path class="cls-8" d="M395,187.33A46.41,46.41,0,0,1,440.67,155" transform="translate(-25.64 -31.41)"/><path class="cls-8" d="M397.67,191.67a46.88,46.88,0,0,1,17.66-24c11.91-8.32,21.37-12.79,25.34-12.67" transform="translate(-25.64 -31.41)"/><path class="cls-8" d="M299.33,147.67s-1-8.67,8-13.34,23.5-16.5,23.5-16.5" transform="translate(-25.64 -31.41)"/><path class="cls-8" d="M299.33,142.17s-6-.5-2.16-6,33.66-22.5,33.66-22.5" transform="translate(-25.64 -31.41)"/><path class="cls-8" d="M325,295l120.75-78S331.5,295,331.5,297.25" transform="translate(-25.64 -31.41)"/><path class="cls-8" d="M348.58,255.75c3.72,3.5,56.39-19.48,68.92-28.69S445,203.75,445,203.75s-85.5,49.92-91.5,49.67" transform="translate(-25.64 -31.41)"/></g><g id="hose"><path class="cls-11" d="M264.5,282.25s-17.25,56.5-9.25,114.25c2.05,14.78,2.05,29.43,4.75,42.75,7.86,38.7,20.76,70.37,26.92,67.25a56.89,56.89,0,0,0,7.83-4.92c3.54-2.7,6.77-5.92,8.25-6.58a45.46,45.46,0,0,1,9.42-3.25c6.58-1.29,13.92-1.71,15.33-3.75.33-.48.11-1.57.83-2.17s2.44-1.44,3.59-2.16c4.78-3,10.71-6.33,9.33-8.42-2-3-38.83-51.92-36.83-66.92S315.33,356,315,349s3-29-1.33-37-12.17-24.17-10.79-27,2-5,1.45-5.21-10,5.42-17.62,5.13S265,283.67,264.5,282.25Z" transform="translate(-25.64 -31.41)"/><path class="cls-8" d="M331.5,484.5s-32.95-51.22-34-59a180.29,180.29,0,0,0-4.29-21.68,62.84,62.84,0,0,1-2.47-15.28l-1.49-45.29,1.76-.64a15.14,15.14,0,0,0,6.65-4.75l1.09-1.36" transform="translate(-25.64 -31.41)"/><path class="cls-8" d="M253.83,383.67l4.86,17a37.56,37.56,0,0,0,3.13,7.63l6.47,11.84a34.51,34.51,0,0,0,3.15,4.77l9.39,11.91L291.33,450" transform="translate(-25.64 -31.41)"/><path class="cls-8" d="M255.67,325l1.41,16a47.11,47.11,0,0,0,1.8,9.41l.88,2.95a31.62,31.62,0,0,0,1.38,3.78L268,372.77a46.8,46.8,0,0,0,3.1,5.91L280,393.17" transform="translate(-25.64 -31.41)"/></g><g id="shirt"><path class="cls-12" d="M247.67,238.17c.66,3.33,5.5,15,5.5,15l6,12.33,6,11-.5,4.83,5.83,2.84,11.67.33,11.16-.5,11-4.21,10.4-23.16a13.76,13.76,0,0,0,.72-2l3.45-12.43a42.57,42.57,0,0,0,1.37-15.36l-.73-7.72a22.11,22.11,0,0,0-2.12-7.56l-3.27-6.7a20.71,20.71,0,0,0-3.86-5.46l-4.22-4.29a30.39,30.39,0,0,0-9.38-6.47l-10.19-4.49-12.17-5.5-4.48,3.92a15.62,15.62,0,0,1-8.14,3.72l-7.38,1L248,190a15.63,15.63,0,0,0-5.72,4.09l-8.63,9.76a22.44,22.44,0,0,0-2.86,4l-5.41,9.77c-.14.25-.28.51-.4.78l-5.15,10.93c-3.74,6.78-7.73,18.15-8.66,25.84l-.84,8.33c-.31,2.62,2.8,7.13,5.34,7.83l2.5.67c2.62.73,3.88-.75,6.59-.92l7.6-.48a18,18,0,0,0,8-2.46l15.78-9.31Z" transform="translate(-25.64 -31.41)"/><path class="cls-8" d="M254.44,187.5s-.5.44,1.94,1.88a30.9,30.9,0,0,0,6.86,2.43,5.65,5.65,0,0,0,1,.17l1.69.14a6.2,6.2,0,0,0,3-.5l5.36-2.32a21.68,21.68,0,0,0,3.51-2.42l1.5-1.44,3.13-3.06" transform="translate(-25.64 -31.41)"/><path class="cls-8" d="M310.67,250.08l-1.1,1.06a13.76,13.76,0,0,0-1.82,2.8l-.94,2.56a1.37,1.37,0,0,0-.08.35l-.42,3a7.73,7.73,0,0,1-.16.81l-1.38,5.82a15.51,15.51,0,0,1-2,4.72l-1.47,2.29a12.53,12.53,0,0,0-1.47,3.25l-1.58,5.44" transform="translate(-25.64 -31.41)"/><path class="cls-8" d="M293.58,255.25l-.07,14.18a13,13,0,0,1-.33,2.77l-.93,4-.88,4.23a9.91,9.91,0,0,1-.31,1.19l-.77,2.37" transform="translate(-25.64 -31.41)"/><path class="cls-8" d="M264.5,253.75l2.24,9.4c.14.6,1,3.2,1.53,4.5a7.22,7.22,0,0,0,.56,1.11l2,3.25a8.29,8.29,0,0,0,.77,1.24l2.64,4a5.41,5.41,0,0,0,.46.61l2.76,3.35a4.16,4.16,0,0,0,.42.42l3,2.72" transform="translate(-25.64 -31.41)"/><path class="cls-8" d="M278.17,264.92c.07.21,1.8,5.88,2.34,7.64a9.74,9.74,0,0,0,.37,1l1.77,4.06a14.58,14.58,0,0,1,1.17,4.9l.1,1.62" transform="translate(-25.64 -31.41)"/><path class="cls-8" d="M255.5,257.25s-9.08-2-10.92-2.67" transform="translate(-25.64 -31.41)"/><path class="cls-8" d="M250,245.67l-4.21,6.63a20.25,20.25,0,0,1-6.34,6.29l-8.95,5.58" transform="translate(-25.64 -31.41)"/></g><g id="hand"><path class="cls-13" d="M219.31,230.13s.27,2,.49,3.47a7.68,7.68,0,0,0,1.22,3.19L222.5,239a.92.92,0,0,0,.16.27l3.56,4.89a1.49,1.49,0,0,0,.54.46l1.71.86a1.51,1.51,0,0,0,2.17-1.21h0a1.53,1.53,0,0,0-.22-.93l-2.13-3.44-.09-.13-2.63-3.44a1.42,1.42,0,0,1-.27-.55l-4.09-8.59.17-.48,2.75,4.75,2.15,2.91a1.85,1.85,0,0,0,.36.38l3.46,2.94.19.15,2.46,1.64a.75.75,0,0,0,1.12-.38l0-.16a1.94,1.94,0,0,0-.13-1.53l-1.66-3.08-4.74-7.42,0,0-3.31-6.42Z" transform="translate(-25.64 -31.41)"/><path class="cls-13" d="M219.23,230.56l3.69,11.07a5,5,0,0,0,.83,1.45c.11.14.53.73.63.88s.75,1,.75,1a7.66,7.66,0,0,1,.62,1.25l.37.85a3.3,3.3,0,0,1,0,2.47l-.32.78a1.14,1.14,0,0,1-1.6.58l-.83-.44a4,4,0,0,1-1.16-1l-1.37-1.66a4.3,4.3,0,0,1-.52-.81l-1.54-3.19-1.91-5,.29-4Z" transform="translate(-25.64 -31.41)"/><path class="cls-13" d="M217.06,234.94l.61,8.77.11,1a3.77,3.77,0,0,0,.24,1l.73,1.85.46,1.28a7.76,7.76,0,0,1,.46,2.61v3.16a2.12,2.12,0,0,1-1.09,1.85l-.12.06-1.48-2.4a6.74,6.74,0,0,1-.68-1.53l-1.45-4.92a6.47,6.47,0,0,1-.24-1.24l-.57-3.57Z" transform="translate(-25.64 -31.41)"/></g><g id="rechter_fuss" data-name="rechter fuss"><path class="cls-13" d="M307.75,493.44l-1.2,3.29a21,21,0,0,0-1.15,9.44l.1.85a23.34,23.34,0,0,0,1.34,5.66l1.94,5.18c.35.93.35,2.21-.47,2.77l-2.08,2a4.57,4.57,0,0,1-1.54,1l-2.94,1.11-7.82-8.23a5.76,5.76,0,0,1-1.48-6.13L296.13,500l6.87-5Z" transform="translate(-25.64 -31.41)"/></g><g id="linker_fuss" data-name="linker fuss"><path class="cls-13" d="M299.75,497.5l-1,12.75,2.86,12.48a4,4,0,0,1-1.76,4.3s-6.42,3.63-7.77,3.65l-12.27-.42a6.11,6.11,0,0,1-.86-.09l-11.42-2.25a2.35,2.35,0,0,1-1.37-.84l-.69-.87a2.1,2.1,0,0,1-.19-2.29l.16-.3a2.19,2.19,0,0,1,1.09-1L283.25,516l1.5-9.5,5-1.77a4.16,4.16,0,0,0,1.22-.67Z" transform="translate(-25.64 -31.41)"/></g><g id="kopf"><path class="cls-13" d="M255.13,186.75l-5.53-5.92a14.29,14.29,0,0,0-3.35-2.65l-8-4.55-5.75-1.54a9.55,9.55,0,0,0-2.55-.34h-5a3.72,3.72,0,0,1-3-1.18l-.25-.27a6.1,6.1,0,0,1-1.61-3.93l-.88-4a13.75,13.75,0,0,1-.33-2.71l-.59-20,2.75-12.5,9-6.55a10.73,10.73,0,0,1,8.27-1.85l12.72,2.4L263.18,138a24.09,24.09,0,0,1,4.5,16L267,162.5v8.25l7.31,7.75L273,180a10.56,10.56,0,0,1-2.48,2.51,6,6,0,0,0-2.12,1.3l-2.82,1.89a30.43,30.43,0,0,1-7.43.9Z" transform="translate(-25.64 -31.41)"/></g><g id="haar"><path class="cls-14" d="M219.25,127.17l-3,4.87a18.69,18.69,0,0,0-2.7,8.24l-.26,3.09a10.23,10.23,0,0,0,2.76,7.87l4.18,4.43a6.23,6.23,0,0,0,.78.76l2.73,3a10.4,10.4,0,0,0,2.9,2.2c1.48.75,3.4,1.7,3.61,1.83l1.94,1.06a12.81,12.81,0,0,0,4.77,1.59l7,.9a14.19,14.19,0,0,1,5.32,1.81l.2.12a10.16,10.16,0,0,0,3.74,1.29l5.13.72a15.18,15.18,0,0,0,3.75.05l5.39-.59a10.31,10.31,0,0,0,4.82-1.83l7.33-5.21,3.29-2.39a3,3,0,0,1,.82-.42l3.39-1.1L282,154.75l.5-1a5.2,5.2,0,0,1,3.8-2.86l1.7-.3,1.83.34-1.08-1.67,1.75.25-1-.86a7.38,7.38,0,0,0-2.59-1.42l-1.27-.4a8.26,8.26,0,0,1-2-.89l-1.08-.68,4.42-1.08-.33-1.84,1.16-.58.09-1.25,1.25-.83-2.45-.36a5.12,5.12,0,0,0-.78-.06l-6.94-.07a12.69,12.69,0,0,1-2.95-.38l-1.55-.38,5.42-1.34-1.42-1.33,4.92-.08-.17-1.09,2.67-.16-1.72-1.22a14,14,0,0,0-5-2.23L273,129.6a8.49,8.49,0,0,1-2.25-.85l-2.87-1.58a7.62,7.62,0,0,0-2.27-.82l-6.05-1.18-5.66-2.42.84-.13a17.54,17.54,0,0,1,9,1h0a8,8,0,0,0,2.32.54l3,.24,2.71.09a8.32,8.32,0,0,1,4.09,1.23l2,1.26,3.08,1.08L277,125l-.74-.67a9.07,9.07,0,0,0-5.11-2.34l-2.82-.32-1.82-.53a8.21,8.21,0,0,1-2.47-1.2l-1.35-1a8.93,8.93,0,0,0-3.74-1.54l-3.35-.55a8.68,8.68,0,0,1-1.5-.38l-3.4-1.23a10.51,10.51,0,0,0-2.47-.55l-3.18-.29a5,5,0,0,0-3.3.85h0A8.25,8.25,0,0,1,237,116.7l-2,.16a15.85,15.85,0,0,0-5.15,1.33l-1.1.5a13.74,13.74,0,0,0-5.21,4.07l-3.65,4Z" transform="translate(-25.64 -31.41)"/></g><g id="haar_detaiils"><path class="cls-15" d="M233.58,129l.18,4a14,14,0,0,0,2.15,6.91l2.17,3.46a8.48,8.48,0,0,0,1.86,2.1l7.39,6,7.16,4.68a10.66,10.66,0,0,0,2.14,1.06l6.4,2.27a8.87,8.87,0,0,0,2.34.49l4.94.34a11.23,11.23,0,0,0,3.19-.59l3.67-1.5L282,155.5" transform="translate(-25.64 -31.41)"/><path class="cls-15" d="M244.5,137l1.39,3.19a11.19,11.19,0,0,0,4.25,5l3.53,2.25,7.16,3.91,4.64,2.45a9.84,9.84,0,0,0,2.88,1l4.2.76a10.43,10.43,0,0,0,1.58.15l4.37.07,3.5-.25" transform="translate(-25.64 -31.41)"/><path class="cls-15" d="M259.5,138.5l2.61,3.5a4.8,4.8,0,0,0,2.78,1.81l3.6.82a5.11,5.11,0,0,0,1,.14l7.15.23h4.83" transform="translate(-25.64 -31.41)"/><path class="cls-15" d="M261.83,145.75l4.44,2a10.66,10.66,0,0,0,3.8.93l2.25.13a8.91,8.91,0,0,0,3.58-.56l3.35-1.26,2.5-1.58" transform="translate(-25.64 -31.41)"/><path class="cls-15" d="M248.25,125.17l5.08,3.25,5.42,3.75,3.42,2.53a12.11,12.11,0,0,0,3.06,1.66l3.27,1.22,4.92.84" transform="translate(-25.64 -31.41)"/><path class="cls-15" d="M249.58,123.08l11.5,6,6.17,3.5,2,1.11a13.79,13.79,0,0,0,8.12,1.73h0" transform="translate(-25.64 -31.41)"/><path class="cls-15" d="M224.56,130.08l-1.2,4.2A14.52,14.52,0,0,0,223,141a6.75,6.75,0,0,0,.68,2,6.32,6.32,0,0,0,.33.56l4.76,4.49a13,13,0,0,0,2.13,1.64l4.22,2.59a14,14,0,0,0,5.7,2l4.85.56" transform="translate(-25.64 -31.41)"/><path class="cls-15" d="M215.33,133.75l.78,7a16.14,16.14,0,0,0,1.54,5.34l.71,1.46a9.71,9.71,0,0,0,2.72,3.38h0l2.17,1.71,5.42,3,3.15,1.77a6.66,6.66,0,0,0,4.63.72l6.38-1.33" transform="translate(-25.64 -31.41)"/><path class="cls-15" d="M221.58,151.92l1.7,2.94a6.76,6.76,0,0,0,3.24,2.85l4,1.69a9,9,0,0,0,3,.68l5.43.28a5.88,5.88,0,0,0,2-.21l2.62-.73" transform="translate(-25.64 -31.41)"/><path class="cls-15" d="M241.75,162.42c.24.12,6.06,1.57,9.2,2.34a17.32,17.32,0,0,0,4,.52l2.53,0a9.93,9.93,0,0,0,3.46-.57l1.74-.6a7,7,0,0,0,2.73-1.78l1.52-1.61" transform="translate(-25.64 -31.41)"/><path class="cls-15" d="M244.92,165.17,255.25,168a11.28,11.28,0,0,0,4.73.28l6-.91a14.79,14.79,0,0,0,5.67-2.13l4.89-3.09,4-3a9.29,9.29,0,0,1,.85-.53l2.89-1.51" transform="translate(-25.64 -31.41)"/><path class="cls-15" d="M264.75,137.92l.47.64a9,9,0,0,0,5.4,3.48l4.09.86a4.72,4.72,0,0,0,.92.11l4.87.13a7.31,7.31,0,0,0,1.81-.17l4.44-1" transform="translate(-25.64 -31.41)"/></g></svg>