<svg xmlns="http://www.w3.org/2000/svg" viewBox="0 0 841.89 595.28"><defs><style>.cls-1{fill:#e6e6e6;}.cls-2{fill:#ffd369;}.cls-3,.cls-7,.cls-8{fill:none;}.cls-3,.cls-4,.cls-6,.cls-8{stroke:#000;}.cls-3,.cls-4,.cls-6,.cls-7,.cls-8,.cls-9{stroke-miterlimit:10;}.cls-4{fill:#70af85;}.cls-4,.cls-8{stroke-width:0.5px;}.cls-5{fill:#65c5ef;}.cls-6{fill:#c05555;}.cls-7{stroke:#b3b3b3;}.cls-9{fill:#5e8e91;stroke:#e6e6e6;}</style></defs><title>Artboard 1</title><g id="clouds"><path class="cls-1" d="M313.71,418.12s-23.91.49-34.64,5.37-17.57,6.76-15.32,7.64,7,2.5,7,2.5-12.62,4.37-8.62,6.62,11.37,3.13,12.87,3.88,15.75,4.12,22.63,3.5,11.87-.13,13.37,1.5,2.5,7.75,7,10.12,6.63.38,8.5,2,7.63,1.38,9.88,2.38,5-.25,5.62,0,1.5-1.75,5.13-1.13,15.5-.62,18.62.75,16.25.13,17.63-1.12,10.87-4.75,13.25-3.38,6-2.37,11.25.13,13.87,5.37,17.87,4.62,15,3.13,25.38-2.87,21.62-14.25,21.62-14.25,2.25,1.75,10.88,2a46.21,46.21,0,0,1,15.12,3s7.63,2.25,13,1.25,10.75-1.25,14.75,0,13.13-.25,13.13-.25,16.25.62,23.87-1,19.38-3.63,23.75-2.5,9.38-1.38,14.38-.63,9.62.63,12.37-1.75,5.75-5.42,5.75-5.42,2.38-4.45-3.62-4.2S590.75,433,586.25,435s-12.25.38-14.87,2-10.13,3.5-13.75,3.13-8.88-1.25-10,0-4.5-5.5-7.38-5.63-14.12-4.75-18.37-4.37-45.63-2-47.13-4.63-22.62-13.62-28.37-12-23.63,7-30,3.63-24.75-12.63-30-12.25-26.5.12-32.88,2.37-18.12,8-22.12,6.88S313.71,418.12,313.71,418.12Z"/><path class="cls-1" d="M683,239s-20.33.67-16.33,6.33S687.33,251,687.33,251s4.34-3,14.67,0,21.33,0,24.33,0,16.34,0,17.34,1.33,13.66,3.67,16.66,3,14,1,16.34,2.67,6.71,1.22,8.27,1,.72-5.87.72-5.87-1.94-5.44-1.75-8.07,13.06,0,13.06,0,11.34,3.44,15.66,3.22,8.21.78,10.37.38,4.19-.91,4.22-2.28S815.84,241,815.84,241s-5.09-2-14.09-4.75S784,230.5,776,232.5s-15.25,2.75-21.25.75-19.25-2.8-26.5-1.4-11-1.1-15.25-1.85-6.5-2-13.25-1.25-9.25.54-12-.23-7.75,2.23-10.5,2.48-2.29,4-2.29,4,4.42,2.66,5.42,2.49S683,239,683,239Z"/></g><g id="sun"><path class="cls-2" d="M128.5,110.31l-2.77,3.38c-2.23-3.88-21.29-14-57.54-11.57C79.21,92.27,123.06,93.39,128.5,110.31Z"/><path class="cls-2" d="M94.16,147.81l-1.67,4.71C89,148.61,66.71,142.1,31.32,155,39.13,140.42,83.25,129.58,94.16,147.81Z"/><path class="cls-2" d="M102.4,190l1.6,5.41c-5.74-1.58-30.27,5.64-53.88,38.83C47.59,215.92,80.46,179.41,102.4,190Z"/><path class="cls-2" d="M155.59,226.35,142,224.63c2.43,2.66,1.35,24.29-20.88,54.75C134.2,273.93,165.21,237.17,155.59,226.35Z"/><path class="cls-2" d="M197,218.75,194.25,227s29.5,16.75,32,20.25,23.25,12.75,29,11.5,8.5-3.5,8.5-3.5-22.5-6.25-29.75-12-21.75-16-24-18.62S197,218.75,197,218.75Z"/><path class="cls-2" d="M235.5,179.38s-4.62.25-1,3.75a69.46,69.46,0,0,1,5.25,5.5s11.63,0,14.38,1.5,15.37,6.37,18.12,8.12,13.38,5.63,18.13,4.38,5.25-2.88,5.25-2.88-16.13-3.12-21.25-7.75-9-7-16.63-9.5a74,74,0,0,0-14.87-3.12Z"/><path class="cls-2" d="M241.13,135.63,250.5,145s15.88-8.12,26.25-4.69,26.13,7.19,29.88,5.69,14.5-2.25,14.5-2.25-20.5-3.25-27.13-6.5-17.62-5.75-25.37-6-16.75,0-20,1.75A32.37,32.37,0,0,1,241.13,135.63Z"/><path class="cls-2" d="M219.5,106.25l9.5,7.44s6.25-10.94,18.75-15.19,18-8,26.5-8,8.25-2,8.25-2-6.25-5.5-13.5-3-22.5,6.25-22.5,6.25l-8.69,5.13s-8.34,5.21-9.65,5.56-5.85,1.72-6.19,2.12A20.09,20.09,0,0,1,219.5,106.25Z"/></g><g id="sun_main"><ellipse class="cls-2" cx="170.33" cy="161.22" rx="66.33" ry="55.66"/><path class="cls-3" d="M176.87,115.06c-30.39-3.06-56.91,13.5-59.28,37s20.3,45,50.7,48.11"/><path class="cls-3" d="M175.92,124.52c-23.64-2.38-44.27,10.5-46.11,28.8s15.79,35,39.43,37.42"/><path class="cls-3" d="M175,134c-16.89-1.7-31.62,7.5-32.94,20.57s11.28,25,28.17,26.73"/><path class="cls-3" d="M174,143.44c-10.13-1-19,4.5-19.76,12.34s6.77,15,16.9,16"/><path class="cls-3" d="M173.06,152.9c-3.38-.34-6.32,1.5-6.59,4.11s2.26,5,5.64,5.35"/><path class="cls-3" d="M175.69,124.53c27,2.72,47.17,21.85,45.06,42.77s-25.67,35.63-52.69,32.91"/><path class="cls-3" d="M174.73,134c20.27,2,35.38,16.39,33.8,32.07S189.27,192.79,169,190.75"/><path class="cls-3" d="M173.78,143.45c13.51,1.36,23.59,10.92,22.53,21.38S183.47,182.65,170,181.29"/><path class="cls-3" d="M172.82,152.91c6.76.68,11.8,5.46,11.27,10.69s-6.42,8.91-13.17,8.23"/></g><g id="dragon"><path class="cls-4" d="M171,411.5s15.5,2.5,25.5-5,30-40.5,50-44,32-11,48-8,26.5-2,42-6,32.5-18.62,36.13-23.75,11.87-17.87,24.25-24.12,39.5-6.75,47.25-2.75,37.5,0,52.25-3.38,37.5-14.12,44.37-24.5,23.38-31.25,33.75-36.12,30.13-7.88,40-7.88,34.25,0,40-3.25,30-25.62,32.75-29.62,6.44-13.75,6.44-13.75a1.72,1.72,0,0,0-1-2.63,19.28,19.28,0,0,1-3.19-1.65s-6.81,11.73-13.15,14.23S657,200,648.83,200.5s-38,.17-44.83-1.67-22.5-2.5-24.83-3.5-9-2.16-12.84-1.5-10.16-.16-11.33-.33-10.83.83-14.83,3.17-11,4.66-14,7-13,13.66-19.67,17-14.67,10.66-19.5,12.5-13.17,7-16.17,8.16-12.77,7.86-20.52,8.17-15.75,1.13-20.93.63-9.5-1.19-13.13-.69-8.37-1.81-12.56-1.69-2.94,1.88-7.63,1.56-2.37-1.31-6.68-1.31-8.25,2-11.13,2.31-5.19,1.75-11.5,3.63a56.83,56.83,0,0,0-14.37,6.44c-3.38,2.12-12.69,12-13.63,13.06s-5.5,7.69-7.19,8.75-8.68,9.56-10.93,10.56-10.94,6.06-12.5,7.63-5.55,7.61-9.19,7.12-14,4.88-17.25,6c-3.07,1.07-19.94,2.31-22.31,1.69s-13.75.12-18.38,1a145,145,0,0,0-16.56,4.25c-2.94,1.12-17.77,7.52-20.15,9-3.54,2.17-17,11.3-18.16,12.39-1.42,1.36-12.63,15-14.25,19.32S161,379.56,160.44,382.19s-4.81,15.69-3.31,19.06,2.62,5.94,6.37,7.81A28.06,28.06,0,0,0,171,411.5Z"/><path class="cls-5" d="M206,396.79s-2.94-3.25-8.44-11.87-14.87-5.25-22-5.38-13.62,4-15.62,4.38c0,0-3.79,13.52-3,15.83s1.75,6.5,4.31,8.13,8.56,4.31,13.44,4.43,11.69.19,15.81-2.06,11.71-8.92,13.63-11.19Z"/><path class="cls-3" d="M200.83,388.5s23.5-18.33,26-14.67"/><path class="cls-3" d="M197,383.5s35.25-46,28.75-63.37"/><path class="cls-6" d="M236.13,317.25s.05-.1.16-.28c1-1.7,5-7.73,6.63-13.39,1.75-6.25,4.25-6.87,4.83-9.66,1.14-5.44,8.82-9.94,10.38-9.79s8.37-4.5,9.75-2.75-.42,3,1.2,3.77,1.65,2.2,4.27,2.58,8.36-.36,8.07,1.44-4.61,7.16-5.67,9.08-7,6.13-7,8.17-2.92,4.2-2.83,5.54.37,3.21.37,3.21-14.88-.17-16.92,0-7.62.71-8.79,1S236.13,317.25,236.13,317.25Z"/><path class="cls-6" d="M342.67,266.67s-6-5.5-.17-12.34a186.26,186.26,0,0,1,14.83-14.83s13.5-7.33,14.67-8.5,4.67-5.17,8-4,.21,3.37,3.67,3.83,4.33-1,8.5,0,3.66,0,3.5,2.84-9.84,14.83-9.84,14.83-19.16,4.83-20.33,5.5-10.19,4.56-10.69,4.94-6.68,4.19-7.56,5.5a27.74,27.74,0,0,1-2.94,3.31Z"/><path class="cls-6" d="M493.67,225.67s-3.67-8-1.34-16.34,4.67-12,10-14.66,6.67-3.14,7.48-4.14,3.85-2.56,4.47-2.44,3.35-1.81,5.85-1.87,2.37,1.22,3.5,1.84.43,2.22,2.75,2.32,1.87.12,2.46,2-2.53,11.12-2.53,11.12l-5.87,5.88c-.69.68-4.1,3.93-4.53,4.34s-5.35,4.34-5.35,4.34l-7.62,4.69-7.78,5.34Z"/><path class="cls-6" d="M595.88,195.88s7.25-8.75,10.5-8.63a17.53,17.53,0,0,0,9.37-2.25c2.88-1.62,9.75-2.87,13-2.25a63.66,63.66,0,0,0,9.88,1.5c3.37.13,2.87-2.37,5.75-2s2.12,6.13,2,7.63,1.12,3.5-.25,5.5-6.63,5.37-6.63,5.37l-16.37-.5-8.41-.12s-8.69-.69-9.22-1-10.25-1.75-10.25-1.75Z"/><path class="cls-6" d="M689.48,175.1s-1.85-8.72,7-19.6,20.88-18.87,20.88-18.87S716.5,154,711.75,161s-8.37,12.38-11.75,14.13-5.88,3.08-5.88,3.08Z"/></g><g id="lines"><path class="cls-7" d="M302.5,278.67s15.83-12,18.67-16.67,13.16-28.33,29.5-41.33,48.66-19.34,67.33-18.5S445.67,174,457.67,168.5s37.5-7.5,47-12S549,122.33,549,122.33"/><path class="cls-7" d="M280.75,369.25s6-7.5,18-7S320,366.75,334,365s21-7.75,32.5-9.5,15.75-20.5,24.75-25.75,37-23.25,51.75-19.5,31,11.75,56.25,11,39.25-28.5,50.75-34.5,12.75-10.25,26.75-11S672,273.5,672,273.5"/></g><g id="dragon_details"><path class="cls-3" d="M351.62,291.46s7.11-5,7.88-2.46-3.12,8.72-3.12,8.72"/><path class="cls-3" d="M347.24,284.83s7.12-5,7.89-2.45S352,291.1,352,291.1"/><path class="cls-3" d="M342.49,279s7.12-5,7.89-2.46-3.13,8.72-3.13,8.72"/><path class="cls-3" d="M338.63,274s4.25-3.54,4.91-1.47-1.45,6.76-1.45,6.76"/><path class="cls-3" d="M363.66,286.53s6.95-5.47,7.9-2.4S369,294.28,369,294.28"/><path class="cls-3" d="M358.74,278.36s6.94-5.47,7.9-2.39S364,286.12,364,286.12"/><path class="cls-3" d="M353.48,271.06s6.94-5.47,7.9-2.39-2.61,10.15-2.61,10.15"/><path class="cls-3" d="M349.19,264.88s4.11-3.92,4.92-1.41-1,7.93-1,7.93"/><path class="cls-3" d="M374.29,275.9s8.14-5.6,9-2.81-3.65,9.66-3.65,9.66"/><path class="cls-3" d="M369.41,268.66s8.14-5.61,9-2.82-3.66,9.66-3.66,9.66"/><path class="cls-3" d="M364.1,262.24s8.14-5.61,9-2.81-3.66,9.65-3.66,9.65"/><path class="cls-3" d="M359.78,256.8s4.87-4,5.59-1.68-1.74,7.47-1.74,7.47"/><path class="cls-3" d="M391.68,272.84s6.95-5.48,7.91-2.4S397,280.62,397,280.62"/><path class="cls-3" d="M386.75,264.65s6.94-5.47,7.9-2.39-2.6,10.17-2.6,10.17"/><path class="cls-3" d="M381.48,257.33s6.95-5.47,7.91-2.39-2.61,10.17-2.61,10.17"/><path class="cls-3" d="M377.19,251.13s4.11-3.92,4.92-1.4-1,7.94-1,7.94"/><path class="cls-3" d="M407.47,271.65s5.33-4.68,6.23-1.83-1.64,9.15-1.64,9.15"/><path class="cls-3" d="M403.15,264s5.33-4.68,6.23-1.83-1.64,9.15-1.64,9.15"/><path class="cls-3" d="M398.6,257.07s5.33-4.68,6.23-1.83-1.64,9.15-1.64,9.15"/><path class="cls-3" d="M394.88,251.23s3.12-3.39,3.88-1.06-.47,7.19-.47,7.19"/><path class="cls-3" d="M422.13,271.32s5.33-4.68,6.24-1.83-1.64,9.15-1.64,9.15"/><path class="cls-3" d="M417.81,263.64s5.33-4.68,6.24-1.83-1.64,9.15-1.64,9.15"/><path class="cls-3" d="M413.26,256.74s5.33-4.68,6.24-1.83-1.64,9.15-1.64,9.15"/><path class="cls-3" d="M409.54,250.9s3.13-3.39,3.89-1.06S413,257,413,257"/><path class="cls-3" d="M438.8,271.65s5.33-4.68,6.24-1.83S443.4,279,443.4,279"/><path class="cls-3" d="M434.48,264s5.33-4.68,6.24-1.83-1.64,9.15-1.64,9.15"/><path class="cls-3" d="M429.93,257.07s5.33-4.68,6.24-1.83-1.64,9.15-1.64,9.15"/><path class="cls-3" d="M426.21,251.23s3.12-3.39,3.89-1.06-.48,7.19-.48,7.19"/><path class="cls-3" d="M473.52,275.26s5-5.5,6.27-1.72-.74,11.68-.74,11.68"/><path class="cls-3" d="M468.22,264.86s5-5.49,6.28-1.71-.74,11.67-.74,11.67"/><path class="cls-3" d="M462.78,255.45s5-5.49,6.28-1.71-.74,11.67-.74,11.67"/><path class="cls-3" d="M458.31,247.51s2.88-4.07,3.92-1,.26,9.26.26,9.26"/><path class="cls-3" d="M484.93,258.15s3.59-6,5.21-3.89,1,8.48,1,8.48"/><path class="cls-3" d="M478.84,253.16s3.58-6,5.21-3.89,1,8.48,1,8.48"/><path class="cls-3" d="M472.76,248.91s3.58-6,5.2-3.89,1,8.48,1,8.48"/><path class="cls-3" d="M467.73,245.28s1.92-4.08,3.26-2.36,1.57,6.36,1.57,6.36"/><path class="cls-3" d="M495.18,250.65s3.59-6,5.21-3.89,1,8.48,1,8.48"/><path class="cls-3" d="M489.09,245.66s3.58-6,5.21-3.89,1,8.48,1,8.48"/><path class="cls-3" d="M483,241.41s3.58-6,5.2-3.89,1,8.48,1,8.48"/><path class="cls-3" d="M478,237.78s1.92-4.08,3.26-2.36,1.57,6.36,1.57,6.36"/><path class="cls-3" d="M510.5,248.29s3.28-6.37,5.25-3.84,2,9.61,2,9.61"/><path class="cls-3" d="M503.41,242.09s3.27-6.37,5.24-3.84,2,9.6,2,9.6"/><path class="cls-3" d="M496.39,236.72s3.28-6.37,5.25-3.84,2,9.61,2,9.61"/><path class="cls-3" d="M490.58,232.15s1.67-4.38,3.3-2.32,2.33,7.28,2.33,7.28"/><path class="cls-3" d="M525.9,241.44s5.31-8.34,7.4-5.59.88,11.37.88,11.37"/><path class="cls-3" d="M517.87,235.1s5.31-8.33,7.4-5.59.87,11.37.87,11.37"/><path class="cls-3" d="M509.79,229.78s5.31-8.34,7.4-5.59.87,11.36.87,11.36"/><path class="cls-3" d="M503.12,225.2s2.91-5.63,4.64-3.39,1.73,8.47,1.73,8.47"/><path class="cls-3" d="M537.4,233.94s5.31-8.34,7.4-5.59.88,11.37.88,11.37"/><path class="cls-3" d="M529.37,227.6s5.31-8.33,7.4-5.59.87,11.37.87,11.37"/><path class="cls-3" d="M521.29,222.28s5.31-8.34,7.4-5.59.87,11.36.87,11.36"/><path class="cls-3" d="M514.62,217.7s2.91-5.63,4.64-3.39,1.73,8.47,1.73,8.47"/><path class="cls-3" d="M547.87,222.8s4.9-8.06,7-5.28,1.24,11.29,1.24,11.29"/><path class="cls-3" d="M539.8,216.26s4.9-8.07,7-5.28,1.24,11.28,1.24,11.28"/><path class="cls-3" d="M531.73,210.71s4.9-8.07,7-5.28S540,216.71,540,216.71"/><path class="cls-3" d="M525.06,206s2.64-5.47,4.41-3.2,2,8.45,2,8.45"/><path class="cls-3" d="M231.69,326.81s7.94-2.18,7.81.32-5.56,6.75-5.56,6.75"/><path class="cls-3" d="M230.52,319.81s7.94-2.18,7.81.32-5.56,6.75-5.56,6.75"/><path class="cls-3" d="M245,324.49s7.94-2.49,7.81.36-5.56,7.69-5.56,7.69"/><path class="cls-3" d="M243.85,316.51s7.94-2.49,7.82.36-5.57,7.69-5.57,7.69"/><path class="cls-3" d="M258.05,325s8.25-2.83,8.12.41-5.79,8.73-5.79,8.73"/><path class="cls-3" d="M256.83,316s8.25-2.83,8.12.4-5.78,8.73-5.78,8.73"/><path class="cls-3" d="M271,328.06s7.94-2.18,7.81.32-5.56,6.75-5.56,6.75"/><path class="cls-3" d="M268.88,321.37s8.25-1.95,8.12.28-5.78,6-5.78,6"/><path class="cls-3" d="M267.67,315.12s8.25-1.95,8.12.28-5.78,6-5.78,6"/><path class="cls-3" d="M285.33,329s7.94-2.65,7.82.38-5.57,8.17-5.57,8.17"/><path class="cls-3" d="M283.21,320.85s8.25-2.36,8.12.33-5.78,7.29-5.78,7.29"/><path class="cls-3" d="M282,313.29s8.25-2.36,8.12.34-5.78,7.28-5.78,7.28"/><path class="cls-3" d="M295.26,316.89s9.56-2.51,9.4.36S298,325,298,325"/><path class="cls-3" d="M293.85,308.85s9.56-2.51,9.41.36-6.7,7.75-6.7,7.75"/><path class="cls-3" d="M314.31,315.89s7.17-4.18,7.68-1.47-3.7,8.51-3.7,8.51"/><path class="cls-3" d="M310.54,309.21s7.54-4,8-1.58-4.1,7.78-4.1,7.78"/><path class="cls-3" d="M307.78,302.81s7.53-4,8-1.58-4.1,7.78-4.1,7.78"/><path class="cls-3" d="M326.21,305.67s6.77-4.71,7.49-2.25-3,8.35-3,8.35"/><path class="cls-3" d="M322,299.89s7.14-4.58,7.77-2.39-3.45,7.72-3.45,7.72"/><path class="cls-3" d="M318.73,294.24s7.15-4.58,7.77-2.38-3.45,7.71-3.45,7.71"/><path class="cls-3" d="M342.12,300.34s6.43-5.14,7.3-2.8-2.45,8.4-2.45,8.4"/><path class="cls-3" d="M338.29,294.37s6.43-5.14,7.3-2.8-2.45,8.4-2.45,8.4"/><path class="cls-3" d="M332.86,290.74s5-6.54,6.42-4.48-.36,8.74-.36,8.74"/><path class="cls-3" d="M327.7,285.87s5-6.54,6.41-4.48-.35,8.74-.35,8.74"/><path class="cls-3" d="M553,214.81s6.68-5.33,7.59-2.9-2.55,8.71-2.55,8.71"/><path class="cls-3" d="M549,208.62s6.69-5.33,7.59-2.9-2.54,8.71-2.54,8.71"/><path class="cls-3" d="M543.36,204.86s5.2-6.78,6.67-4.64-.36,9.06-.36,9.06"/><path class="cls-3" d="M538,199.81s5.2-6.78,6.67-4.64-.37,9.06-.37,9.06"/><path class="cls-3" d="M564.35,211.91s8.27-2.3,8-.13-6,6.12-6,6.12"/><path class="cls-3" d="M563.43,205.92s8.26-2.3,8-.13-6,6.12-6,6.12"/><path class="cls-3" d="M560,201.37s7.56-3.86,8-1.76-4.2,7-4.2,7"/><path class="cls-3" d="M557.33,195.88s7.56-3.85,8-1.75-4.2,7-4.2,7"/><path class="cls-3" d="M453.85,271.43s4.87-5.15,6-2.4-.79,9.26-.79,9.26"/><path class="cls-3" d="M448.83,264.19s4.87-5.15,6-2.4-.78,9.26-.78,9.26"/><path class="cls-3" d="M443.65,257.74s4.88-5.15,6-2.4-.78,9.26-.78,9.26"/><path class="cls-3" d="M439.41,252.28s2.79-3.67,3.77-1.42.2,7.2.2,7.2"/><path class="cls-3" d="M580.56,210.14s7.17-4.18,7.68-1.47-3.7,8.51-3.7,8.51"/><path class="cls-3" d="M576.79,203.46s7.54-4,8-1.58-4.1,7.78-4.1,7.78"/><path class="cls-3" d="M574,197.06s7.53-4,8-1.58-4.1,7.78-4.1,7.78"/><path class="cls-3" d="M595.31,211.39s7.17-4.18,7.68-1.47-3.7,8.51-3.7,8.51"/><path class="cls-3" d="M591.54,204.71s7.54-4,8-1.58-4.1,7.78-4.1,7.78"/><path class="cls-3" d="M588.78,198.31s7.53-4,8-1.58-4.1,7.78-4.1,7.78"/><path class="cls-3" d="M611.81,214.89s7.17-4.18,7.68-1.47-3.7,8.51-3.7,8.51"/><path class="cls-3" d="M608,208.21s7.54-4,8-1.58-4.1,7.78-4.1,7.78"/><path class="cls-3" d="M605.28,201.81s7.53-4,8-1.58-4.1,7.78-4.1,7.78"/><path class="cls-3" d="M625.71,210.37s8.25-2.83,8.12.4-5.78,8.73-5.78,8.73"/><path class="cls-3" d="M624.5,201.31s8.25-2.83,8.12.41-5.78,8.73-5.78,8.73"/><path class="cls-3" d="M638.43,208.94s6.34-1.88,6.24.27-4.44,5.79-4.44,5.79"/><path class="cls-3" d="M637.5,202.93s6.33-1.88,6.23.27S639.3,209,639.3,209"/><path class="cls-3" d="M650.1,208.6s6.33-1.87,6.23.27-4.44,5.8-4.44,5.8"/><path class="cls-3" d="M649.17,202.59s6.33-1.87,6.23.27-4.44,5.8-4.44,5.8"/><path class="cls-3" d="M658.71,203.6s3.68-1.87,3.62.27-2.58,5.8-2.58,5.8"/><path class="cls-3" d="M658.17,197.59s3.68-1.87,3.62.27-2.58,5.8-2.58,5.8"/><path class="cls-3" d="M666.5,199.5s8-7.5,8-4.5-4,9.5-4,9.5"/><path class="cls-3" d="M679.66,191.57s2.18-4.78,2.18-2.87a35.31,35.31,0,0,1-1.09,6.05"/><path class="cls-8" d="M189.85,365.34c.92-4.41,4.37-7.41,7.72-6.72s5.31,4.83,4.39,9.24"/><path class="cls-8" d="M191.2,365.62c.71-3.43,3.4-5.77,6-5.22s4.13,3.75,3.42,7.18"/><path class="cls-8" d="M192.54,365.9c.51-2.45,2.43-4.12,4.29-3.73s2.95,2.68,2.44,5.13"/><path class="cls-8" d="M193.89,366.18c.3-1.47,1.46-2.47,2.57-2.24s1.77,1.61,1.47,3.08"/><path class="cls-8" d="M195.23,366.46c.11-.49.49-.82.86-.75a.83.83,0,0,1,.49,1"/><path class="cls-8" d="M191.21,365.59c-.82,3.92.93,7.59,3.91,8.21s6-2.05,6.86-6"/><path class="cls-8" d="M192.55,365.87c-.61,2.94.7,5.69,2.94,6.15s4.53-1.53,5.14-4.47"/><path class="cls-8" d="M193.9,366.15c-.41,2,.47,3.79,1.95,4.1s3-1,3.43-3"/><path class="cls-8" d="M195.25,366.43a1.63,1.63,0,0,0,1,2.05c.75.15,1.51-.51,1.72-1.49"/><path class="cls-8" d="M171.71,362.3c2.19,1.49,5.44.52,7.28-2.17s1.55-6.08-.63-7.58"/><path class="cls-8" d="M172.45,361.22c1.7,1.16,4.23.4,5.66-1.69s1.21-4.73-.49-5.89"/><path class="cls-8" d="M173.19,360.13c1.21.83,3,.29,4-1.2s.86-3.38-.35-4.21"/><path class="cls-8" d="M173.92,359.05a2,2,0,0,0,2.22-3.25"/><path class="cls-8" d="M174.66,358a.61.61,0,0,0,.81-.24.6.6,0,0,0-.07-.84"/></g><g id="water"><path class="cls-9" d="M188.75,314.75s14-25,19.5-21S188.75,314.75,188.75,314.75Z"/><path class="cls-9" d="M226.5,291.25s8.25-21.5,15.25-17.75S226.5,291.25,226.5,291.25Z"/><path class="cls-9" d="M243,397.67s24.67,10.33,20,16S243,397.67,243,397.67Z"/><path class="cls-9" d="M248,378s23.33,18.67,27,10S248,378,248,378Z"/></g></svg>