<svg xmlns="http://www.w3.org/2000/svg" viewBox="0 0 841.89 595.28"><defs><style>.cls-1{fill:#1b1464;}.cls-2{fill:#6d543d;}.cls-3{fill:#f7e352;}.cls-10,.cls-11,.cls-12,.cls-13,.cls-14,.cls-3,.cls-4,.cls-5,.cls-6,.cls-7,.cls-8,.cls-9{stroke:#000;stroke-miterlimit:10;}.cls-10,.cls-11,.cls-3,.cls-4,.cls-6{stroke-width:0.75px;}.cls-4{fill:#474777;}.cls-5,.cls-6{fill:#59886b;}.cls-12,.cls-14,.cls-5{stroke-width:0.5px;}.cls-7{fill:#fff;}.cls-8{fill:#3a2621;}.cls-11,.cls-9{fill:#f3eac2;}.cls-10,.cls-13,.cls-14{fill:none;}.cls-12{fill:#92817a;}</style></defs><title>dwarf</title><g id="Layer_7" data-name="Layer 7"><polygon class="cls-1" points="52.5 532 85 530 153.5 520 194.75 504.75 241.75 469.75 297.25 440.5 322.75 414.75 338 389.67 348 345.67 349.33 313.67 352.67 275 346.67 234.33 348.67 197.67 341.33 159 342 139 340.67 125 328.67 97 308.67 59.67 295.33 46.33 265.33 39 242.67 32.33 214 22.33 194 18.33 151.33 21.67 130 16.33 96 23 64.67 27 52.67 30.33 36 35.67 18.67 43 5.33 47.67 0.67 54.33 0 535 52.5 532"/></g><g id="tree"><path class="cls-2" d="M52.5,532s-14.4-22.44-18-55.5C29.33,429,21.18,362.59,20,319.5s-3.95-98.92-3.75-134.75c.12-21,2.92-35.37,3.25-35.37,6.44,0,19-1.26,34.94-4.07,3.71-.65,20.67,1,36.81.69,6.78-.14,16.64,1.69,24.75,4.75,9.18,3.46,16.75,8.21,26.88,8.25,22.55.09,45.39,4.93,66.87,3,9.59-.86,17.83-4,25.75-7,7.25-2.75,12.13-3.12,19.25-5,11.94-3.14,31.37-5.72,31.73-5.77S262.08,147.05,246,149c-15.13,1.84-28.87,10.13-52.5,8-9-.81-44.05-5.69-60.37-10.37-18.1-5.2-34-12.31-47.88-16.5-17.75-5.38-41.4-4.53-43.08-4.21C34.39,127.36,0,127.83,0,127.83V535Z"/><path class="cls-2" d="M28.75,127.72l-16,1.62c.83-1.14,30-31.56,62.25-30.16,20.34.88,33-8.46,43.14-15.82,4.65-3.38,9-6.57,14.12-8.67,7.1-2.94,6.43-3.38,13.05-6.57,5.55-2.68,9.31-10.82,14.69-13,7.91-3.22,16.37-3.75,21.31-5.82l15.1-6.61C192,46.22,175,54.8,166.46,55.74c-3.28.36-7.83,3.59-12.17,8.4-5.36,5.93-16.17,12-24.52,15.48-4.42,1.82-7.81,6.06-11.69,9-10.34,7.84-19,13.62-41.31,15.43C47.8,106.41,28.93,127.47,28.75,127.72Z"/><polygon class="cls-2" points="174.25 154.5 167.79 153.54 188.42 147.79 210.71 135.71 237.5 131.3 253.5 130.5 267.23 130.17 256.25 130.83 246.03 131.5 236.75 132.63 211 137.54 187.32 150.65 174.25 154.5"/><path class="cls-2" d="M147.44,79.33l-17.86.36L133.42,78l13.66.11,23.64-9.91,16.57-2-10,1.71-6,1.05a4.12,4.12,0,0,0-.78.23Z"/><path class="cls-2" d="M213.94,167l-8.56.63-23.32-5.9,6.16.38a5,5,0,0,1,.86.12l14.45,3.56a34.14,34.14,0,0,0,3.61.53l30.25-1.06,9.41-.59c.39,0,6.63-.58,7-.71l5.09-.39,3.1-.28-5.71.78c-.36.12-6,.81-6.37.85l-12.2,1.06Z"/></g><g id="shine"><polygon class="cls-3" points="109.81 148.74 74.5 182.5 90 194 69 209.5 82.5 216.5 61.5 246 77 251.5 61.5 280.5 75 277.67 67.67 309.83 82 304.67 77.67 345.5 90 335.83 93.17 361.33 102.83 349.83 110.6 370.17 118.5 359.33 129.75 380 135.67 372.33 149.67 386.33 157 372.83 167.5 384.17 170.83 372.5 191.67 378.17 188.33 364.17 205.5 366.67 207 332.5 222.5 333.67 215.17 308.17 231.33 305.5 214.5 283.17 235.33 277.5 209.83 251.83 225 248.33 208.67 236.83 226.67 219.83 205 215.33 214.33 201.83 194.5 199.17 175 162.67 109.81 148.74"/><path class="cls-2" d="M101.5,135.75,96.33,134,114,124.21c.1,0,24.61-11.85,24.71-11.88l27.77-7.82c.45,0,5.54-.65,6.06-.68l25.83-1.17-18.91,1.72-12.67,1.37c-.26,0-7.1,2-7.35,2.11l-15.4,4.64c-.69.34-5.93,2.55-6,2.58Z"/></g><g id="dwarf"><path class="cls-4" d="M124.38,142.75S112,157,113.75,166.25,116,199,116,199s13.5,6.75,20.5,7.25S160.25,202,160.25,202s-6.25-23.42-3.75-39.33S155,145.5,152,143.25s-6.79-2.37-13.75-2.5A55.43,55.43,0,0,0,124.38,142.75Z"/><path class="cls-5" d="M116,199s-7.3,3.38-4.62,21.38S125.5,251.5,125.5,251.5s8.5-12,16.5-9a38.4,38.4,0,0,1,13.44,9l4.81,4.25s.39-.87,2.88-2.56c2.93-2,4.12-5.94,4.12-5.94v-27.5s-4.56-4.75-4.75-9.87a36.43,36.43,0,0,0-1.12-8.25,59.22,59.22,0,0,1-20.69,4.66C129.21,206.66,116,199,116,199Z"/><path class="cls-6" d="M116,236.63s-13.62,16.12-9.87,42.87,16,43,16,43a31.51,31.51,0,0,0,9.41-1.42c3.88-1.45,8.92-3.08,8.92-3.08l-1.88-10.67a10.64,10.64,0,0,1-7.75-5.16c-2.75-4.75-4.08-4-4.33-9.29,0-1.09-4-9.72-4.37-18.88-.49-10.45,3.37-22.5,3.37-22.5Z"/><path class="cls-5" d="M169.5,228.13s10.75,23.62,13.25,33.37,3.5,35,0,43c-1.9,4.34-4.27,10.22-5,15a20.28,20.28,0,0,0,.25,7.38l-12,.37s-8.75-4.5-7.5-27,1.75-44.5,1.75-44.5,1.72-1.66,2.56-2.69c1.75-2.12,4.32-11.06,4.32-12.68s.31-16.37.31-16.37Z"/><path class="cls-7" d="M138.13,294.13l-1.22-12.63s-4.08-12.12,2.63-10.25,8.88,3.25,8.88,3.25"/><path class="cls-8" d="M183,195l-.29,15.4s-3,13.37-7.87,13.62-10.63-8-12.38-16.12a122.53,122.53,0,0,1-2.25-15.63S167,196,171.5,195.88,183,195,183,195Z"/><path class="cls-4" d="M157.73,158.87l1.52,32.38s7.57,5.34,13.62,4.51,17.42-1.67,17.42-1.67l-15.79-33Z"/><path class="cls-9" d="M165,327.25l-2.37,5.5s-6.25,10.63-4.25,11.25,7.87-10.12,7.87-10.12-1.37,10-1.62,10.75-3,8.25-1.63,8.62,6.63-14.87,6.63-14.87l-1,9.12s-2.38,6-.75,6.38,5.12-14,5.12-14l.75,7.53s-.06,7,1.34,7,3.57-17.94,3.57-17.94l.81,4.36s.31,3.51,1.69,3.58,0-13.38,0-13.38L178,326.88Z"/><path class="cls-9" d="M141.33,317l9.88,13.17s2.46,2.83,1.29,3.66-8.54-8.12-8.54-8.12l1.29,4.54s4.12,6.5,3.17,7.38-8.29-11.34-8.29-11.34l2.08,9.09s2.33,8.62.37,8.91-5-14.87-5-14.87l-.8,5.5s1.59,7.79,0,8-3.29-15.29-3.29-15.29l-.75,8.16S133,342,131.13,342,123,322,123,322Z"/><path class="cls-10" d="M141.38,140.88s3.12-.38,3.12,2.5-7.67,15-7.59,18.5-3,14.75,0,19"/><path class="cls-11" d="M126.38,287.25s-1.09,10.63,6.45,16.75,11.17,1.5,17.55,0,16.87-8.91,16.87-8.91a51.6,51.6,0,0,1-6-5.35c-1.91-2.22-4.28-4.19-4.89-6.13s-2.34-9.34-2.84-10.09-4.19-4.64-5.3-4.8-9.95-.6-11.1.48-4.46,9.06-4.66,9.88-.62,3.81-1.41,5"/><path class="cls-12" d="M124,256l-4.37,37.5s-.25,10.88,1.62,12,5.13-18,5.13-18,4-.5,5.12-4.25,2.5-13.5,7-14.37a31.29,31.29,0,0,1,9.92.12s4.58,2.75,5.58,5.75,1.88,9.38,3.25,10.63,5.13,6.5,8.5,8.87,8.63,6.75,8.63,6.75,2.62-8.25,2.5-14.37S176.5,277,174.25,274s-9.62-15.5-9.62-15.5l-4.38-2.5s-14.17-13.94-20.71-13.72S124.54,251.43,124,256Z"/><path class="cls-13" d="M128.52,291.58a10.32,10.32,0,0,1,3.48-1.27c1.4-.06,4.77.06,5.15.64"/><path class="cls-13" d="M144.83,290.94s3.84-2.31,6.42-2.27,6.33,2.46,6.33,2.46"/><path class="cls-2" d="M166.41,119.21l-8-.92c-.14,0-2.41,0-2.54,0l-10.13-.12-3,.12-12.29,1,3-1.65a45.91,45.91,0,0,1,4.73-.43l5.67-.21.62,0,6.79.17,1.21.12a29.6,29.6,0,0,1,4-.12c.63.13,3.18.33,3.21.33l4.29.86a13.87,13.87,0,0,1,1.88.06c.19,0,6.89-.89,7.08-.92l6.21-.75,1.58-.17,4-.33c.09,0,.71,0,.79,0l2.65.31,3.21.19-6.59,0h-.24l-9.47,1.09L167,119.2A1.82,1.82,0,0,1,166.41,119.21Z"/></g><g id="beard_details"><path class="cls-14" d="M137.15,242.31c-3.15,14.57-.63,26.23,2,26.19"/><path class="cls-14" d="M141.33,268.5c0-12.79,2.82-23.14,6.29-23.14"/><path class="cls-14" d="M145.34,268.54c0-10.39,3.7-18.81,8.28-18.81"/><path class="cls-14" d="M149.48,269.1a20.19,20.19,0,0,1,3-9.54c1.63-2.69,3.59-5.22,6.21-5.22"/><path class="cls-14" d="M155.11,278.79c0-7.59,5.63-14.2,13.14-14.2"/><path class="cls-14" d="M156.21,282.79c0-7,7.59-12.79,15.37-12.79"/><path class="cls-14" d="M158.38,286.35c0-7,7.1-12.6,15.87-12.6"/><path class="cls-14" d="M160.25,289.42c0-6.59,7.07-11.92,15.8-11.92"/><path class="cls-14" d="M166.31,293.67c0-4.05,4.9-7.32,10.94-7.32"/><path class="cls-14" d="M128.88,247.88c0,11.76,3.42,21.22,8.55,21.22"/><path class="cls-14" d="M123.07,263.74c.36,1.55,5.75,5.37,12,7.87"/><path class="cls-14" d="M121.91,273.67c1.28,1,4.17,1.86,12.38.08"/><path class="cls-14" d="M121.32,279c4.52,2.56,5.76,2.19,11.51,0"/><path class="cls-14" d="M120.83,283.24c0,2.22,2.56,4.29,5.55,4.29"/><path class="cls-14" d="M152.12,272.25c1.62-5.8,7.65-11.5,13.07-13.11"/></g></svg>