<svg xmlns="http://www.w3.org/2000/svg" viewBox="0 0 1082 552.93"><defs><style>.cls-1{fill:#5aa469;opacity:0.8;}.cls-1,.cls-10,.cls-11,.cls-13,.cls-14,.cls-15,.cls-18,.cls-19,.cls-2,.cls-3,.cls-4,.cls-5,.cls-6,.cls-7,.cls-8,.cls-9{stroke:#000;}.cls-1,.cls-10,.cls-11,.cls-13,.cls-14,.cls-15,.cls-16,.cls-18,.cls-19,.cls-2,.cls-3,.cls-4,.cls-5,.cls-6,.cls-7,.cls-8,.cls-9{stroke-miterlimit:10;}.cls-2{fill:#aa8976;}.cls-10,.cls-14,.cls-16,.cls-3{fill:none;}.cls-4,.cls-9{fill:#f3eac2;}.cls-5{fill:#bedcfa;}.cls-6{fill:#6a492b;}.cls-7{fill:#cc7351;}.cls-8{fill:#03506f;}.cls-10,.cls-15,.cls-18,.cls-19,.cls-9{stroke-width:0.5px;}.cls-11{fill:#f2d974;}.cls-12,.cls-18{fill:#cd5d7d;}.cls-14,.cls-16{stroke-width:0.25px;}.cls-15{fill:#c6b497;}.cls-16{stroke:#020202;}.cls-17{fill:#020202;}.cls-19{fill:#87cc92;}</style></defs><title>fee</title><g id="grass_plain"><path class="cls-1" d="M832.17,387.67c-.86-2.93-.54-5.58-2.17-8.17l-9.25-21.75L787.49,295a114.46,114.46,0,0,0-86.72-60.82L585,219l-92.75,7.75L279,284.33l-30.33,13L159,330l-54,24.82a193.45,193.45,0,0,0-74.53,60.44h0a27.56,27.56,0,0,0-3.2,27.32l10.47,24.34A100.72,100.72,0,0,0,108,525.33l94.52,21.43a53.36,53.36,0,0,0,11.12,1.3L480,551l125.85,1.66a250.11,250.11,0,0,0,51.8-4.75l73.75-14.64c23.18-4.61,42.1-15.52,57.35-33.77C820.08,462,838,407.5,832.17,387.67Zm-466-6.65a7.45,7.45,0,0,1-2.77,5.79,11.78,11.78,0,0,1,.48,4.19,3.94,3.94,0,0,1-.09.6,4.13,4.13,0,0,1-3.58,4.72c-5.9,1.09-11.78,0-17.71-.32l-1.11-.06c-6.64,2.36-14.21,2.73-18.08-1.19l-2.93-.25c-5.82-.56-6.34-9-1.47-9.94,0-.16.05-.31.07-.47a14.85,14.85,0,0,1-4.71-12.19,20,20,0,0,1,1.48-6.57,7.64,7.64,0,0,1-1.1-2.17c-1.39-4.39,1.72-10.51,6.3-11.69a6.46,6.46,0,0,1,6.49,1.78h0c6-2.92,13.09-3.57,19.27-.89a5.23,5.23,0,0,1,.78.42c3-.77,6,1.88,6,4.9v1c.29.27.58.55.86.86,5.44-.05,10.4,1.84,13.71,7C372,372.55,370.16,377.58,366.12,381Z" transform="translate(-25.03 0.25)"/></g><g id="tree"><path class="cls-2" d="M624,.5s85,12.15,122,104.75a421.92,421.92,0,0,1,22.5,77c20.48,109.86,6,262,6,262l17.16,3.25c.89.17,1.79.29,2.7.38l10.19.93a28.24,28.24,0,0,0,14.27-2.4l3.68-1.66L832.5.25Z" transform="translate(-25.03 0.25)"/><path class="cls-3" d="M786.67,212.33s-5.34,21.34,11.33,9.34,26-63.34,15.33-72.67-30-22.67-30,2.67S778,183,788,199.67s24-8,22-24-2-21.34-10-20.67-6.67,26-6.67,26" transform="translate(-25.03 0.25)"/><path class="cls-3" d="M707,21s85,73.5,83,105" transform="translate(-25.03 0.25)"/><path class="cls-3" d="M682.5,13S771,74,777,126" transform="translate(-25.03 0.25)"/><path class="cls-3" d="M821,218.5s-26.5,153-2.5,200" transform="translate(-25.03 0.25)"/><path class="cls-3" d="M798.5,232S788,309.5,800,363.5" transform="translate(-25.03 0.25)"/><path class="cls-3" d="M767.5,155s23.5,94,23,109.5S796,413,796,413" transform="translate(-25.03 0.25)"/></g><g id="fee"><path class="cls-4" d="M705,341l22,9s2.33-2.67,5.67,1,4,4.67,9,4.33A20.13,20.13,0,0,0,750,353s-3.67-7.33-6.67-8-9-8.33-9-8.33a9.36,9.36,0,0,0-3.56-2.57,14,14,0,0,0-6.44-1.1c-7,.33-10.33-1-10.33-1l-9.33-5L696,337.33Z" transform="translate(-25.03 0.25)"/><path class="cls-4" d="M723.88,320.13a239.07,239.07,0,0,1,23.62,13.25c7.39,4.9,12.09,11.05,13.25,9.37,2.75-4-3.25-10.37-4.75-16.25s-2.87-11.12-2.87-11.12,1.62-2.38-4-3.5-9.13-3.25-12.63-.63A12.79,12.79,0,0,1,730,314l-7-5.37-3.12,8.25Z" transform="translate(-25.03 0.25)"/><path class="cls-5" d="M548,185.67s-45.33-40-49-68.34S493,73,493,73s27,60.75,39.5,70.25S568,168.5,568,168.5s-4,.25-9.75,5.5c-1.11,1-3,1.15-3.75,2.08C552.08,179.17,548,185.67,548,185.67Z" transform="translate(-25.03 0.25)"/><path class="cls-5" d="M614,141l81.67-62.33S684,117.33,675.33,129.33s-26,29.34-26,29.34l-36.77,39.58-12.89-42.58Z" transform="translate(-25.03 0.25)"/><polygon class="cls-5" points="525.47 203.25 507.97 271.5 550.22 248.25 545.22 198.5 533.3 182.17 525.47 203.25"/><polygon class="cls-5" points="594.47 180 657.97 231.25 610.97 257.5 536.64 189.58 594.47 180"/><path class="cls-6" d="M669,199.83a5.82,5.82,0,0,1-7.5.67c-4.17-2.83-5.33-5-6.33-9.67a15.71,15.71,0,0,0-4-7.5s-9.5-9.5-13.67-10-10.17-.66-13-3.5,1.67-15.66-1-18.83-11-7.33-14.33-8.17-5.34,1-5.84-3.16-2-26.67-6-30.34-10.5-12-18.33-12.66-17.17,1-20.67,4.66-9.66,9.84-11.66,14.67-8,12-5.84,18.83,4.67,16,7.5,18.84,14.34,10.5,14.5,11.33,48.34,29,48.34,29,6.83,3.17,8.83,2.67,1.33-1.67,5.5-2S636.83,195,637,196s.17,2.5,2.5,2.83.67-1.5,5.33,1.17,4.5,4.83,6.84,4.5,4.33,1.5,7.66,0a13.5,13.5,0,0,1,6.07-1.27s3.52-.52,3.77-1.5A3.18,3.18,0,0,0,669,199.83Z" transform="translate(-25.03 0.25)"/><path class="cls-7" d="M574.5,233.5s-.5,36,13.5,54.5,39.5,41.5,39.5,41.5l38,17L673,351s13-.5,18-4a10.65,10.65,0,0,1,9.58-1.67l1.59-8.5,3.25,2,2.5-3.83.58-2.67,4-.41,2.33-2.09.25-5,3.42-.5,4.5-3.91-.33-3.5,5.5-3.42,1-8.5,7.25-5.08-1.17-5.34,4.25-4.75s6-5.25,1.08-4.16a14,14,0,0,1-8.91-1.09s-12.42-10.25-16.17-14.66-33.5-26.25-37.42-27.59-17.08-7.25-22.75-7.91-50.25-8.75-50.25-8.75,2.5,1.83-.75,3.66-10.25,3.59-14.16,4.17S574.5,233.5,574.5,233.5Z" transform="translate(-25.03 0.25)"/><path class="cls-4" d="M561.69,171.52l8.56-4.39,8.24-1a13.86,13.86,0,0,1,3.64,0l5.87.79,12.88,1.62-7.25,7.75s-6.25,6.25-8.13,6.25-6.75,2.38-10.25.63-8.75-4.88-10-6.75S561.69,171.52,561.69,171.52Z" transform="translate(-25.03 0.25)"/><path class="cls-8" d="M575,233.38c-1.42,0-7-16.61-9.29-18.61s-7.63-1.14-7.38-4.64,1.13-10.11,1.13-11.61-.75-7.25-.75-7.25l-6.25,11.25-8.25-7s8-18.25,10.5-19.75,7-4.25,7-4.25,7.71,12.54,18,12.07c11.53-.52,19.36-15.27,21.75-15,3.59.41,6.34,8,6.84,14.47a41.17,41.17,0,0,0,4.25,15.19L601.69,205l-9.13-11,12,31.38.92,1.87a11.24,11.24,0,0,1-2.79,2.38,31.77,31.77,0,0,1-6.25,2.21,73.76,73.76,0,0,1-13.3,1.83S576.4,233.38,575,233.38Z" transform="translate(-25.03 0.25)"/><path class="cls-9" d="M571.17,173.67l-1.5-20.84s2.66,3.34,5,2.84,7-8.34,7-8.34l4.16,23.5s-3.33,4-7.33,4.17A18,18,0,0,1,571.17,173.67Z" transform="translate(-25.03 0.25)"/><path class="cls-4" d="M552.61,120.52s4,16.67,6.17,20,6.16,9,7.83,10,4.17,3.83,5.83,4.67,1.34.5,3.67.16,9.33-13.83,9.33-13.83,3-8.83,2.34-13.67-2.67-10.16-4.34-12-11-7.45-17.46-6.45-12.25,5.5-12.87,8.5S552.61,120.52,552.61,120.52Z" transform="translate(-25.03 0.25)"/><path class="cls-10" d="M564.67,115s3.5,11,2.75,16.17-3.25,7.16-1.09,7.08,2.75.67,4.34-.67,2.08-1.25,2.75-.41,3.16.5,3.16.5" transform="translate(-25.03 0.25)"/><path class="cls-11" d="M544,118.5l-10.83-15.17,10.5,1.34.16-14.34,5.5,4.84,5.17-14.34,6.67,8.84,9-11.34,4.33,7.84,11.83-5.84.34,8.17L600.33,86,598,93.33l7.83,1.5-8.31,14.63S585.38,96.58,579,96.67s-13.12.46-16.25,2.21a54.49,54.49,0,0,0-10.37,8.87c-1.38,1.75-4.67,5.75-5.71,8.25s-1.61,3.53-1.61,3.53Z" transform="translate(-25.03 0.25)"/><path class="cls-3" d="M730.67,132.33" transform="translate(-25.03 0.25)"/><path class="cls-12" d="M746.54,311.38c1.18,1.25.61,5.33,0,8.19a8.94,8.94,0,0,1-2.7,4.78l-3.49,4.4S759,342.63,760,343.16s1.69-3.6,1.69-3.6L757.81,331l-2.34-7.22-2.34-8.4s.84-.85.43-1.38a23.22,23.22,0,0,0-3.53-2.16Z" transform="translate(-25.03 0.25)"/><path class="cls-3" d="M723.06,333.06s7.44-.06,8.25,2.69,3.19,6.19,2.32,8.56-6.32,5.44-6.32,5.44" transform="translate(-25.03 0.25)"/><path class="cls-4" d="M545.58,197l-13.83,20.17s-16.5-21.84-20-25.17-10.83-12.08-12.83-13.42-4.09-5-3.75-7.5,2.58-15.66.41-15.75-3.83,15.42-3.83,15.42-1.53-16.19-2.84-16.22-.91,15-.91,15-5.37-13-7.12-12.75,2.68,16.44,2.68,16.44-7.4-6.72-8.34-5.25,2.41,5.91,6.34,7.62a48.89,48.89,0,0,0,8.91,2.66s-8.72,5.22-8,6.69,9.62-2.6,9.62-2.6,28.57,44.16,33.82,45.54,24.25-26.75,24.25-26.75Z" transform="translate(-25.03 0.25)"/><path class="cls-4" d="M602.67,204.67l16.66,26s22.5-46.34,26-47.84a12.82,12.82,0,0,1,7.17-.64s7.56.56,7.63-2.31-8.94-2.57-8.94-2.57,19.56-8.18,17.06-11.31-14.56,5-14.56,5,9.81-11.25,8.12-12.94-12.43,10.44-12.43,10.44,7.56-12.62,6.31-13.31-8.56,10.44-8.56,10.44,3.56-11.63,2-12.32-6.32,7.57-6.57,9.5,0,6.38-1.12,10.82-21.25,41.5-21.25,41.5l-8.75-16.44Z" transform="translate(-25.03 0.25)"/><ellipse class="cls-13" cx="560.43" cy="126.68" rx="1.87" ry="1.89" transform="translate(-36.4 183.3) rotate(-18.37)"/><ellipse class="cls-13" cx="576.45" cy="125.52" rx="1.87" ry="1.89" transform="translate(-35.21 188.29) rotate(-18.37)"/><path class="cls-14" d="M574.25,125.82c.23.73.83,3.11,4.88,3.68" transform="translate(-25.03 0.25)"/><path class="cls-14" d="M562.62,126.3c0,.72-.11,3-3.62,4.39" transform="translate(-25.03 0.25)"/><path class="cls-12" d="M730.22,332.34s3.88,9.54,3.62,10.72.16,2.15-.75,3.16-5.08,5.24-5.08,5.24,1.43-.37,2,.2,2.67,1.75,3.13,2.6,2.86,4.06,3,4.22,3,1.84,4.43,1.47,8.43-1.59,9-2.44a7.78,7.78,0,0,1,1.21-1.42s-4.07-8-4.95-8.61-4.2-2.43-4.62-3.12-8.79-11.74-9.35-11.9A6.26,6.26,0,0,0,730.22,332.34Z" transform="translate(-25.03 0.25)"/></g><g id="skirt_details"><path class="cls-10" d="M576.63,234c-1.21,8.18,30.87,82.88,66.62,96" transform="translate(-25.03 0.25)"/><path class="cls-10" d="M579.67,234.08s27.81,58.62,39,65.65,20.67,15.89,34.19,28.14S670.5,343.5,670.5,343.5" transform="translate(-25.03 0.25)"/><path class="cls-10" d="M584.13,234s42,74.79,93.62,99.46" transform="translate(-25.03 0.25)"/><path class="cls-10" d="M587.67,234.83" transform="translate(-25.03 0.25)"/><path class="cls-10" d="M588,233.87s20,32.67,41.5,52,62,42.51,62,42.51" transform="translate(-25.03 0.25)"/><path class="cls-10" d="M590.79,233.42s35.67,42.5,46.67,49.5,57.33,34.5,57.33,34.5" transform="translate(-25.03 0.25)"/><path class="cls-10" d="M594.17,232.58s35.33,38.84,53,46.5,57.5,32.5,57.5,32.5" transform="translate(-25.03 0.25)"/><path class="cls-10" d="M598.08,232.08s38.17,32.84,50.67,39.34,67.67,33.5,67.67,33.5" transform="translate(-25.03 0.25)"/><path class="cls-10" d="M601.25,230.83s23.83,19,42.67,30.17,52.5,24,52.5,24l12.5,4.83" transform="translate(-25.03 0.25)"/><path class="cls-10" d="M603.25,230.25s31.17,9.67,47,24.33,18.5,5.84,24.5,9.17,24.5,12,24.5,12" transform="translate(-25.03 0.25)"/><path class="cls-10" d="M605.08,228.67s41.67,4.83,61.5,18.66,39.5,17.17,42,28" transform="translate(-25.03 0.25)"/></g><g id="stump"><line class="cls-3" x1="284.67" y1="348.9" x2="284.64" y2="348.92"/><path class="cls-2" d="M495.25,234.75s-3,10.84-7.67,19.17c-4.47,8-108.95,119.32-118,129-.32.66-.67,1.31-1,1.95-7.49,20.66-30.38,18.71-38.6,17.89-1.67-.17-24.37-9.86-25.49-25.34-.15-2-1.82-7.8,2.16-18.67,2.17-5.92,84.66-82.49,84.66-82.49s65.66-53.19,77.68-56.18c5.3-1.32,14.37.16,17.5,2.84C490.19,226.15,494.38,228,495.25,234.75Z" transform="translate(-25.03 0.25)"/><path class="cls-3" d="M309.7,348.65" transform="translate(-25.03 0.25)"/><ellipse class="cls-15" cx="313.05" cy="372.5" rx="33.83" ry="31.5"/><path d="M345.9,345.89A26.2,26.2,0,0,0,315.07,385a29.38,29.38,0,0,0,13,10.49,59.16,59.16,0,0,0,8.85,3.2,17.12,17.12,0,0,0,8.95.32c5.68-1.57,9.37-6.62,12.18-11.46,2.94-5.09,6.07-10.82,3.91-16.8a25.11,25.11,0,0,0-4.32-7,85.36,85.36,0,0,0-5.8-6.66c-3.72-3.76-8.32-6.9-13.82-6.85-5.86.05-11.11,3.31-14.79,7.7-3.48,4.14-6.48,9.76-5.79,15.34s5.63,9.47,10.1,12.44c4.68,3.1,10.22,5.46,15.93,4.36,11.59-2.23,13.26-17.85,6.33-25.68a14,14,0,0,0-13.23-4.68,12,12,0,0,0-9.63,8.83c-1,4.26.46,9.21,4.19,11.72,4.09,2.75,9.44,1.72,11.66-2.79a21.83,21.83,0,0,0,1.71-6.84c0-.16-.23-.16-.25,0-.62,4.84-2.24,11.11-8.34,10.93-5.31-.16-8.87-5-9-10a11.37,11.37,0,0,1,7.4-10.93A13.54,13.54,0,0,1,348,362.9c8.19,6.89,8,23.75-3.85,26.68-5.4,1.35-10.83-.62-15.39-3.47-4.37-2.71-9.49-6.3-10.82-11.57-1.41-5.63,1.54-11.56,4.94-15.88s8.26-7.69,13.88-8.2,10.21,2.22,14.05,5.88a67.33,67.33,0,0,1,5.09,5.59,41.67,41.67,0,0,1,4.73,6.48,13.2,13.2,0,0,1,1.69,8.49,25.68,25.68,0,0,1-3.18,8.16c-2.61,4.76-5.56,9.81-10.48,12.5-5.44,3-11.41,1.17-16.84-.85-5.21-1.94-10.3-4.51-14.08-8.69a26,26,0,0,1,28.1-41.89c.15.05.21-.19.06-.24Z" transform="translate(-25.03 0.25)"/></g><g id="stump_details"><path class="cls-10" d="M381,359.33s20.33-16,24.33-27.33-1-13.67,12.34-23.67,45.08-46.08,45.08-46.08" transform="translate(-25.03 0.25)"/><path class="cls-10" d="M372.5,348s25.83-42.33,37.17-49S432,282.67,436,278s9.67-3,17-13.33S461.67,251,465.67,249s15.5-16.5,15.83-19.5" transform="translate(-25.03 0.25)"/><path class="cls-10" d="M411.5,331.25S473.13,261.5,473.38,257s17.87-25,19.62-26.5" transform="translate(-25.03 0.25)"/><path class="cls-10" d="M355.25,344.75S406,286.13,425.5,276.88s42.75-44.13,54-50.38" transform="translate(-25.03 0.25)"/><path class="cls-10" d="M338.25,339.5C339.5,328,402.34,275.89,415,271c11.2-4.32,57.75-48.5,57.75-48.5" transform="translate(-25.03 0.25)"/></g><g id="grass"><path class="cls-16" d="M458.25,443.75s3.5-13.75,2.5-14.5" transform="translate(-25.03 0.25)"/><line class="cls-16" x1="438.22" y1="439.75" x2="440.72" y2="427"/><path class="cls-16" d="M470.25,442.75s5.5-12.5,13.5-17.5" transform="translate(-25.03 0.25)"/><path class="cls-16" d="M483.5,440s4.25-15.75,14.75-17.25" transform="translate(-25.03 0.25)"/><path class="cls-16" d="M488,390.5a104.8,104.8,0,0,0,3.5-14.75" transform="translate(-25.03 0.25)"/><path class="cls-16" d="M495,393.75s-.25-14,3.5-15" transform="translate(-25.03 0.25)"/><path class="cls-16" d="M501,392.5s-.25-9,2.25-11" transform="translate(-25.03 0.25)"/><path class="cls-16" d="M506.5,397.5s3.25-9.5,4.25-11.25" transform="translate(-25.03 0.25)"/><path class="cls-16" d="M508.5,409s2-9.75,4-10.75" transform="translate(-25.03 0.25)"/><path class="cls-16" d="M519,412.75s0-11,3.25-11.5" transform="translate(-25.03 0.25)"/><path class="cls-16" d="M530,410.75s-2-4.75.25-8.25" transform="translate(-25.03 0.25)"/><path class="cls-16" d="M538.25,415.75s-3.5,0,1.25-8l5.25-10.25" transform="translate(-25.03 0.25)"/><path class="cls-16" d="M543.5,411.5a55.14,55.14,0,0,1,2.75-5.5" transform="translate(-25.03 0.25)"/><path class="cls-16" d="M552.75,412s-1-13.75.5-15.25" transform="translate(-25.03 0.25)"/><path class="cls-16" d="M564.5,414s1.75-14,7.75-18.75" transform="translate(-25.03 0.25)"/><path class="cls-16" d="M575.5,405.75s-1-7,9.5-10.5" transform="translate(-25.03 0.25)"/><path class="cls-16" d="M560.5,444.25" transform="translate(-25.03 0.25)"/><line class="cls-16" x1="208.72" y1="406.25" x2="198.97" y2="386.5"/><line class="cls-16" x1="220.72" y1="401" x2="209.72" y2="385"/><line class="cls-16" x1="223.72" y1="399.25" x2="219.72" y2="380.75"/><line class="cls-16" x1="230.72" y1="402" x2="226.72" y2="384.5"/><line class="cls-16" x1="235.22" y1="402.75" x2="241.22" y2="383"/><line class="cls-16" x1="247.47" y1="409.75" x2="239.72" y2="398.25"/><line class="cls-16" x1="247.22" y1="402" x2="242.72" y2="387"/><path class="cls-16" d="M395.25,390.75s14-18.25,17.25-17.25" transform="translate(-25.03 0.25)"/><path class="cls-16" d="M408,389.25s2-7,10.75-11.5" transform="translate(-25.03 0.25)"/><line class="cls-16" x1="681.47" y1="455.75" x2="682.47" y2="445.92"/><path class="cls-16" d="M719.17,456s-1.34-15.67-2.67-16.33" transform="translate(-25.03 0.25)"/><path class="cls-16" d="M728.67,447s-.67-17.5-4.84-19.83" transform="translate(-25.03 0.25)"/><path class="cls-16" d="M732.83,448s-.16-11-.33-11.83" transform="translate(-25.03 0.25)"/><path class="cls-16" d="M737.17,450s2.66-11-.84-14.67" transform="translate(-25.03 0.25)"/><line class="cls-16" x1="722.3" y1="448.58" x2="723.97" y2="432.42"/><path class="cls-16" d="M753.5,450.67s3-12.34,1.5-14.34" transform="translate(-25.03 0.25)"/><path class="cls-16" d="M764.67,453.33s1.33-8.33,8.66-12.16" transform="translate(-25.03 0.25)"/><path class="cls-16" d="M774.17,454.17s2.33-8.34,6.33-11.67" transform="translate(-25.03 0.25)"/><path class="cls-16" d="M781.67,454.17a52.54,52.54,0,0,1,8-10.67" transform="translate(-25.03 0.25)"/><path class="cls-16" d="M737.5,416s-1-17.17-3.17-18.33" transform="translate(-25.03 0.25)"/><path class="cls-16" d="M741,413.5s-.83-15-2.83-19.17" transform="translate(-25.03 0.25)"/><line class="cls-16" x1="730.64" y1="426.75" x2="733.64" y2="414.58"/><line class="cls-16" x1="738.97" y1="434.75" x2="740.8" y2="416.25"/><line class="cls-16" x1="743.14" y1="439.58" x2="745.14" y2="425.42"/><path class="cls-14" d="M123.33,354.33" transform="translate(-25.03 0.25)"/><path class="cls-14" d="M142.63,343.5" transform="translate(-25.03 0.25)"/><path class="cls-14" d="M123.63,351.88" transform="translate(-25.03 0.25)"/><line class="cls-14" x1="92.35" y1="355.75" x2="99.1" y2="371.88"/><line class="cls-14" x1="100.6" y1="351.88" x2="104.1" y2="371.88"/><path class="cls-14" d="M141.5,345.25c1,4.38,1,16.5,1,16.5" transform="translate(-25.03 0.25)"/><path class="cls-14" d="M147.13,339.63" transform="translate(-25.03 0.25)"/><polyline class="cls-14" points="122.09 352.88 122.84 360.25 121.59 366.5"/><path d="M1106.67,418.71a.38.38,0,0,0,0-.75.38.38,0,0,0,0,.75Z" transform="translate(-25.03 0.25)"/><path d="M1106.67,418.71a.38.38,0,0,0,0-.75.38.38,0,0,0,0,.75Z" transform="translate(-25.03 0.25)"/><path class="cls-17" d="M559.7,411.65a12.86,12.86,0,0,1-1.61-12c0-.07-.1-.1-.12,0a13,13,0,0,0,1.62,12c0,.07.16,0,.11-.06Z" transform="translate(-25.03 0.25)"/><path class="cls-17" d="M569.23,408l6-13.67c0-.07-.07-.14-.11-.06l-6,13.67c0,.07.08.14.11.06Z" transform="translate(-25.03 0.25)"/><path class="cls-17" d="M503.82,266a14.26,14.26,0,0,1,5.2-12.65c.06-.05,0-.14-.09-.09A14.33,14.33,0,0,0,503.7,266c0,.08.13.08.12,0Z" transform="translate(-25.03 0.25)"/><path class="cls-17" d="M502.05,243.68a18.26,18.26,0,0,1,7.64-12c.06-.05,0-.16-.07-.11a18.38,18.38,0,0,0-7.69,12.05.06.06,0,1,0,.12,0Z" transform="translate(-25.03 0.25)"/><path class="cls-17" d="M506.66,264.66l8.69-10.31c0-.06,0-.15-.09-.09l-8.69,10.32c-.05.06,0,.15.09.08Z" transform="translate(-25.03 0.25)"/><path class="cls-17" d="M371.18,388.07c.81-9.09,10-13.32,17.33-16.38.07,0,0-.16,0-.12-7.43,3.08-16.61,7.35-17.43,16.5,0,.08.12.08.13,0Z" transform="translate(-25.03 0.25)"/><path class="cls-17" d="M392.75,374.36a20.62,20.62,0,0,1,8.62-10.29c.07,0,0-.15-.06-.11a20.86,20.86,0,0,0-8.69,10.36c0,.08.1.11.13,0Z" transform="translate(-25.03 0.25)"/><path class="cls-17" d="M301.15,387.38a21,21,0,0,0,.09-14.34c0-.08-.15,0-.12,0a20.92,20.92,0,0,1-.1,14.28c0,.07.1.11.13,0Z" transform="translate(-25.03 0.25)"/><path class="cls-17" d="M299.17,377.22l-8-11.12c0-.06-.15,0-.11.06l8,11.13c0,.06.15,0,.11-.07Z" transform="translate(-25.03 0.25)"/><path class="cls-17" d="M304.48,402.31a16.47,16.47,0,0,1,7.3-10.8c.06,0,0-.15-.07-.1a16.6,16.6,0,0,0-7.35,10.86c0,.08.11.12.12,0Z" transform="translate(-25.03 0.25)"/><path class="cls-17" d="M788.23,455.65,789.9,440c0-.08-.12-.08-.13,0l-1.67,15.67c0,.08.12.08.13,0Z" transform="translate(-25.03 0.25)"/><path class="cls-17" d="M792.05,451a21.63,21.63,0,0,1,11.64-9.28c.08,0,0-.15,0-.12A21.72,21.72,0,0,0,792,451c-.05.07.06.13.1.06Z" transform="translate(-25.03 0.25)"/><path class="cls-17" d="M796.84,451.12l11.06-8.92c.06-.05,0-.14-.09-.09L796.75,451c-.06.05,0,.14.09.09Z" transform="translate(-25.03 0.25)"/><path class="cls-17" d="M808.4,450a9.52,9.52,0,0,1,2.33-9.25c0-.06,0-.15-.09-.09a9.64,9.64,0,0,0-2.36,9.37.06.06,0,1,0,.12,0Z" transform="translate(-25.03 0.25)"/><path class="cls-17" d="M719.69,382.35a15.73,15.73,0,0,1,7-10.94c.07,0,0-.15-.06-.1a15.79,15.79,0,0,0-7.08,11c0,.08.11.11.12,0Z" transform="translate(-25.03 0.25)"/><path class="cls-17" d="M727.06,376.68a12.67,12.67,0,0,1,8.29-8.95c.08,0,0-.15,0-.12a12.82,12.82,0,0,0-8.38,9,.06.06,0,1,0,.12,0Z" transform="translate(-25.03 0.25)"/><path class="cls-17" d="M737.5,373.16l5.39-5.28c.06-.05,0-.14-.09-.08l-5.39,5.27a.06.06,0,1,0,.09.09Z" transform="translate(-25.03 0.25)"/><path class="cls-17" d="M719.44,257.64a14.16,14.16,0,0,1,8-10.37c.08,0,0-.14-.06-.1a14.26,14.26,0,0,0-8.08,10.43c0,.08.11.12.12,0Z" transform="translate(-25.03 0.25)"/><path class="cls-17" d="M728,252.77l5.83-7.2c0-.06,0-.15-.09-.09l-5.83,7.2c-.05.06,0,.15.09.09Z" transform="translate(-25.03 0.25)"/><path class="cls-17" d="M735,251.67a7.69,7.69,0,0,1,3.41-7.9c.07-.05,0-.16-.06-.11a7.84,7.84,0,0,0-3.48,8c0,.08.14.05.13,0Z" transform="translate(-25.03 0.25)"/><path class="cls-17" d="M740.67,249.67l3.3-3.36a.06.06,0,1,0-.09-.09l-3.3,3.36c-.06.06,0,.14.09.09Z" transform="translate(-25.03 0.25)"/><path class="cls-17" d="M502.43,278.82l4.73-5.95c0-.06,0-.15-.09-.09l-4.73,6c0,.06,0,.15.09.09Z" transform="translate(-25.03 0.25)"/><path class="cls-17" d="M507,278a8,8,0,0,1,4.66-4.62c.07,0,0-.15,0-.12A8.17,8.17,0,0,0,506.9,278c0,.07.09.11.12,0Z" transform="translate(-25.03 0.25)"/><path class="cls-17" d="M515,276.32a6,6,0,0,1-1.62-6.3c0-.08-.1-.11-.12,0a6.11,6.11,0,0,0,1.65,6.43c.06,0,.15,0,.09-.09Z" transform="translate(-25.03 0.25)"/><path class="cls-17" d="M519.73,274.33a5.26,5.26,0,0,1,2.65-5.25.06.06,0,1,0-.06-.1,5.37,5.37,0,0,0-2.72,5.35c0,.08.14.08.13,0Z" transform="translate(-25.03 0.25)"/><path class="cls-17" d="M480.38,438.67a12.7,12.7,0,0,1,4.33-10c.06-.06,0-.14-.09-.09a12.84,12.84,0,0,0-4.37,10.05c0,.08.13.08.13,0Z" transform="translate(-25.03 0.25)"/><path class="cls-17" d="M492.14,433.42l7.11-5.87c.06-.05,0-.14-.09-.09l-7.11,5.87c-.07.05,0,.14.09.09Z" transform="translate(-25.03 0.25)"/><path class="cls-17" d="M498,403.67a8.53,8.53,0,0,1,3.07-6.26c.06-.05,0-.14-.09-.09a8.71,8.71,0,0,0-3.11,6.35c0,.08.12.08.13,0Z" transform="translate(-25.03 0.25)"/><path class="cls-17" d="M496.38,420a8.39,8.39,0,0,1,3-7.26c.06-.05,0-.14-.09-.09a8.52,8.52,0,0,0-3.06,7.35c0,.08.13.08.13,0Z" transform="translate(-25.03 0.25)"/><path class="cls-17" d="M429.05,330a18.13,18.13,0,0,1,8.69-12.55.06.06,0,1,0-.06-.1A18.21,18.21,0,0,0,428.93,330a.06.06,0,1,0,.12,0Z" transform="translate(-25.03 0.25)"/><path class="cls-17" d="M434.65,324l9.69-5c.07,0,0-.14-.06-.11l-9.69,5c-.07,0,0,.15.06.11Z" transform="translate(-25.03 0.25)"/><path class="cls-17" d="M443.63,324.29l6-5.31c.06-.06,0-.14-.09-.09l-6,5.31c-.06.05,0,.14.09.09Z" transform="translate(-25.03 0.25)"/><path class="cls-17" d="M441.33,314.33a5.85,5.85,0,0,1,3.05-4.59c.07,0,0-.14-.07-.1a6,6,0,0,0-3.11,4.69c0,.08.12.08.13,0Z" transform="translate(-25.03 0.25)"/><path class="cls-17" d="M446.24,312.25l7.05-7.95a.06.06,0,0,0-.09-.09l-7.05,8c0,.06,0,.15.09.09Z" transform="translate(-25.03 0.25)"/><path class="cls-17" d="M500.38,525.71l5-4.33c.06-.06,0-.14-.09-.09l-5,4.33c-.06.06,0,.14.09.09Z" transform="translate(-25.03 0.25)"/><path class="cls-17" d="M504,528l5-5.33c.06-.06,0-.15-.08-.09L504,528c-.06,0,0,.14.08.08Z" transform="translate(-25.03 0.25)"/><path class="cls-17" d="M506.52,537.56l4.41-6.61c.05-.07-.06-.13-.11-.06l-4.41,6.61c-.05.07.06.13.11.06Z" transform="translate(-25.03 0.25)"/><path class="cls-17" d="M524.45,532.26l3-9a.06.06,0,0,0-.12,0l-3,9c0,.08.09.11.12,0Z" transform="translate(-25.03 0.25)"/><path class="cls-17" d="M210,504a10,10,0,0,1,5.41-5.24c.07,0,0-.15,0-.12a10.16,10.16,0,0,0-5.49,5.29c0,.08.08.14.11.07Z" transform="translate(-25.03 0.25)"/><path class="cls-17" d="M218,503l7-7c.06-.05,0-.14-.09-.09l-7,7c-.05.06,0,.15.09.09Z" transform="translate(-25.03 0.25)"/><path class="cls-17" d="M380,385.69a7.2,7.2,0,0,1,2.24-11.23c.08,0,0-.14-.06-.11a7.32,7.32,0,0,0-2.27,11.43c0,.06.14,0,.09-.09Z" transform="translate(-25.03 0.25)"/><path class="cls-17" d="M383.4,385.32a9.92,9.92,0,0,1,4.35-11.51c.07,0,0-.15-.06-.11a10.06,10.06,0,0,0-4.41,11.65c0,.07.14,0,.12,0Z" transform="translate(-25.03 0.25)"/><path class="cls-17" d="M477.17,277a17.09,17.09,0,0,1,5.48-11.36c.06-.06,0-.15-.08-.09A17.15,17.15,0,0,0,477.05,277c0,.08.12.08.12,0Z" transform="translate(-25.03 0.25)"/><path class="cls-17" d="M486.06,278a6.23,6.23,0,0,1,.34-7.89.06.06,0,1,0-.09-.09,6.35,6.35,0,0,0-.36,8c.05.07.16,0,.11-.06Z" transform="translate(-25.03 0.25)"/><path class="cls-17" d="M516.34,262.66a7.39,7.39,0,0,1,3.73-8.2c.07,0,0-.14-.06-.11a7.53,7.53,0,0,0-3.79,8.35c0,.08.14,0,.12,0Z" transform="translate(-25.03 0.25)"/><path class="cls-17" d="M715.34,248.68a11.63,11.63,0,0,1,6.36-6.25c.07,0,0-.15,0-.12a11.77,11.77,0,0,0-6.43,6.31c0,.07.08.13.11.06Z" transform="translate(-25.03 0.25)"/><path class="cls-17" d="M743.46,377.67a12.79,12.79,0,0,1,5.82-10.42c.07,0,0-.15-.06-.1a12.87,12.87,0,0,0-5.88,10.52.06.06,0,0,0,.12,0Z" transform="translate(-25.03 0.25)"/><path class="cls-17" d="M751.9,370.63l3-9c0-.07-.09-.1-.12,0l-3,9c0,.07.1.11.12,0Z" transform="translate(-25.03 0.25)"/><path class="cls-17" d="M762.74,407a13.93,13.93,0,0,1,1.59-10.31c0-.07-.06-.14-.1-.07A14,14,0,0,0,762.62,407a.06.06,0,1,0,.12,0Z" transform="translate(-25.03 0.25)"/><path class="cls-17" d="M765.11,400.57,769,392.2c0-.07-.07-.13-.11-.06L765,400.5c0,.08.08.14.11.07Z" transform="translate(-25.03 0.25)"/><path class="cls-17" d="M485.73,387l2.66-7.67c0-.08-.09-.11-.12,0L485.61,387c0,.08.09.11.12,0Z" transform="translate(-25.03 0.25)"/><path class="cls-17" d="M513.05,394.67A12.86,12.86,0,0,1,517.7,385c.07-.06,0-.14-.08-.09a12.94,12.94,0,0,0-4.69,9.72.06.06,0,1,0,.12,0Z" transform="translate(-25.03 0.25)"/><path class="cls-17" d="M516.1,408A13,13,0,0,1,518,398a.06.06,0,0,0-.11-.06A13.17,13.17,0,0,0,516,408c0,.08.13,0,.12,0Z" transform="translate(-25.03 0.25)"/><path class="cls-17" d="M92.6,504.5a16.3,16.3,0,0,1,3.87-12c0-.06,0-.15-.09-.09a16.43,16.43,0,0,0-3.91,12.11c0,.08.13.08.13,0Z" transform="translate(-25.03 0.25)"/><path class="cls-17" d="M98.11,502a14.19,14.19,0,0,1,6.38-13.5c.07,0,0-.15-.06-.1A14.3,14.3,0,0,0,98,502c0,.08.14.08.13,0Z" transform="translate(-25.03 0.25)"/><path class="cls-17" d="M103.62,496.19l7.7-9.33c.05-.06,0-.15-.09-.09l-7.7,9.33c0,.06,0,.15.09.09Z" transform="translate(-25.03 0.25)"/><path class="cls-17" d="M312.81,543l-1.9-15c0-.08-.14-.08-.13,0l1.9,15c0,.08.14.08.13,0Z" transform="translate(-25.03 0.25)"/><path class="cls-17" d="M314.31,533.88l5.56-9c0-.07-.07-.14-.11-.07l-5.56,9c0,.07.07.13.11.06Z" transform="translate(-25.03 0.25)"/><path class="cls-17" d="M320.79,531.89l6.27-11.62c0-.07-.07-.14-.1-.07l-6.28,11.63c0,.07.07.13.11.06Z" transform="translate(-25.03 0.25)"/><path class="cls-17" d="M332.62,534.92A19.17,19.17,0,0,1,329.38,522c0-.08-.11-.08-.12,0a19.25,19.25,0,0,0,3.25,13c.05.06.16,0,.11-.07Z" transform="translate(-25.03 0.25)"/><path class="cls-17" d="M234.89,309.44l6.67-12.18c0-.07-.07-.13-.11-.06l-6.66,12.18c0,.07.07.14.1.06Z" transform="translate(-25.03 0.25)"/><path class="cls-17" d="M242,302l4-5c.05-.06,0-.15-.08-.08l-4,5c-.05.06,0,.15.08.08Z" transform="translate(-25.03 0.25)"/><path class="cls-17" d="M251.06,299.5v-6a.06.06,0,0,0-.12,0v6a.06.06,0,0,0,.12,0Z" transform="translate(-25.03 0.25)"/><path class="cls-17" d="M254.57,297a11,11,0,0,1,6-7c.07,0,0-.15-.07-.11a11.09,11.09,0,0,0-6,7.05c0,.07.1.11.12,0Z" transform="translate(-25.03 0.25)"/><path class="cls-17" d="M151.92,349.94l5.47-6.53c.05-.06,0-.15-.09-.08l-5.47,6.52c-.05.06,0,.15.09.09Z" transform="translate(-25.03 0.25)"/><path class="cls-17" d="M157.75,349.25l9.4-9.59a.06.06,0,1,0-.09-.09l-9.4,9.59a.06.06,0,1,0,.09.09Z" transform="translate(-25.03 0.25)"/><path class="cls-17" d="M49.57,432.52a19.21,19.21,0,0,1,9-12,.06.06,0,1,0-.06-.1,19.31,19.31,0,0,0-9,12.06c0,.07.11.11.12,0Z" transform="translate(-25.03 0.25)"/><path class="cls-17" d="M60,426l7.36-10.1a.06.06,0,0,0-.11-.06L59.92,426c-.05.06.06.13.11.06Z" transform="translate(-25.03 0.25)"/><path class="cls-17" d="M71.44,418.93l6.9-6.6c.06-.05,0-.14-.09-.09l-6.9,6.6a.06.06,0,0,0,.09.09Z" transform="translate(-25.03 0.25)"/><path class="cls-17" d="M684.45,533l2.52-3.48c0-.07-.07-.13-.11-.07l-2.52,3.49c-.05.07.06.13.11.06Z" transform="translate(-25.03 0.25)"/><path class="cls-17" d="M691,532a4.34,4.34,0,0,1,2-5.87c.07,0,0-.14-.07-.11a4.46,4.46,0,0,0-2.06,6c0,.07.14,0,.11-.06Z" transform="translate(-25.03 0.25)"/><path class="cls-17" d="M693.43,532l2.54-6c0-.08-.08-.14-.11-.07l-2.54,6c0,.07.08.13.11.06Z" transform="translate(-25.03 0.25)"/><path class="cls-17" d="M700.2,529.28l5-7c0-.07-.07-.13-.11-.06l-5,7c-.05.06.06.13.1.06Z" transform="translate(-25.03 0.25)"/><path class="cls-17" d="M604.54,457.54l3-3.5c.06-.06,0-.15-.08-.08l-3,3.5c-.06.06,0,.15.08.08Z" transform="translate(-25.03 0.25)"/><path class="cls-17" d="M611.52,455.5a13.81,13.81,0,0,1,7-8.42c.07,0,0-.15-.06-.11a14,14,0,0,0-7.08,8.5c0,.08.09.11.12,0Z" transform="translate(-25.03 0.25)"/><path class="cls-17" d="M618,454a10.2,10.2,0,0,1,2.1-8.95c.05-.06,0-.15-.09-.09a10.31,10.31,0,0,0-2.13,9.07.06.06,0,0,0,.12,0Z" transform="translate(-25.03 0.25)"/><path class="cls-17" d="M626.07,451a9.49,9.49,0,0,1,2.49-7.92.06.06,0,1,0-.09-.09,9.63,9.63,0,0,0-2.52,8,.06.06,0,1,0,.12,0Z" transform="translate(-25.03 0.25)"/><path class="cls-17" d="M631,447.05l3-2c.07,0,0-.15-.06-.1l-3,2c-.07,0,0,.15.06.1Z" transform="translate(-25.03 0.25)"/><path class="cls-17" d="M255.59,336.61l9.5-7.51c.06-.05,0-.14-.09-.09l-9.5,7.51c-.06.05,0,.13.09.09Z" transform="translate(-25.03 0.25)"/><path class="cls-17" d="M267.57,333a8.85,8.85,0,0,1,4.46-7.94c.07,0,0-.15-.06-.11a9,9,0,0,0-4.53,8.05.07.07,0,0,0,.13,0Z" transform="translate(-25.03 0.25)"/><path class="cls-17" d="M273.31,331.86l3.08-4.44c.05-.07-.06-.13-.1-.06l-3.09,4.44c0,.07.07.13.11.06Z" transform="translate(-25.03 0.25)"/><path class="cls-17" d="M279.91,331a6.17,6.17,0,0,1,3.16-4.87c.07,0,0-.15-.07-.11a6.3,6.3,0,0,0-3.21,5c0,.08.11.08.12,0Z" transform="translate(-25.03 0.25)"/><path class="cls-17" d="M416.45,341l2-6a.06.06,0,0,0-.12,0l-2,6c0,.08.1.11.13,0Z" transform="translate(-25.03 0.25)"/><path class="cls-17" d="M644.83,450.47l2-10.49a.06.06,0,0,0-.12,0l-2,10.49a.06.06,0,1,0,.12,0Z" transform="translate(-25.03 0.25)"/><path class="cls-17" d="M649.42,357.92l2.51-2.49c.06-.06,0-.14-.09-.09l-2.51,2.49c-.06.05,0,.14.09.09Z" transform="translate(-25.03 0.25)"/><path class="cls-17" d="M777,502.05l3.5-2.5c.07,0,0-.15-.06-.1L777,502c-.07,0,0,.15.06.1Z" transform="translate(-25.03 0.25)"/><path class="cls-17" d="M228.05,501.49a4.85,4.85,0,0,1,3.49-5.32c.08,0,.05-.15,0-.12a5,5,0,0,0-3.58,5.47c0,.08.13,0,.12,0Z" transform="translate(-25.03 0.25)"/></g><g id="swirly_things"><path class="cls-14" d="M65,319.5S41.49,301.73,55,277s18.63-28.37,18-32.5c-1.75-7.37-27.22-24.32-32-35.5-6.1-14.27,13.5-14,14-24.5s-2.5-24-2.5-24" transform="translate(-25.03 0.25)"/><path class="cls-14" d="M62.33,349.33s2-20.66,14.34-22.66,21.66-18.67,19-23.34S79.33,291,78,271s12.67-14.67,24.67-27.67,13-16.33,10-22.33-27.67-27.67-7-41,31.66-15.67,31.66-22.33S123.67,134,148,127.67,158.33,105,173,99s31-6.67,33.33-13-5-9,7.34-12" transform="translate(-25.03 0.25)"/><path class="cls-14" d="M58.63,228.63" transform="translate(-25.03 0.25)"/><path class="cls-14" d="M112.5,345s11.67-22,27.5-29.67,27.17-20.16,23.67-30.66-22.5-15.5-21-31.84S144.5,231.5,159.33,225s10.17-23.17,10.17-23.17" transform="translate(-25.03 0.25)"/><path class="cls-14" d="M215.17,338.5s-.84-40.67,14-50.67,25.16-19.66,23.5-28.66-15.34-33.34-7.5-46.5,7.33-16.34,16.33-22.84,24.83-14.33,25.5-22.5,1.67-15.16,1.67-15.16" transform="translate(-25.03 0.25)"/><path class="cls-14" d="M287,352.33s-9-18.58,1.5-28.08,39.13-27,39.13-27,18.12-14.5,11.25-27.37S325.38,239,325.38,239s-.88-17.5,10.75-26.12,15.12-6.75,19-13.63,4.62-11.5,4.62-11.5" transform="translate(-25.03 0.25)"/><path class="cls-14" d="M346.67,311s48-32.33,53.66-48,6.67-21-7-33-12.66-21.33,0-29.67,37.67-26,31.34-37.66-16.34-19-18.34-29.67,1.67-28.67-5-39.33S374.33,80,370.67,73A118.32,118.32,0,0,0,364,61.67" transform="translate(-25.03 0.25)"/><path class="cls-14" d="M421.33,241s15-20,14.34-27.33S422,197,435.33,184.33s16.67-13.66,21.34-21.66,9.33-9.67,7-18-9-13-8.67-18.67-4-13.33,3-20,7-9.33,6.67-12.67" transform="translate(-25.03 0.25)"/><path d="M286.58,229.56c-.93-1.56-1.17-3.89.66-4.95a2.13,2.13,0,0,1,2.66.39,1.58,1.58,0,0,1-1.36,2.63c-.32,0-.45.44-.13.48a2.09,2.09,0,0,0,2.39-1.68,2.34,2.34,0,0,0-1.88-2.56,2.91,2.91,0,0,0-3.11,1.51,4.38,4.38,0,0,0,.34,4.44.25.25,0,0,0,.43-.26Z" transform="translate(-25.03 0.25)"/><path d="M310.72,220a1.36,1.36,0,0,1-2.34-1.13,1.12,1.12,0,0,1,1.05-1,1.22,1.22,0,0,1,1.23,1c0,.32.54.32.5,0a1.66,1.66,0,0,0-3.23-.26,1.86,1.86,0,0,0,3.14,1.73c.24-.22-.11-.58-.35-.36Z" transform="translate(-25.03 0.25)"/><path d="M186.72,214.66c.9-1.87,2.79-5.28,5.42-3.9,1.52.79,1.39,3.33-.62,3.28-1.43,0-1.85-1.78-1.11-2.77.19-.25-.25-.5-.44-.25a2.15,2.15,0,1,0,3.76,1.7c.28-1.68-1.5-2.87-3-2.7-2.33.25-3.53,2.51-4.43,4.39-.14.29.29.54.43.25Z" transform="translate(-25.03 0.25)"/><path d="M223.42,208.24a2.9,2.9,0,0,1,.12-2.57,2.28,2.28,0,0,1,2.81-.92,1.93,1.93,0,0,1,1,2.47,1.68,1.68,0,0,1-2.57.55c-.24-.2-.6.15-.35.36a2.22,2.22,0,0,0,3-.11,2.37,2.37,0,0,0-.12-3.24,2.68,2.68,0,0,0-3.46-.14,3.18,3.18,0,0,0-.87,3.73c.12.29.6.17.48-.13Z" transform="translate(-25.03 0.25)"/><path d="M199.53,233.26a18.46,18.46,0,0,1,9-7.08c3.4-1.25,9.36-2.29,11.48,1.61,1.2,2.19-.11,4.33-2.26,5.17-1.85.72-3.81.5-5.75.44a11.59,11.59,0,0,0-5.36,1,13,13,0,0,1-3.2,1.22c-1.59.26-3.49-.44-3.43-2.33,0-.32-.49-.32-.5,0a2.82,2.82,0,0,0,2.16,2.79c1.92.52,3.74-.59,5.42-1.34,2.45-1.08,4.84-.74,7.43-.74a8.2,8.2,0,0,0,4.59-1.17c2.61-1.74,2.28-5.18-.14-6.95-2.87-2.1-7.28-1.34-10.39-.24A19,19,0,0,0,199.1,233c-.18.27.26.52.43.26Z" transform="translate(-25.03 0.25)"/><path d="M299.66,241.49a7.23,7.23,0,0,1,9-6.44c4.33,1.07,6.83,5.49,6.47,9.78-.4,4.66-4.56,9-9.49,7.56-2.39-.7-3.79-2.55-4.91-4.65s-2.51-4.59-.88-6.71c.2-.26-.24-.51-.43-.26-1.13,1.48-.91,3.31-.24,4.94a16.15,16.15,0,0,0,3.31,5.42,7.46,7.46,0,0,0,10,.12c6.14-5.25,2.71-16.81-5.65-16.94a7.72,7.72,0,0,0-7.72,7.18c0,.32.47.32.5,0Z" transform="translate(-25.03 0.25)"/><path d="M368.07,148.58a1.83,1.83,0,0,1,1.11-2.61,2.09,2.09,0,0,1,2.4,2,2.47,2.47,0,0,1-1.88,2.25,2.92,2.92,0,0,1-3-1.31c-.19-.26-.62,0-.44.25a3.39,3.39,0,0,0,3.84,1.45,2.85,2.85,0,0,0,1.77-3.55,2.53,2.53,0,0,0-3.16-1.49,2.34,2.34,0,0,0-1.11,3.24.25.25,0,0,0,.43-.25Z" transform="translate(-25.03 0.25)"/><path d="M387.59,143a1.3,1.3,0,0,1,.17-2.3,1.29,1.29,0,0,1,1.61,1.73c-.77,2-3.29,1.41-4.86.94a.25.25,0,0,0-.13.48c1.49.45,3.38,1,4.7-.18.85-.74,1.33-2.16.4-3a1.84,1.84,0,0,0-2.69.18,1.9,1.9,0,0,0,.54,2.62c.27.18.52-.25.26-.43Z" transform="translate(-25.03 0.25)"/><path d="M382.16,155.91c-3.34.52-5.34,3.57-6.05,6.66a30.1,30.1,0,0,0-.6,5.61,7.09,7.09,0,0,0,.84,4.17c1.89,2.8,5.53,1.2,7.17-.93a16.93,16.93,0,0,0,3.22-10.59c-.05-1.78-.25-3.87-1.46-5.28a3.09,3.09,0,0,0-3.89-.78.25.25,0,0,0,.25.44c2.39-1.4,4,1.41,4.39,3.38a16.43,16.43,0,0,1-.08,5.85c-.59,3.16-2.53,8.7-6.44,8.9-4.4.24-3.57-5.75-3.26-8.51.4-3.61,2-7.81,6-8.44.32,0,.18-.53-.13-.48Z" transform="translate(-25.03 0.25)"/><path d="M411.1,109.27a1.77,1.77,0,0,1,.3-2.22,1.61,1.61,0,0,1,2.55,1c.28,1.2-1,2-2,2.13a4.9,4.9,0,0,1-2.7-.82.25.25,0,0,0-.25.43c1.31.75,3,1.32,4.37.43a2.1,2.1,0,0,0,.69-3.07c-1.65-2.26-4.79.18-3.39,2.4.17.27.6,0,.43-.25Z" transform="translate(-25.03 0.25)"/><path d="M425.41,105.73a1.6,1.6,0,1,1,.84.26c-.32,0-.32.51,0,.5a2.26,2.26,0,0,0,2.14-2,2,2,0,0,0-1.59-2.14c-2.32-.61-3.5,2.5-1.64,3.81.26.19.51-.25.25-.43Z" transform="translate(-25.03 0.25)"/><path d="M149,154.87a5.27,5.27,0,0,1,1.62-2c.8-.49,2.2-.38,2.3.77a1.82,1.82,0,0,1-1.27,1.78,3.74,3.74,0,0,1-2.83-.52c-.28-.15-.54.28-.25.43a3.91,3.91,0,0,0,3.61.41,2.28,2.28,0,0,0,1.21-2.35,1.77,1.77,0,0,0-2-1.29c-1.37.16-2.15,1.4-2.79,2.49a.25.25,0,0,0,.43.25Z" transform="translate(-25.03 0.25)"/><path d="M139.8,139.11a1.29,1.29,0,0,1,2,.07,1.62,1.62,0,0,1-.5,2.19,1.74,1.74,0,0,1-2.49-2.22c.12-.3-.36-.43-.49-.13A2.23,2.23,0,0,0,142,141.4a2.06,2.06,0,0,0-.07-2.78,1.79,1.79,0,0,0-2.52.14c-.2.24.15.6.36.35Z" transform="translate(-25.03 0.25)"/><path d="M96.74,288.07a3.62,3.62,0,0,0,4,2.83,3.18,3.18,0,0,0,2.65-3.55,3.14,3.14,0,0,0-3.17-3.07,3.61,3.61,0,0,0-3.47,3.22c0,.32.47.32.5,0a3.11,3.11,0,0,1,3-2.72,2.67,2.67,0,0,1,2.68,2.82,2.63,2.63,0,0,1-2.53,2.82,3.11,3.11,0,0,1-3.11-2.48c0-.32-.53-.19-.48.13Z" transform="translate(-25.03 0.25)"/><path d="M108.13,288.85a2,2,0,0,1,1.1-3.22c1.56-.2,2.51,2,1.56,3.13-.2.25.15.6.36.36,1.22-1.45.12-4.13-1.88-4a2.5,2.5,0,0,0-1.5,4.08c.23.24.58-.12.36-.35Z" transform="translate(-25.03 0.25)"/></g><g id="lips"><path class="cls-18" d="M568,146.1c-.31-.31,0-.43.25-.79a6.65,6.65,0,0,1,.66-.85h0a2,2,0,0,1,1.92-.46l.14,0c.06,0,.94.36.94.36l.6-.46a2.4,2.4,0,0,1,1.27-.45,3.9,3.9,0,0,1,.62,0h0a2.25,2.25,0,0,1,1,.45,3.84,3.84,0,0,1,.34.31l.52.68.33.51-.63,1.05s-.73,1-.84,1.09l-.35.26a2.84,2.84,0,0,1-.89.43l-1.54.15a4.55,4.55,0,0,1-1.17-.2,7.28,7.28,0,0,1-1.48-.59,5.67,5.67,0,0,1-.94-.69Z" transform="translate(-25.03 0.25)"/><path class="cls-19" d="M568.48,147.42" transform="translate(-25.03 0.25)"/><path d="M1034,357.17a1.5,1.5,0,0,0,0-3,1.5,1.5,0,0,0,0,3Z" transform="translate(-25.03 0.25)"/></g></svg>