<svg xmlns="http://www.w3.org/2000/svg" viewBox="0 0 344 368.67"><defs><style>.cls-1{fill:#fff;}</style></defs><title>background</title><g id="Layer_2" data-name="Layer 2"><g id="Layer_5" data-name="Layer 5"><ellipse class="cls-1" cx="172" cy="184.33" rx="172" ry="184.33"/></g><g id="logo_black"><path d="M196.63,66.57l1.72,5.79A17.38,17.38,0,0,0,200,77c.94,1.42,2.84,2,4.05.56.3-.37-.22-.9-.53-.53-2.12,2.55-3.4-1.5-3.71-2.42s-.57-1.94-.86-2.9l-1.59-5.38a.38.38,0,0,0-.73.2Z"/><path d="M204.17,68a.38.38,0,0,0,0-.75.38.38,0,0,0,0,.75Z"/><path d="M193.17,71.29a.38.38,0,0,0,0-.75.38.38,0,0,0,0,.75Z"/><path d="M201.83,82a2.6,2.6,0,0,0,2.91.73c.44-.18.25-.9-.2-.73a1.87,1.87,0,0,1-2.18-.53c-.31-.37-.84.16-.53.53Z"/><path d="M210.88,78.87a16.81,16.81,0,0,0,4.36,14.22c.33.36.85-.17.53-.53a16,16,0,0,1-4.17-13.49c.07-.47-.65-.67-.72-.2Z"/><path d="M203.64,88.33a6.37,6.37,0,0,1-4.12,9.38.38.38,0,0,0,0,.73c5.59,2.25,16.87,4,18-4.53.06-.48-.69-.48-.75,0-.72,5.67-7.14,6.15-11.6,5.4-.53-.09-4.24-.64-4.36-1.18a6.44,6.44,0,0,0,1.53-.79c3.19-2.2,3.65-6.12,2-9.39-.21-.43-.86,0-.64.38Z"/><path d="M198.91,114.25a16.59,16.59,0,0,1-.6,2.43q-2,6.81-9.25,1c-.75-1.84-.25-5.17-.06-7.15.6-6.25,3.92-11.35,10.65-11.58a.38.38,0,0,0,0-.75c-9.58.33-12.52,10-11.54,18.24.34,3,2,5.84,5.42,5.55,3.85-.33,5.44-4.29,6.1-7.53.09-.47-.63-.67-.72-.2Z"/><path d="M215.76,93.16a3.79,3.79,0,0,0,3.07,1c1.26-.11,2.3-.89,3.53-1.07,4.38-.64,5.83,2.58,7.09,5.35s4.48,7.76,3.9,10.79q-6.51,3.92-6.85-.41l-.17-1a7.78,7.78,0,0,0-1.15-2.82c-.27-.41-.92,0-.65.37,1.76,2.67.75,7.5,4.87,8.12,2.72.41,4.55-1.69,4.7-4.24.12-2-.87-3.93-1.65-5.72-1.14-2.68-2.09-5.67-3.72-8.11a6.92,6.92,0,0,0-3.89-3.1c-2.84-.7-5.89,2.48-8.55.36-.37-.3-.9.23-.53.53Z"/><path d="M226.8,111.33c.12,1.84,1,10.69-2.91,9.44-.46-.15-.66.57-.2.72,4.86,1.57,4-7.83,3.86-10.16,0-.48-.78-.48-.75,0Z"/><path d="M200,114.83a8.25,8.25,0,0,0,6.52,11c.47.09.67-.64.2-.72a7.5,7.5,0,0,1-6-10c.15-.46-.57-.66-.73-.2Z"/><path d="M204.88,124.34a21.43,21.43,0,0,0,6.17,13.11.38.38,0,0,0,.53-.53,20.59,20.59,0,0,1-6-12.58c0-.48-.8-.48-.75,0Z"/><path d="M227.16,119.33l-.27,16.34a.38.38,0,0,0,.75,0l.27-16.34a.38.38,0,0,0-.75,0Z"/><path d="M211.21,138.09c4.2,1.49,13.79,3.79,16.39-1.39.21-.43-.43-.81-.65-.38-2.39,4.77-11.85,2.35-15.54,1-.45-.16-.65.57-.2.73Z"/><path d="M190.28,62.52c-3.43,6.73,0,13.48,4.86,18.46,3.75,3.85,9.94,10.09,13.26,2.52,2.73-6.19,4.68-15.38.27-21.31s-12.82-5.54-17.46-.06c-.31.36.22.9.54.53C196.5,57,205.24,57.18,208.9,64c2.87,5.32,1.36,11.78-.47,17.17a21.49,21.49,0,0,1-1.22,3.18q-5.44,2.46-8.61-1.07a27,27,0,0,1-4-4c-4.05-4.57-6.63-10.5-3.63-16.38.22-.43-.43-.81-.65-.38Z"/><path d="M193.34,99.46c2.71-5.06-.22-8.69-4.78-10.87-10.77-5.15-11.61-24.5-3.16-31.9.36-.32-.17-.85-.53-.53-6.09,5.33-6.74,13.3-4.94,20.8.76,3.16,1.8,6.79,4,9.3,3.62,4.15,12.92,5.06,8.77,12.82-.23.42.42.8.64.38Z"/><path d="M185.8,55.74c9.34-3.11,21.87-6.85,29.77,1.5,3.11,3.28,4.57,7.91,6.46,11.92A119.14,119.14,0,0,0,228.2,81a27.3,27.3,0,0,0,6,7c2.83,2.35,5.27,4.08,6.19,8a28.71,28.71,0,0,1,.26,7.35c-.09,3-.26,6.18.91,9,1.57,3.79,6,5.31,7.09,9.32a.37.37,0,0,0,.72-.2c-1.14-4.06-5.46-5.65-7-9.5-2-4.69-.36-9.86-1-14.75-.52-4.08-2.34-6.35-5.46-8.87-4.65-3.77-7.43-8.13-10.17-13.39-3.75-7.18-6-17.24-13.73-21.27-8.4-4.42-18-1.43-26.4,1.35-.46.15-.26.88.2.73Z"/><path d="M249,121.28c.18,4.22,2,7.46,4.18,11s4.62,7.55,3.67,12.12c-.57,2.77-2.28,5.21-3.53,7.7-.75,1.49-1.88,3.56-1.9,5.25,0,2.52.61,1.69-.2-.39a20,20,0,0,0-6.62-8.57c-.38-.29-.91.23-.53.53a19.68,19.68,0,0,1,7.42,11.68c.09.41.79.33.74-.1-.83-7.2,6.1-12.08,5.57-19.19-.55-7.5-7.73-12.35-8-20,0-.48-.77-.48-.75,0Z"/><path d="M234.49,109.62c2.38,5.25,3.51,11.36,4.86,16.95a53.57,53.57,0,0,1,1,21.72c-.08.47.65.68.72.2a52.77,52.77,0,0,0-.51-20.23c-1.38-6.26-2.72-13.16-5.38-19-.2-.44-.84-.06-.65.38Z"/><path d="M240.69,148.29a84.89,84.89,0,0,1-3.45,13.48c-1.28,3.74-2.76,11.76-6.2,14-.4.27,0,.92.38.65,3.22-2.13,3.86-7,5.09-10.43a101.59,101.59,0,0,0,4.9-17.53c.08-.48-.64-.68-.72-.2Z"/><path d="M230.93,175.55c-.91-.65,1.64-4.28,2-4.87a.38.38,0,0,0-.59-.46c-.55.46-3.93,3.94-4.5,2.36-.09-.25,3.33-3,3.7-3.28s-.1-.82-.46-.59c-.94.61-3.85,3.06-4.7,2.45s.66-1.31,1.24-1.85l2.34-2.18a.38.38,0,0,0-.45-.59l-2.67,1.68c-.26.16-1,.85-1.33.83l-1-.79.91-.41a16,16,0,0,0,4.66-3.36c.33-.34-.2-.87-.54-.53-1.66,1.7-3.49,2.42-5.41,3.65-.63.4-1.35,1.08-1,1.93,1.05,2.35,5.74-1.73,6.72-2.35l-.46-.59-2.67,2.49c-.53.49-1.48,1.08-1.79,1.77s-.32.91.07,1.34,1,.39,1.64.2c1.62-.51,3.35-2.12,4.78-3.05l-.45-.58c-.83.73-6,4-4.31,5.63,1.54,1.49,5.23-2.86,6.17-3.65l-.59-.45c-.76,1.36-3.65,4.52-1.7,5.9.4.28.77-.37.38-.65Z"/><path d="M230,162.62a6.87,6.87,0,0,1-2.71,0c-1.69-.54.39-1.56,1.08-2a33.73,33.73,0,0,1,4.78-2.37c.44-.18.25-.91-.2-.73a36,36,0,0,0-4.29,2.06c-.88.5-2.73,1.25-3,2.35-.53,2,3.64,1.5,4.57,1.36.48-.07.28-.79-.2-.72Z"/><path d="M227.72,113.1c.82,6.81,4.84,12.5,6.46,19.1a40.3,40.3,0,0,1-2.28,25.45c-.19.44.46.83.65.38A41.31,41.31,0,0,0,235.79,137c-1-8.48-6.32-15.5-7.32-23.85-.06-.48-.81-.48-.75,0Z"/><path d="M244.63,148.26a6.5,6.5,0,0,0-2.5-1.43c-.46-.15-.65.58-.19.72a5.84,5.84,0,0,1,2.16,1.24c.36.33.89-.2.53-.53Z"/><path d="M235.45,142.15a9.37,9.37,0,0,0-7.2-6.27c-.47-.07-.67.65-.2.72a8.64,8.64,0,0,1,6.68,5.75c.17.45.9.25.72-.2Z"/><path d="M234.35,109.42a.38.38,0,0,0,0-.75.38.38,0,0,0,0,.75Z"/><path d="M188.46,118.25c-1.81,8.81-3.86,17.6-4.77,26.55-.05.48.7.48.75,0,.9-8.88,2.95-17.61,4.75-26.35.09-.47-.63-.67-.73-.2Z"/><path d="M183.83,145c-3,5.54-5.86,11.25-9.15,16.64a29.72,29.72,0,0,1-8.52,8.71,21.54,21.54,0,0,0-4.37,3.7c-1.68,2.07-2.92,5.18-1.62,7.79.57,1.14,1.5,2.38,2.9,1.9.73-.25.42-.76.62-1.29.92-2.35-.73-3.76,1.72-5.46,1-.7,1.65-2.3,2.21-.13.18.7-1.71,2.58.38,3s5.25-5.61,6.2-6.86c3.92-5.17,7.87-10.3,11.39-15.75.26-.41-.39-.78-.65-.38-3.19,4.94-6.74,9.62-10.29,14.3-.93,1.22-3.77,6.22-5.09,5.6-.89-.43-.08-1.1-.13-2.29a.38.38,0,0,0-.48-.36c-2.57.86-5.3,2.17-6.14,5-.43,1.46.86,4.32-1.22,1.38-2.94-4.16,2.54-7.77,5.63-10,8.48-6.08,12.39-16.22,17.25-25.15.23-.43-.41-.8-.64-.38Z"/><path d="M196.7,120.3c-3,12.25-4.92,25.17-11.64,36.05-.25.41.39.79.65.38,6.76-11,8.73-23.89,11.71-36.23.12-.47-.61-.67-.72-.2Z"/><path d="M240,150.32c1.64,6.78,3.31,13.61,3.84,20.59.54,7.2-.43,14.29-1.86,21.35-2.65,13.07-5.78,26.05-8.83,39-.11.47.61.67.72.2,3.34-14.18,7-28.41,9.55-42.76,2.39-13.35.46-25.58-2.7-38.61-.11-.47-.83-.27-.72.2Z"/><path d="M233.37,231.88c.36.36,3.93,3.49,3.91,4-.09,2-3.39,2-4.65,2.2-3.23.48-6.29-.12-9.48.16-1.8.15-1.18.66-3.54.76-5.13.2,0-.35-3.43-.61a5.21,5.21,0,0,0-3.27.56c-3.16,1.15,4.2,3.42-5.77.39-.39-.11-.65-.69-1.07-.73-2-.21-4.2-.25-6-1.44.14.09-.44-1-.79-1.21,2.68,1.46-5-2.9-2.33-.91-5.23-3.91-1.12-4,.87-6,.34-.35-.19-.88-.53-.53-2.32,2.37-7.77,3.78-3.17,6.91a3.12,3.12,0,0,0,1.36.26,7.14,7.14,0,0,1,3.94,1.86c1.14,1,0,1.36,1.53,2.07.46.21,1.07,0,1.5.09q2.53-1.31,5.06.94c.18.14.36.26.55.38,1.86.45,1.79.62,3.67-.09.29-.23.58-.47.85-.73,2.12-1.11,4-1,5.61.18.45,0,1,.34,1.46.32,1.79-.07.94-.68,2.54-1.15,2.74-.82,4.57-.2,7.17-.28a27.16,27.16,0,0,0,9.68-2,.38.38,0,0,0,.07-.59l-5.21-5.27a.38.38,0,0,0-.53.53Z"/><path d="M198.1,228a44.39,44.39,0,0,1-3.43-16.12c0-.48-.77-.48-.75,0a44.89,44.89,0,0,0,3.46,16.32c.18.44.91.25.72-.2Z"/><path d="M194.76,211.42a142.47,142.47,0,0,1,8-55.45c.16-.45-.56-.65-.72-.2A142.93,142.93,0,0,0,194,211.42c0,.48.78.48.75,0Z"/><path d="M203,155.78a201.9,201.9,0,0,0,7.41-19c.15-.46-.57-.65-.72-.2a198.1,198.1,0,0,1-7.34,18.82c-.2.43.45.81.65.38Z"/><path d="M220.7,240.19c-2.48,8.82-4.82,17.64-5.8,26.77-.12,1.17-2,11,2.43,9.1,1.45-.62,1.63-3,1.92-4.19.67-2.87,1-5.89,3.31-8.06,1.21-1.14,2.79-1.66,4.07-2.68a6.35,6.35,0,0,0,2.54-6c-.41-5.81-3.42-9.59.22-15.31.26-.4-.39-.78-.65-.37-2.92,4.58-1.93,7.65-1.08,12.59.62,3.6.71,7-2.5,9.13-.7.47-1.5.82-2.17,1.33a9.48,9.48,0,0,0-3.23,4.26c-.63,1.57-1.17,10-4.58,5.93-1.11-1.34,1.15-10.92,1.39-12.33a192.93,192.93,0,0,1,4.86-20,.38.38,0,0,0-.73-.2Z"/><path d="M205.41,239c-2.08,9.1-4.65,18.23-6.27,27.43-.31,1.77-1.28,9.77,3,7.77,1.34-.63,1.72-3.1,2.35-4.17,1.84-3.16,5.39-4.8,7.5-7.75a11.58,11.58,0,0,0,2.17-7.18c-.22-5.89-3.39-10.16,1.66-15.3.34-.35-.19-.88-.53-.53a10.88,10.88,0,0,0-3.36,9.36c.68,4.92,2.64,8.49-.6,13.13-1.59,2.28-3.93,3.73-5.8,5.74-.75.8-1.6,2.93-2.31,3.44-3.21.49-4.39-.4-3.54-2.65a19.06,19.06,0,0,1,.59-3.36c.37-1.85.84-3.68,1.26-5.52l4.64-20.21c.1-.47-.62-.67-.73-.2Z"/><path d="M200.94,258.39a5.64,5.64,0,0,0,6.58.8c2.72-1.49,3.93-4.51,5-7.25.17-.45-.56-.64-.73-.2-1.55,4-5.31,10.39-10.32,6.12-.37-.31-.9.22-.53.53Z"/><path d="M217.11,257.53c2,.63,4.48,1.22,6.39-.15s3-4.65,4-6.79c.22-.43-.43-.81-.64-.38a51.52,51.52,0,0,1-2.63,5.19c-1.69,2.6-4.39,2.19-7,1.41a.37.37,0,0,0-.19.72Z"/><path d="M211.88,138.38a213.79,213.79,0,0,0-13.19,70.37.38.38,0,0,0,.75,0,213.47,213.47,0,0,1,13.16-70.18c.17-.45-.56-.64-.72-.19Z"/><path d="M214.35,139.41a181.63,181.63,0,0,0-7.6,68.68c0,.47.79.48.75,0a181.38,181.38,0,0,1,7.57-68.48c.15-.46-.58-.66-.72-.2Z"/><path d="M217.68,140.14c-3.83,23.09-10.7,48.09-5.11,71.41.11.47.84.27.72-.2-5.56-23.2,1.3-48,5.12-71,.08-.48-.65-.68-.73-.2Z"/><path d="M221.35,139.86a290.75,290.75,0,0,0-1,69.2c0,.47.8.48.75,0a290.13,290.13,0,0,1,1-69c.07-.47-.66-.68-.72-.2Z"/><path d="M224.16,139.4l3.65,20.45c.08.47.8.27.72-.2l-3.65-20.45c-.09-.47-.81-.27-.72.2Z"/><path d="M228,163.58v.84a.38.38,0,0,0,.75,0v-.84a.38.38,0,0,0-.75,0Z"/><path d="M228.76,174.33a237.1,237.1,0,0,1-.21,34.75c0,.48.71.48.75,0a237.1,237.1,0,0,0,.21-34.75c0-.48-.78-.48-.75,0Z"/><path d="M226.31,138.12l6.85,14.58c.21.43.85.05.65-.38L227,137.74c-.21-.43-.86-.05-.65.38Z"/><path d="M238.11,159.92A308.54,308.54,0,0,1,235,209.17c-.07.47.65.68.72.2a307.58,307.58,0,0,0,3.19-49.45.38.38,0,0,0-.75,0Z"/><path d="M231.37,83c7-7.36,15.71-12.58,24.82-17,10-4.87,20.56-10.09,31.89-10.45.48,0,.49-.77,0-.75-10.94.35-21,5.2-30.73,9.82s-19,10-26.51,17.85c-.34.34.19.88.53.53Z"/><path d="M242,108.78C252,101.92,260.9,93,269.28,84.23c8.06-8.45,14.41-17.85,18.37-28.88.16-.46-.56-.65-.72-.2C282.8,66.64,276,76.23,267.56,84.94c-8.05,8.26-16.44,16.68-26,23.19-.4.27,0,.92.38.65Z"/><path d="M241.81,108.48c17.72,9.28,34.52,20.61,51.58,31,.41.25.79-.4.38-.65-17.06-10.41-33.86-21.75-51.58-31-.42-.22-.8.43-.38.65Z"/><path d="M257.71,144.17c10.45,4.17,24.91-1.51,34.67-5.48.44-.18.24-.9-.2-.72-9.62,3.91-24.1,9.54-34.27,5.48-.45-.18-.65.54-.2.72Z"/><path d="M187.81,117.38c-7.37,13.54-21.41,23.09-34.36,30.78a.38.38,0,0,0,.38.65c13-7.74,27.21-17.42,34.63-31,.23-.43-.42-.81-.65-.38Z"/><path d="M152.75,149.57a42.56,42.56,0,0,0,29.1-.58c.45-.17.26-.89-.2-.72a41.83,41.83,0,0,1-28.7.57c-.46-.15-.66.57-.2.73Z"/><path d="M191.22,145.51c5-4.7,12.06-6.43,16.28-12,.3-.38-.35-.75-.64-.37-4.16,5.46-11.27,7.18-16.17,11.82-.35.34.18.87.53.53Z"/><path d="M130.84,64.44c8.56,1.57,16.41,7.06,24.52,10.22,8.74,3.4,17.74,6.07,26.73,8.73a.37.37,0,0,0,.2-.72c-9-2.67-18-5.33-26.73-8.73-8.1-3.16-15.93-8.65-24.52-10.22-.47-.09-.68.64-.2.72Z"/><path d="M130.09,64.39c7.61,11.15,16.68,21.36,26,31.13,9,9.5,20.21,14,32.41,18.08.46.15.66-.57.2-.72-12.88-4.29-23.95-9.09-33.33-19.22-8.72-9.42-17.36-19-24.6-29.65-.27-.39-.93,0-.65.38Z"/><path d="M183,58.44a35,35,0,0,0-5.47-10.3c-.29-.38-.94,0-.65.38a34.37,34.37,0,0,1,5.39,10.12c.15.45.88.26.73-.2Z"/><path d="M177,48.19l5.47,2.42c.44.2.82-.45.38-.64l-5.48-2.43c-.43-.19-.82.45-.37.65Z"/><path d="M183.94,50.4l.87-5.75c.07-.48-.65-.68-.72-.2l-.87,5.75c-.07.47.65.67.72.2Z"/><path d="M184.32,44l3.61,3.52a.38.38,0,0,0,.53-.53l-3.61-3.52c-.35-.33-.88.2-.53.53Z"/><path d="M188.89,47.68l2.29-6.07c.17-.46-.55-.65-.72-.2l-2.29,6.07c-.17.46.55.65.72.2Z"/><path d="M190.86,41.6l5.61,4c.39.28.77-.37.38-.65l-5.61-4c-.39-.28-.77.37-.38.65Z"/><path d="M197.27,45.51l2.12-5.38c.17-.44-.55-.64-.73-.2l-2.12,5.38c-.18.45.55.65.73.2Z"/><path d="M198.9,40.06l3.63,4c.32.35.85-.18.53-.53l-3.63-4c-.32-.36-.85.17-.53.53Z"/><path d="M203.21,44.2l3.33-4c.31-.37-.22-.9-.53-.53l-3.33,4c-.31.37.22.91.53.53Z"/><path d="M206.33,39.53l.59,11.76c0,.48.78.48.75,0l-.59-11.76c0-.48-.77-.48-.75,0Z"/><path d="M165.39,176.75l.94,6a.38.38,0,0,0,.69.09l1.72-4c.18-.44-.46-.82-.65-.38l-1.72,4,.69.09-.95-6c-.08-.47-.8-.27-.72.2Z"/><path d="M173.51,173.81c.92,2.67,1.86,7.41,0,10a6.5,6.5,0,0,1-4.58,2.42c-2.3.39-8,1-7.32-3.31.08-.48-.65-.68-.72-.2-.84,5.39,6.57,4.85,9.85,3.9,5.49-1.6,5-8.61,3.46-13-.16-.45-.88-.25-.72.2Z"/><path d="M173.68,184.91c-.18,4.86.08,10-.56,14.81-1.11,8.38-14.8,10.63-19.17,3.55-.26-.41-.91,0-.65.38,3.46,5.61,11.14,5.52,16.51,2.66a7.17,7.17,0,0,0,3.92-5.31c1-5.14.51-10.87.7-16.09,0-.48-.73-.48-.75,0Z"/><path d="M160.83,183.61c.77,1.51-2.24,1.68-2.82,1.66a6.32,6.32,0,0,1-2.55-.64c-.43-.2-.81.45-.38.65a6.91,6.91,0,0,0,4.91.5c1.16-.34,2.12-1.31,1.48-2.55-.22-.43-.87,0-.64.38Z"/><path d="M131.55,153.4l4,5.15,2,2.58.66.86q1.74,1.42-.69,3.07a.38.38,0,0,0-.45.05,7.69,7.69,0,0,1-4.88,2.17c-.48,0-.48.79,0,.75a9,9,0,0,0,2.6-.54c1.17-.45,1.9-1.37,3.18-1.41,1,0,2,.54,2.62-.65.74-1.37-1.11-3-1.85-4l-6.64-8.59c-.3-.38-.82.15-.53.53Z"/><path d="M128.07,156.42a.83.83,0,0,0-.32,1.47c.71.45,1.42-.48,1.08-1.13-.23-.43-.88,0-.65.37.06.12-.09,0,.09,0,.47-.07.27-.79-.2-.72Z"/><path d="M123.32,156.26a12.72,12.72,0,0,1,18.58-3.62c.4.28.77-.37.38-.64a13.47,13.47,0,0,0-19.61,3.88c-.25.41.39.79.65.38Z"/><path d="M140.94,150a5.64,5.64,0,0,1,3-4.68c.43-.23.05-.88-.37-.65a6.4,6.4,0,0,0-3.35,5.33c0,.48.73.48.75,0Z"/><path d="M144.3,145.15c1.49,4.27,4.57,6.74,8.42,8.87.43.23.81-.41.38-.65-3.66-2-6.65-4.34-8.07-8.42-.16-.46-.88-.26-.73.2Z"/><path d="M152.68,154.39a2.32,2.32,0,0,1-.83,2.58c-.38.28,0,.93.38.65a3.09,3.09,0,0,0,1.17-3.43c-.15-.46-.87-.26-.72.2Z"/><path d="M123,154.94l-6.14-3.6a.38.38,0,0,0-.38.65l6.14,3.6a.38.38,0,0,0,.38-.65Z"/><path d="M116,151.54a25.27,25.27,0,0,1-3.68,11c-.25.41.4.79.65.38a26.27,26.27,0,0,0,3.78-11.33c0-.48-.71-.48-.75,0Z"/><path d="M112.26,162.61c-.81,1.7-1.63,3.6-1,5.49a3.12,3.12,0,0,0,3.16,2.2c.48,0,.49-.78,0-.75-1.65.1-2.6-1.28-2.64-2.82a8.4,8.4,0,0,1,1.1-3.74c.21-.44-.44-.82-.64-.38Z"/><path d="M164,208.43c1.35,1.76,3.53,4.55,3.64,6.85.25,4.87-3.52,5-6.37,5.49a135.59,135.59,0,0,1-15.18,1.59,145,145,0,0,1-28.61-1.5c-.48-.07-.68.65-.2.72a144.15,144.15,0,0,0,40.33.48c3-.4,9.05-.28,10.65-3.6s-1.75-8-3.62-10.41c-.29-.38-.94,0-.64.38Z"/><path d="M113.28,179.25c-5.3,5.5-5.91,14.95-7,22.13-1,6.13-2.84,15.08,0,20.91,1.73,3.6,6,4.15,9,1.6,6.16-5.31.6-15.76,1.12-22.2,0-.48-.71-.48-.75,0-.42,5.18,1.91,9.93,1.72,15.06A8.77,8.77,0,0,1,113.7,224q-7.74.15-7.62-5.7a48.28,48.28,0,0,1-.13-7.51,110.73,110.73,0,0,1,2.39-16.69c1-5.08,1.72-10.47,5.47-14.36.34-.35-.19-.88-.53-.53Z"/><path d="M105,219.9a15.88,15.88,0,0,0,.38,10.19c.82,2.11,2.67,5.74,5.22,6.18a2.1,2.1,0,0,0,2.52-2.55c-.14-1.07-2.32-2.58-2.27-3.1.28-2.87,1.44,0,1.51,0,2.65.85-1,.44,1.8,1a.38.38,0,0,0,.47-.36l.3-7.53c0-.48-.73-.48-.75,0,0,.72.25,6-.25,6.28-1,.54-1.86-1.68-2.71-2a1.4,1.4,0,0,0-2.09,1,2.3,2.3,0,0,0,.63,1.68c1,1.41,1.94.44.25,2.49s-1.69.8-2.7-.83a15.07,15.07,0,0,1-1.59-12.18.37.37,0,0,0-.72-.2Z"/><path d="M112.52,234.59c1.51,8.24,1.49,20.61,8.06,26.77,3.5,3.29,10.61,4.53,12.57-1.07,1.26-3.62-.38-8.83-1.32-12.34-.57-2.16-2.67-5.53-2.6-7.6.15-4.53,5.33-3,8.33-2.94,5,.18,16.49-1.51,16.13,5.85-.29,5.88-.7,11.76-1.05,17.64,0,.48.72.48.75,0l.94-15.78c.13-2.16.9-5.6-1.12-7.27-2.29-1.88-8-.91-10.75-1l-8.82-.32c-1.15-.05-3.75-.67-4.81.25s-.83,2-.53,3.18c1.2,4.85,3.35,9.29,4.1,14.33l.37,3.39q-3.47,7.71-8.41,5.17a10.1,10.1,0,0,1-3.72-2.5c-2.4-2.48-3.53-5.95-4.29-9.24-1.28-5.51-2.09-11.15-3.1-16.71-.09-.47-.81-.27-.73.2Z"/><path d="M166.93,219.42a60.42,60.42,0,0,1,1.1,23.39,59.11,59.11,0,0,1-2.42,9.88,49.78,49.78,0,0,1-2.09,5.27c-.28.62-.59,1.22-.93,1.81q-2.62,5.43-9.3.79a.38.38,0,0,0-.73.19,4.65,4.65,0,0,0,6.63,3.27c3.49-1.42,5-5.52,6.27-8.74a60.38,60.38,0,0,0,2.19-36.06c-.11-.47-.84-.27-.72.2Z"/><path d="M152.47,261.38c-2.12,4.59-4.57,10.41-1.28,15.08,3.81,5.41,14,3.2,19.37,3,3.72-.13,8.76-1.22,5-6-4.05-5.11-12-5.06-16.7-9.41-.36-.33-.89.2-.53.53a20,20,0,0,0,5.94,3.69c2.11.9,4.34,1.53,6.39,2.56A15.78,15.78,0,0,1,174,273q1.3,6.06-2.48,5.68c-1.93.59-4.86.11-6.88.16a57.4,57.4,0,0,1-6.29.09c-10.63-.94-8.33-10.54-5.26-17.19.2-.43-.44-.81-.64-.38Z"/><path d="M121,261.35c-1.4,2.61-16,24.06-6.14,23.84,2.31-.05,4.47-2.48,6.1-3.81a98,98,0,0,0,8.17-6.93c3.74-3.79,6-8.53,4.45-13.83a.37.37,0,0,0-.72.2c2.78,9.4-6.9,15.62-13.16,20.63q-2.49,3.94-5,.11c-2.84-.88-3.27-2.37-1.29-4.45.77-1.56,1.65-3.08,2.48-4.61l5.79-10.77c.22-.42-.42-.8-.65-.38Z"/><path d="M243.14,312c-46.57,32-108.91,39.21-159.93,13.44-.43-.22-.81.43-.38.65,51.26,25.88,113.89,18.69,160.69-13.44.39-.28,0-.93-.38-.65Z"/><path d="M40,229.7a176.23,176.23,0,0,0,21.15,72c.24.42.88,0,.65-.38a175.27,175.27,0,0,1-21-71.63c0-.48-.79-.48-.75,0Z"/><path d="M49.2,133.31c-6,14.8-8.27,30.54-9.52,46.35-1.3,16.45-3,33.43-.4,49.82.08.48.8.28.73-.2-2.55-16.31-.87-33.25.42-49.62,1.24-15.75,3.57-31.42,9.49-46.15.18-.45-.54-.65-.72-.2Z"/><path d="M49.53,133.59C64.93,99.84,83.1,65.9,113.82,43.67c.38-.28,0-.93-.38-.64C82.6,65.34,64.35,99.32,48.88,133.21c-.19.44.45.82.65.38Z"/><path d="M114.77,43.66C143.12,24.29,176.6,9.26,211.64,16c.47.09.67-.63.2-.72C176.6,8.5,142.92,23.52,114.39,43c-.39.27,0,.92.38.65Z"/><path d="M128.79,62.56c12.76-12.26,25.73-24.13,42.26-31.07,15.72-6.6,32.71-9.29,49.46-11.94a.37.37,0,0,0,.16-.62,12.41,12.41,0,0,0-8.75-3,.38.38,0,0,0,0,.75,10.23,10.23,0,0,1,4.45.51q4.31,2.25.46,2.18c-1.74.91-5,.81-7,1.14-4.65.79-9.3,1.64-13.91,2.64a143,143,0,0,0-25.2,7.64c-16.62,7-29.66,18.89-42.49,31.23-.35.33.18.86.53.53Z"/><path d="M211.64,14.39a35.11,35.11,0,0,1,26.07,4A32.48,32.48,0,0,1,241.39,21c2,1.6,3.58,2,.11,4.28-4.54,3-12.26,4-17.53,3.73a33,33,0,0,1-18.84-7.14c-.37-.29-.91.23-.53.53a33.85,33.85,0,0,0,20.14,7.4,36.92,36.92,0,0,0,12.56-2.17c1.45-.49,7.22-1.49,7.58-3.6.56-3.27-8.68-7.4-10.89-8.37a36.29,36.29,0,0,0-22.55-2c-.47.11-.27.83.2.73Z"/><path d="M209.77,14.78l1.87-.5a.37.37,0,0,0-.2-.72l-1.87.5a.37.37,0,0,0,.2.72Z"/><path d="M128,62.09a235.33,235.33,0,0,0-51,135.67c0,.48.73.48.75,0A234.44,234.44,0,0,1,128.51,62.62c.3-.37-.23-.91-.53-.53Z"/><path d="M76.56,197.84a254.67,254.67,0,0,0,10,57.39c4.45,15,10.36,29.36,24.81,37.12,29.12,15.67,67.87,12.3,96.62-2.14.43-.22.05-.87-.38-.65-28.52,14.32-67,17.68-95.86,2.15-15.47-8.32-21-24.35-25.52-40.29a254.13,254.13,0,0,1-8.94-53.58c0-.48-.78-.48-.75,0Z"/><path d="M288.14,238.86c-3.3-1-1.32-4.75,1-5.45a6.41,6.41,0,0,1,4.36.29c1.88.86,3.11,3.93.44,4.78a4.07,4.07,0,0,1-2.19,0l-.47-.13q-1.08-3.71,1.26-2.15c.44.2.82-.45.38-.65-1.15-.52-2.79-1.14-3.79,0a2,2,0,0,0,.75,3c2.27,1.51,6.85.93,6.38-2.58s-5.31-4.23-8-3.06c-2.85,1.25-3.82,5.58-.3,6.65a.37.37,0,0,0,.19-.72Z"/><path d="M270.91,230.77c-1.21-1.21-2.59-2.93-2-4.78.85-2.61,4-1.83,5.65-.58s2.38,3.86-.2,4.57a3,3,0,0,1-2.64-.51,2.07,2.07,0,0,1-.88-1.7c-.19-.67.15-1,1-1.07,1-.95,1.56-.63,1.59,1-.12.47.61.67.72.2.77-3.06-4-3.4-4.16-.3-.21,3.29,4.62,4.38,6.38,1.94,2.18-3-2.63-6.28-5.32-6a3.26,3.26,0,0,0-3,2.78c-.32,2,1,3.69,2.28,5,.35.34.88-.19.54-.53Z"/><path d="M236.58,291.7c17.61-3.7,25.88-24.58,36.74-36.74.32-.36-.21-.89-.54-.53-10.86,12.17-18.93,32.88-36.4,36.55-.47.1-.27.82.2.72Z"/><path d="M237.24,290.56c.87-4.62,4.72-7.84,7.79-11.16l8.65-9.35c5.64-6.09,11.1-12.5,18.78-16.07.43-.21.05-.85-.38-.65-8.23,3.82-14,10.89-20.07,17.42q-4.92,5.33-9.84,10.64c-2.52,2.73-4.94,5.21-5.65,9-.09.48.63.68.72.2Z"/><path d="M61.12,301.86A103,103,0,0,0,82.63,326.1c.37.3.91-.23.53-.53a102.17,102.17,0,0,1-21.39-24.09c-.26-.41-.91,0-.65.38Z"/><path d="M122.89,156.86C126,162.47,129.18,172,137.25,171a6.89,6.89,0,0,0,5.46-3.62,6,6,0,0,0,.44-3.71c-.58-3.88-1.55-6.55-.45-10.56a.37.37,0,0,0-.72-.2,16,16,0,0,0-.55,7c.15.94.51,1.81.67,2.73q1.58,4.23-2.31,6.83a6.13,6.13,0,0,1-4.21.82c-6.58-.44-9.31-8.81-12-13.76-.23-.42-.88,0-.65.38Z"/><path d="M142.42,153.38c6.54,2.32,11,5.77,13.08,12.62a25.43,25.43,0,0,1-1.39,18.17c-.2.44.45.82.65.38a26.08,26.08,0,0,0,.93-20.3c-2.44-6.34-6.88-9.39-13.07-11.59-.46-.17-.65.56-.2.72Z"/><path d="M154.13,184.29c-1.82,10.53-18,10.8-25.86,8.4-4.42-1.36-9.19-3.89-11.77-7.91-3-4.76-2.14-10.53-.63-15.64a.37.37,0,0,0-.72-.2c-1.59,5.35-2.43,11.24.71,16.22,2.65,4.22,7.58,6.84,12.21,8.25,8.28,2.54,24.88,2.09,26.78-8.92.08-.47-.64-.67-.72-.2Z"/><path d="M116.07,169c1.3-3.79,2.47-11.47,7-12.5.47-.11.27-.83-.2-.73-2.32.54-3.6,2.23-4.47,4.36-1.17,2.82-2,5.79-3,8.67-.15.46.57.65.73.2Z"/><path d="M125,160.17a27.07,27.07,0,0,0-8.3,5.42c-.35.33.18.86.53.53a26.19,26.19,0,0,1,8-5.22c.43-.19.24-.91-.2-.73Z"/><path d="M142.45,157.86a33,33,0,0,1,9.6,2.31c.45.18.65-.55.2-.73a33.71,33.71,0,0,0-9.8-2.33c-.48,0-.47.71,0,.75Z"/><path d="M126.2,163.33l-6.89,5.78c-1.72,1.44-3.71,2.76-4.69,4.84-.21.43.44.81.64.38,1-2.22,3.43-3.73,5.27-5.27l6.2-5.2c.37-.31-.16-.83-.53-.53Z"/><path d="M142.17,160.62c4.55,1.52,9.47,2.33,13.07,5.77.35.34.88-.19.53-.53-3.7-3.54-8.71-4.39-13.4-6-.46-.16-.66.57-.2.72Z"/><path d="M128.07,165.38c-2.64,3-5.19,6.14-8,9-2.24,2.21-4.37,4.23-5.07,7.4-.11.47.61.67.72.2.84-3.77,4-6,6.48-8.71,2.22-2.37,4.3-4.88,6.44-7.33.31-.36-.22-.9-.53-.53Z"/><path d="M143,163.81l6.88,4.57c2.57,1.73,5,3.48,6,6.57.14.46.87.26.73-.2a10.76,10.76,0,0,0-4-5.4c-2.9-2.26-6.14-4.16-9.19-6.19-.4-.27-.78.38-.38.65Z"/><path d="M142.14,167.14a53.73,53.73,0,0,1,12,16.41c.21.44.85.06.65-.38a54.17,54.17,0,0,0-12.1-16.56c-.35-.33-.88.2-.53.53Z"/><path d="M140.81,169.25c3.26,7.08,5.23,14.8,7.61,22.21.14.46.87.26.72-.2-2.39-7.46-4.39-15.25-7.68-22.39-.2-.44-.85-.05-.65.38Z"/><path d="M138.81,169.89c.8,8.05-1.7,16.11,1,24,.16.45.88.26.72-.2-2.7-7.75-.2-15.79-1-23.75-.05-.48-.8-.48-.75,0Z"/><path d="M136.22,170.78c.08,7.83-5,14.52-4.19,22.43.05.47.8.48.75,0-.83-7.88,4.27-14.61,4.19-22.43a.38.38,0,0,0-.75,0Z"/><path d="M132.85,169.92c-1.06,4.12-3.58,7.45-5.54,11.16a56.54,56.54,0,0,0-4,9.88.37.37,0,0,0,.72.2,57.15,57.15,0,0,1,5.3-12.13c1.71-2.9,3.42-5.63,4.27-8.91a.38.38,0,0,0-.73-.2Z"/><path d="M129.73,168.28c-4.66,5.54-9.57,11-12,17.94-.16.45.56.65.72.2,2.38-6.83,7.23-12.17,11.8-17.61.31-.37-.22-.9-.53-.53Z"/><path d="M137.17,154a.38.38,0,0,0,0-.75.38.38,0,0,0,0,.75Z"/><path d="M208.56,289.89a170.07,170.07,0,0,0,38.94-30.62c.33-.35-.2-.88-.53-.53a169.46,169.46,0,0,1-38.79,30.5.38.38,0,0,0,.38.65Z"/><path d="M248.42,259.18c12.57-16,17.78-46.54,40.94-51.19,18.52-3.72,9,27,6.2,35.29a234,234,0,0,1-15,35.09c-.23.43.42.81.64.38A234.24,234.24,0,0,0,298,238.26c2.33-7.58,8.23-26.89-2.91-30.87-9.15-3.27-20,6.85-25,13.26-9.06,11.67-13,26.36-22.16,38-.29.38.24.91.53.53Z"/><path d="M238.44,315.84c17-9.07,30.37-22.93,42.68-37.52.3-.36-.22-.9-.54-.53-12.26,14.54-25.57,28.36-42.52,37.4-.43.23-.05.87.38.65Z"/><path d="M87.09,88.34c-13.07,13.39-17.9,31.54-22.27,49.2a.38.38,0,0,0,.69.29c5.66-8.9,11.68-17.68,17-26.81,3.92-6.79,6.54-14.13,4.72-22-.11-.47-.83-.27-.72.2,2.33,10-2.84,18.69-8,26.84q-3.64,5.76-7.32,11.51L68,132.52l-2.09,3.29c.16.45.26.21.29-.72.17-3.67,2-7.87,3-11.43,1.18-4.07,2.49-8.11,4.07-12A68.42,68.42,0,0,1,87.62,88.87a.38.38,0,0,0-.53-.53Z"/><path d="M59.6,203c-7.28,19.37,1.22,38.87,11.33,55.42.25.41.9,0,.65-.38-10-16.4-18.48-35.61-11.26-54.84.17-.45-.56-.64-.72-.2Z"/><path d="M61.06,201.88A198.07,198.07,0,0,0,71.6,253.74c.15.45.88.26.72-.2a197.3,197.3,0,0,1-10.51-51.66c0-.47-.78-.48-.75,0Z"/><path d="M71.59,253.91l.68,5.51c0,.47.8.48.75,0l-.68-5.51c-.06-.47-.81-.48-.75,0Z"/><path d="M120.82,312.54c6.08,5.1,13.63,6.36,21.38,6.22,2.81-.05,31.62-2.94,31.83-2,.36,1.61-11.46,5.85-12.55,6.19a45.15,45.15,0,0,1-14.65,1.95c-9.87-.32-22-3.87-26.26-13.68-.19-.44-.84-.06-.65.38,4,9.1,14.54,12.88,23.77,13.83a45.6,45.6,0,0,0,32-9c.26-.2.22-.73-.19-.7-9.21.67-18.43,1.39-27.65,2s-19,.58-26.48-5.73c-.37-.31-.9.22-.53.53Z"/><path d="M204.41,67.67c0-.41.53-.09.17.1s-.05.87.37.65a.91.91,0,1,0-1.29-.75.38.38,0,0,0,.75,0Z"/><path d="M193.64,70.44a.33.33,0,0,1-.2-.41l-.26.26a.59.59,0,0,1,.63.47.38.38,0,0,0,.73-.19,1.35,1.35,0,0,0-1.56-1,.36.36,0,0,0-.27.26,1.11,1.11,0,0,0,.73,1.33c.45.18.65-.55.2-.72Z"/><path d="M137.46,153.26c-.19-.1-.28-.43,0-.47s.29.45,0,.46a.38.38,0,0,0,0,.75,1,1,0,1,0-.34-.09c.42.22.8-.43.37-.65Z"/><path d="M128.14,156.91c-.46-.34.62-.17.05,0s-.26.88.2.73a.88.88,0,1,0-.63-.1c.38.29.76-.36.38-.65Z"/></g></g></svg>