<svg xmlns="http://www.w3.org/2000/svg" viewBox="0 0 263.67 329.03"><title>logo_black</title><g id="Layer_2" data-name="Layer 2"><g id="logo_black"><path d="M158.69,53.84l1.72,5.79a17.38,17.38,0,0,0,1.65,4.68c.94,1.42,2.84,2,4.05.56.3-.37-.22-.9-.53-.53-2.12,2.54-3.4-1.5-3.71-2.43S161.3,60,161,59l-1.59-5.38c-.14-.46-.87-.27-.73.2Z"/><path d="M166.23,55.31a.38.38,0,0,0,0-.75.38.38,0,0,0,0,.75Z"/><path d="M155.23,58.56a.38.38,0,0,0,0-.75.38.38,0,0,0,0,.75Z"/><path d="M163.89,69.25a2.59,2.59,0,0,0,2.91.73c.44-.17.25-.9-.2-.72a1.88,1.88,0,0,1-2.18-.54c-.31-.37-.84.17-.53.53Z"/><path d="M172.93,66.14a16.86,16.86,0,0,0,4.37,14.22c.32.35.85-.18.53-.53a16,16,0,0,1-4.17-13.49c.07-.47-.65-.68-.73-.2Z"/><path d="M165.7,75.59A6.38,6.38,0,0,1,161.58,85a.38.38,0,0,0,0,.72c5.59,2.26,16.87,4,18-4.53.06-.47-.69-.47-.75,0-.72,5.67-7.14,6.15-11.6,5.41-.53-.09-4.24-.64-4.36-1.18a6.61,6.61,0,0,0,1.53-.8c3.19-2.19,3.65-6.11,2-9.38-.22-.43-.86-.06-.64.37Z"/><path d="M161,101.52a15.53,15.53,0,0,1-.59,2.42q-2,6.82-9.25,1c-.75-1.83-.25-5.16-.06-7.15.6-6.24,3.92-11.34,10.65-11.57.48,0,.49-.77,0-.75-9.58.32-12.52,10-11.55,18.24.35,3,2.05,5.83,5.43,5.55,3.85-.33,5.44-4.3,6.1-7.53.09-.47-.63-.67-.73-.2Z"/><path d="M177.82,80.43a3.79,3.79,0,0,0,3.07,1c1.26-.11,2.3-.9,3.53-1.07,4.38-.64,5.83,2.57,7.09,5.35s4.48,7.75,3.9,10.79q-6.51,3.91-6.85-.41l-.17-1a7.83,7.83,0,0,0-1.15-2.83c-.27-.4-.92,0-.65.38,1.76,2.67.75,7.49,4.87,8.12,2.72.41,4.54-1.69,4.7-4.24.12-2-.88-3.93-1.65-5.73-1.14-2.67-2.1-5.67-3.72-8.11a7,7,0,0,0-3.89-3.1c-2.84-.69-5.89,2.48-8.55.36-.37-.29-.9.23-.53.54Z"/><path d="M188.86,98.6c.12,1.83,1,10.69-2.91,9.43-.46-.15-.66.58-.2.72,4.86,1.58,4-7.83,3.86-10.15,0-.48-.78-.49-.75,0Z"/><path d="M162.1,102.09a8.26,8.26,0,0,0,6.52,11c.47.08.67-.64.19-.72a7.51,7.51,0,0,1-6-10c.15-.46-.57-.65-.73-.2Z"/><path d="M166.94,111.61a21.41,21.41,0,0,0,6.17,13.11.38.38,0,0,0,.53-.53,20.59,20.59,0,0,1-5.95-12.58c-.05-.48-.8-.49-.75,0Z"/><path d="M189.21,106.6,189,122.93a.38.38,0,0,0,.75,0L190,106.6a.38.38,0,0,0-.75,0Z"/><path d="M173.27,125.35c4.2,1.49,13.79,3.8,16.39-1.38.21-.43-.43-.81-.65-.38-2.39,4.76-11.85,2.35-15.54,1-.45-.16-.65.56-.2.72Z"/><path d="M152.34,49.79c-3.43,6.73,0,13.48,4.86,18.46,3.75,3.84,9.93,10.09,13.26,2.52,2.73-6.19,4.68-15.39.27-21.32s-12.82-5.53-17.46-.06c-.31.37.22.9.53.53,4.76-5.62,13.5-5.47,17.16,1.31,2.87,5.32,1.36,11.78-.47,17.16a21.49,21.49,0,0,1-1.22,3.18q-5.45,2.48-8.61-1.07a26.07,26.07,0,0,1-4-4C152.57,62,150,56,153,50.17c.22-.43-.43-.81-.65-.38Z"/><path d="M155.4,86.72c2.71-5-.23-8.68-4.78-10.86C139.85,70.7,139,51.35,147.46,44c.36-.32-.17-.84-.53-.53-6.09,5.34-6.74,13.31-4.94,20.8.76,3.17,1.8,6.79,4,9.31,3.62,4.14,12.92,5.06,8.77,12.81-.23.43.42.81.64.38Z"/><path d="M147.86,43c9.34-3.1,21.87-6.84,29.77,1.51,3.11,3.28,4.57,7.9,6.46,11.92a119.14,119.14,0,0,0,6.17,11.8,27.47,27.47,0,0,0,6,7c2.83,2.34,5.27,4.07,6.19,8a28.77,28.77,0,0,1,.26,7.36c-.09,3-.26,6.18.91,9,1.57,3.8,6,5.32,7.09,9.33a.37.37,0,0,0,.72-.2c-1.14-4.06-5.46-5.66-7-9.5-2-4.7-.36-9.86-1-14.75-.52-4.09-2.35-6.35-5.46-8.88-4.65-3.76-7.43-8.13-10.18-13.38C184,55,181.75,45,174.06,40.92c-8.41-4.41-18-1.43-26.4,1.36-.46.15-.26.87.2.72Z"/><path d="M211,108.55c.18,4.22,2,7.46,4.18,11s4.62,7.54,3.67,12.11c-.57,2.77-2.28,5.22-3.53,7.71-.75,1.49-1.88,3.55-1.9,5.24,0,2.53.61,1.7-.2-.39a19.93,19.93,0,0,0-6.62-8.56c-.38-.3-.91.23-.53.53a19.68,19.68,0,0,1,7.42,11.68c.09.4.79.32.74-.1-.83-7.21,6.1-12.08,5.57-19.2-.56-7.49-7.73-12.35-8-20,0-.48-.77-.49-.75,0Z"/><path d="M196.55,96.88c2.38,5.26,3.51,11.37,4.86,17a53.56,53.56,0,0,1,1,21.72c-.08.47.65.67.72.2a52.77,52.77,0,0,0-.51-20.23c-1.38-6.26-2.72-13.17-5.38-19-.2-.44-.84-.06-.65.37Z"/><path d="M202.75,135.55A86.93,86.93,0,0,1,199.3,149c-1.28,3.73-2.76,11.75-6.2,14-.4.26,0,.91.38.64,3.22-2.12,3.86-7,5.09-10.42a101.69,101.69,0,0,0,4.9-17.54c.08-.47-.64-.67-.72-.2Z"/><path d="M193,162.81c-.91-.64,1.64-4.27,2-4.87a.38.38,0,0,0-.59-.45c-.55.45-3.93,3.94-4.5,2.36-.09-.26,3.33-3,3.7-3.29s-.1-.82-.46-.59c-.94.61-3.85,3.07-4.7,2.45s.66-1.31,1.24-1.85L192,154.4a.38.38,0,0,0-.45-.59l-2.67,1.67c-.26.17-1,.85-1.33.84l-1-.8.91-.41a15.72,15.72,0,0,0,4.65-3.35c.34-.35-.19-.88-.53-.53-1.66,1.69-3.49,2.42-5.41,3.64-.63.41-1.35,1.09-1,1.94,1.05,2.35,5.74-1.74,6.72-2.35l-.46-.59-2.67,2.48c-.53.49-1.48,1.09-1.79,1.77s-.32.92.07,1.35,1,.39,1.64.2c1.62-.51,3.35-2.13,4.78-3L193,156c-.83.74-6,4-4.31,5.63s5.23-2.85,6.17-3.64l-.59-.46c-.76,1.37-3.65,4.52-1.7,5.9.4.28.77-.37.38-.65Z"/><path d="M192.06,149.88a6.51,6.51,0,0,1-2.71,0c-1.69-.53.39-1.55,1.08-2a34.28,34.28,0,0,1,4.78-2.37c.44-.18.25-.9-.2-.72a37.49,37.49,0,0,0-4.29,2c-.88.5-2.73,1.25-3,2.35-.53,2,3.64,1.5,4.57,1.37.48-.07.28-.8-.2-.73Z"/><path d="M189.78,100.36c.81,6.82,4.84,12.5,6.45,19.11A40.25,40.25,0,0,1,194,144.92c-.19.44.46.82.65.38a41.43,41.43,0,0,0,3.24-21.08c-1-8.48-6.32-15.5-7.32-23.86-.06-.47-.81-.48-.75,0Z"/><path d="M206.69,135.53a6.66,6.66,0,0,0-2.5-1.44c-.46-.14-.65.58-.2.73a5.67,5.67,0,0,1,2.17,1.24c.36.32.89-.21.53-.53Z"/><path d="M197.51,129.42a9.38,9.38,0,0,0-7.2-6.28c-.47-.07-.67.66-.2.72a8.65,8.65,0,0,1,6.68,5.76c.17.44.9.25.72-.2Z"/><path d="M196.41,96.68a.38.38,0,0,0,0-.75.38.38,0,0,0,0,.75Z"/><path d="M150.52,105.52c-1.81,8.8-3.86,17.59-4.77,26.55-.05.48.7.47.75,0,.9-8.89,2.95-17.62,4.74-26.35.1-.47-.62-.68-.72-.2Z"/><path d="M145.89,132.27c-3,5.54-5.86,11.25-9.15,16.63a29.75,29.75,0,0,1-8.52,8.72,21.54,21.54,0,0,0-4.37,3.7c-1.68,2.07-2.92,5.18-1.62,7.78.57,1.14,1.5,2.39,2.9,1.91.73-.26.42-.77.62-1.29.92-2.35-.73-3.76,1.72-5.47,1-.7,1.65-2.29,2.21-.12.18.7-1.71,2.58.38,3s5.25-5.61,6.2-6.86c3.92-5.16,7.87-10.29,11.39-15.74.26-.41-.39-.79-.65-.38-3.19,4.94-6.74,9.61-10.29,14.3-.93,1.22-3.77,6.22-5.09,5.59-.89-.42-.08-1.1-.13-2.28a.39.39,0,0,0-.48-.37c-2.57.87-5.3,2.17-6.14,5-.43,1.47.86,4.32-1.22,1.38-2.94-4.15,2.54-7.76,5.63-10,8.48-6.07,12.38-16.21,17.25-25.15.23-.42-.41-.8-.64-.37Z"/><path d="M158.76,107.56c-3,12.26-4.92,25.18-11.64,36.06-.26.41.39.78.65.37,6.76-11,8.73-23.89,11.71-36.23.12-.47-.61-.67-.72-.2Z"/><path d="M202.08,137.58c1.64,6.79,3.31,13.62,3.84,20.6.54,7.2-.43,14.29-1.86,21.34-2.65,13.07-5.78,26.06-8.83,39-.11.47.61.67.72.2,3.34-14.19,7-28.41,9.55-42.76,2.38-13.35.46-25.59-2.7-38.62-.11-.46-.83-.27-.72.2Z"/><path d="M195.43,219.15c.36.36,3.93,3.48,3.91,3.95-.09,2-3.39,2-4.65,2.2-3.23.47-6.29-.12-9.48.15-1.8.16-1.18.67-3.54.76-5.13.2,0-.35-3.43-.6a5.2,5.2,0,0,0-3.27.55c-3.16,1.16,4.2,3.42-5.77.4-.39-.12-.65-.69-1.07-.74-2-.21-4.2-.24-6-1.44.14.1-.44-1-.8-1.2,2.69,1.45-5-2.91-2.32-.92-5.23-3.9-1.12-4,.87-6,.34-.35-.19-.88-.53-.53-2.32,2.37-7.77,3.78-3.17,6.91a3.27,3.27,0,0,0,1.36.26,7.2,7.2,0,0,1,3.94,1.85c1.14,1,0,1.36,1.53,2.08.46.2,1.07-.05,1.5.09q2.53-1.31,5.06.93c.18.14.36.27.55.39,1.86.45,1.79.62,3.67-.1.29-.22.58-.47.85-.72,2.12-1.11,4-1.06,5.61.17.45,0,1,.34,1.46.32,1.79-.06.94-.67,2.53-1.15,2.75-.82,4.58-.2,7.18-.27a27,27,0,0,0,9.68-2,.38.38,0,0,0,.07-.59L196,218.62c-.34-.35-.87.18-.53.53Z"/><path d="M160.16,215.22a44.43,44.43,0,0,1-3.43-16.12c0-.48-.77-.48-.75,0a44.89,44.89,0,0,0,3.46,16.32c.18.44.91.24.72-.2Z"/><path d="M156.82,198.68a142.44,142.44,0,0,1,8-55.44c.16-.46-.56-.65-.72-.2a142.9,142.9,0,0,0-8.07,55.64c0,.48.78.49.75,0Z"/><path d="M165.06,143a201.72,201.72,0,0,0,7.41-19c.15-.46-.57-.66-.72-.2a196.87,196.87,0,0,1-7.34,18.81c-.2.44.45.82.65.38Z"/><path d="M182.76,227.45c-2.48,8.82-4.82,17.65-5.8,26.78-.12,1.17-2,11,2.43,9.1,1.45-.63,1.63-3,1.92-4.19.67-2.88,1-5.9,3.31-8.06,1.21-1.15,2.79-1.66,4.07-2.68a6.33,6.33,0,0,0,2.53-6c-.4-5.81-3.41-9.59.23-15.31.26-.41-.39-.79-.65-.38-2.92,4.59-1.93,7.65-1.08,12.6.62,3.6.71,7-2.5,9.13-.7.46-1.5.81-2.17,1.33a9.42,9.42,0,0,0-3.23,4.26c-.63,1.56-1.17,10-4.58,5.93-1.11-1.34,1.15-10.93,1.39-12.33a193.74,193.74,0,0,1,4.86-20,.38.38,0,0,0-.73-.2Z"/><path d="M167.47,226.27c-2.08,9.11-4.65,18.23-6.27,27.43-.31,1.78-1.28,9.78,3,7.78,1.34-.64,1.72-3.1,2.35-4.17,1.84-3.17,5.39-4.81,7.5-7.75a11.62,11.62,0,0,0,2.17-7.18c-.22-5.9-3.39-10.16,1.66-15.31a.38.38,0,0,0-.53-.53,10.9,10.9,0,0,0-3.36,9.37c.68,4.92,2.64,8.49-.6,13.12-1.59,2.28-3.93,3.73-5.8,5.74-.75.81-1.6,2.94-2.31,3.44q-4.81.74-3.54-2.64a19.34,19.34,0,0,1,.59-3.37c.37-1.84.84-3.67,1.26-5.51l4.64-20.22c.1-.47-.62-.67-.73-.2Z"/><path d="M163,245.66a5.67,5.67,0,0,0,6.59.8c2.72-1.5,3.93-4.51,5-7.25.18-.45-.55-.65-.72-.2-1.55,4-5.31,10.39-10.33,6.12-.36-.32-.89.21-.53.53Z"/><path d="M179.16,244.8c2.06.62,4.49,1.22,6.4-.15s3-4.65,4-6.8c.22-.43-.43-.81-.64-.38a51.68,51.68,0,0,1-2.63,5.2c-1.69,2.6-4.39,2.18-7,1.4-.46-.14-.66.59-.2.73Z"/><path d="M173.94,125.64A213.83,213.83,0,0,0,160.75,196a.38.38,0,0,0,.75,0,213.41,213.41,0,0,1,13.16-70.17c.17-.45-.56-.65-.72-.2Z"/><path d="M176.41,126.68a181.58,181.58,0,0,0-7.6,68.67c0,.48.79.49.75,0a181.35,181.35,0,0,1,7.57-68.47c.15-.46-.58-.66-.72-.2Z"/><path d="M179.74,127.4c-3.83,23.1-10.7,48.1-5.11,71.41.11.47.84.27.72-.2-5.56-23.19,1.3-48,5.12-71,.08-.47-.65-.67-.73-.2Z"/><path d="M183.41,127.12a290.77,290.77,0,0,0-1,69.2c.05.48.8.49.75,0a290.14,290.14,0,0,1,1-69c.07-.47-.66-.67-.72-.2Z"/><path d="M186.21,126.67l3.65,20.45c.09.47.81.27.73-.2l-3.65-20.45c-.09-.48-.81-.28-.73.2Z"/><path d="M190,150.85v.83a.38.38,0,0,0,.75,0v-.83a.38.38,0,0,0-.75,0Z"/><path d="M190.82,161.6a237.1,237.1,0,0,1-.21,34.75c0,.48.71.48.75,0a237.1,237.1,0,0,0,.21-34.75c0-.48-.78-.49-.75,0Z"/><path d="M188.37,125.39,195.22,140c.2.44.85.06.65-.38L189,125c-.21-.44-.86-.06-.65.38Z"/><path d="M200.17,147.18A308.66,308.66,0,0,1,197,196.44c-.07.47.65.67.72.2a308.85,308.85,0,0,0,3.19-49.46.38.38,0,0,0-.75,0Z"/><path d="M193.43,70.29c7-7.36,15.71-12.57,24.82-17,10-4.87,20.56-10.09,31.89-10.45.48,0,.49-.77,0-.75-10.94.34-21,5.2-30.73,9.82s-19,10-26.51,17.84c-.34.35.19.88.53.53Z"/><path d="M204,96c10.07-6.86,19-15.76,27.34-24.55,8.06-8.45,14.41-17.84,18.37-28.87.16-.46-.56-.66-.72-.2-4.13,11.49-10.9,21.08-19.38,29.78-8,8.26-16.43,16.69-26,23.19-.4.28,0,.93.37.65Z"/><path d="M203.87,95.75c17.72,9.28,34.52,20.61,51.58,31,.41.25.79-.4.38-.65-17.06-10.42-33.86-21.75-51.58-31-.43-.22-.8.42-.38.65Z"/><path d="M219.77,131.43c10.44,4.18,24.91-1.51,34.66-5.47.45-.18.25-.91-.19-.73-9.62,3.91-24.1,9.55-34.28,5.48-.44-.18-.64.55-.19.72Z"/><path d="M149.87,104.64c-7.37,13.55-21.41,23.09-34.36,30.79a.38.38,0,0,0,.38.65c13-7.75,27.21-17.42,34.63-31.06.23-.42-.42-.8-.65-.38Z"/><path d="M114.81,136.83a42.56,42.56,0,0,0,29.1-.57c.45-.17.26-.9-.2-.72a41.83,41.83,0,0,1-28.7.57c-.46-.15-.66.57-.2.72Z"/><path d="M153.28,132.78c5-4.7,12.06-6.43,16.28-12,.3-.38-.35-.76-.64-.38-4.16,5.46-11.28,7.19-16.17,11.83-.35.33.18.86.53.53Z"/><path d="M92.9,51.71c8.56,1.56,16.41,7.06,24.52,10.22,8.74,3.4,17.74,6.06,26.73,8.73.46.14.66-.59.2-.73-9-2.66-18-5.32-26.73-8.73-8.1-3.15-15.93-8.65-24.52-10.21-.48-.09-.68.63-.2.72Z"/><path d="M92.15,51.66c7.61,11.15,16.68,21.36,26,31.13,9,9.5,20.2,14,32.41,18.08.46.15.66-.57.2-.73-12.88-4.28-23.95-9.09-33.33-19.21-8.73-9.42-17.36-19-24.6-29.65-.28-.4-.93,0-.65.38Z"/><path d="M145.1,45.71a35,35,0,0,0-5.47-10.3c-.29-.38-.94,0-.65.37a34.49,34.49,0,0,1,5.39,10.12c.15.46.88.27.73-.19Z"/><path d="M139,35.45l5.48,2.43c.44.19.82-.45.38-.65l-5.48-2.42c-.43-.2-.82.45-.38.64Z"/><path d="M146,37.66l.87-5.75c.07-.47-.65-.67-.72-.2l-.87,5.75c-.07.48.65.68.72.2Z"/><path d="M146.38,31.28,150,34.8c.35.34.88-.19.54-.53l-3.61-3.52c-.35-.34-.88.19-.53.53Z"/><path d="M151,35l2.29-6.08c.17-.45-.55-.65-.72-.2l-2.29,6.08c-.17.45.55.65.72.2Z"/><path d="M152.92,28.87l5.61,4c.39.28.77-.37.38-.65l-5.61-4c-.39-.28-.77.37-.38.65Z"/><path d="M159.32,32.78l2.13-5.38c.17-.45-.55-.64-.73-.2l-2.12,5.38c-.18.45.55.64.72.2Z"/><path d="M161,27.32l3.63,4c.32.36.85-.17.53-.53l-3.63-4c-.32-.36-.85.17-.53.53Z"/><path d="M165.27,31.47l3.33-4c.31-.36-.22-.9-.53-.53l-3.33,4c-.31.37.22.9.53.53Z"/><path d="M168.39,26.8,169,38.55c0,.48.78.48.75,0l-.59-11.75c0-.48-.77-.48-.75,0Z"/><path d="M127.45,164l.94,6a.38.38,0,0,0,.69.09l1.71-4c.19-.44-.45-.82-.64-.38l-1.72,4,.69.09-1-6c-.08-.47-.8-.27-.72.2Z"/><path d="M135.57,161.08c.92,2.67,1.86,7.4,0,10a6.49,6.49,0,0,1-4.58,2.41c-2.3.4-8,1-7.32-3.31.08-.47-.65-.67-.72-.2-.85,5.39,6.57,4.86,9.85,3.9,5.49-1.59,5-8.6,3.46-13-.16-.45-.88-.26-.72.2Z"/><path d="M135.74,172.18c-.18,4.86.08,10-.56,14.8-1.11,8.38-14.8,10.64-19.17,3.55-.26-.41-.91,0-.65.38,3.46,5.62,11.13,5.53,16.51,2.66a7.16,7.16,0,0,0,3.92-5.3c1-5.14.51-10.87.7-16.09,0-.48-.73-.48-.75,0Z"/><path d="M122.88,170.88c.78,1.51-2.23,1.68-2.81,1.66a6.66,6.66,0,0,1-2.55-.64c-.43-.2-.81.44-.38.65a7,7,0,0,0,4.91.5c1.16-.35,2.12-1.32,1.48-2.55-.22-.43-.87-.05-.65.38Z"/><path d="M93.61,140.67l4,5.15,2,2.58.66.86q1.74,1.41-.69,3.06a.39.39,0,0,0-.45.06,7.74,7.74,0,0,1-4.88,2.16c-.48,0-.49.79,0,.75a9.33,9.33,0,0,0,2.6-.53c1.17-.45,1.9-1.38,3.18-1.42,1,0,2,.55,2.62-.64.74-1.38-1.11-3-1.85-4l-6.64-8.6c-.3-.38-.82.16-.53.54Z"/><path d="M90.13,143.68a.83.83,0,0,0-.32,1.47c.71.45,1.42-.48,1.08-1.13-.23-.42-.88-.05-.65.38.06.12-.09,0,.09,0,.47-.07.27-.79-.2-.73Z"/><path d="M85.38,143.53A12.72,12.72,0,0,1,104,139.91c.4.28.77-.37.38-.65a13.47,13.47,0,0,0-19.61,3.89c-.26.41.39.78.65.38Z"/><path d="M103,137.31a5.62,5.62,0,0,1,3-4.68c.43-.23,0-.88-.37-.65a6.39,6.39,0,0,0-3.35,5.33c0,.48.73.48.75,0Z"/><path d="M106.36,132.41c1.49,4.28,4.57,6.75,8.42,8.88.43.23.8-.42.38-.65-3.66-2-6.65-4.35-8.07-8.43-.16-.45-.89-.26-.73.2Z"/><path d="M114.74,141.66a2.3,2.3,0,0,1-.83,2.57c-.39.28,0,.94.38.65a3.08,3.08,0,0,0,1.17-3.42c-.15-.46-.87-.26-.72.2Z"/><path d="M85.06,142.21l-6.14-3.61a.38.38,0,0,0-.38.65l6.14,3.6a.37.37,0,0,0,.38-.64Z"/><path d="M78.09,138.81a25.22,25.22,0,0,1-3.67,10.95c-.25.41.4.79.65.37a26,26,0,0,0,3.77-11.32c0-.48-.7-.48-.75,0Z"/><path d="M74.32,149.88c-.81,1.69-1.63,3.6-1,5.49a3.12,3.12,0,0,0,3.16,2.2c.48,0,.49-.78,0-.75-1.66.1-2.6-1.29-2.64-2.83a8.44,8.44,0,0,1,1.1-3.74c.21-.43-.44-.81-.64-.37Z"/><path d="M126.09,195.69c1.35,1.77,3.53,4.56,3.64,6.85.25,4.88-3.52,5-6.38,5.5a132.86,132.86,0,0,1-15.17,1.58,144.19,144.19,0,0,1-28.61-1.5c-.48-.07-.68.66-.2.73a143.77,143.77,0,0,0,40.33.47c3-.39,9-.27,10.65-3.59s-1.75-8-3.62-10.41c-.29-.38-.94,0-.64.37Z"/><path d="M75.34,166.52c-5.3,5.5-5.91,14.95-7,22.12-1,6.13-2.84,15.09,0,20.91,1.73,3.61,6,4.16,9,1.61,6.16-5.31.6-15.76,1.12-22.21,0-.48-.71-.47-.75,0-.42,5.19,1.91,9.93,1.72,15.06a8.77,8.77,0,0,1-3.58,7.29q-7.74.16-7.62-5.7a48.15,48.15,0,0,1-.13-7.5,110.54,110.54,0,0,1,2.39-16.69c1-5.08,1.72-10.47,5.47-14.36.33-.35-.2-.88-.53-.53Z"/><path d="M67,207.17a15.85,15.85,0,0,0,.38,10.18c.82,2.12,2.66,5.75,5.22,6.19A2.1,2.1,0,0,0,75.13,221c-.14-1.08-2.32-2.59-2.27-3.1.28-2.87,1.44,0,1.51,0,2.65.85-1,.44,1.8,1a.38.38,0,0,0,.47-.36l.3-7.53c0-.49-.73-.49-.75,0,0,.72.25,6-.25,6.27-1,.55-1.86-1.67-2.71-2a1.4,1.4,0,0,0-2.09,1,2.26,2.26,0,0,0,.63,1.67c1,1.41,1.93.45.25,2.49s-1.69.8-2.7-.83a15,15,0,0,1-1.59-12.17.37.37,0,0,0-.72-.2Z"/><path d="M74.58,221.86c1.51,8.24,1.49,20.61,8.06,26.77,3.5,3.29,10.61,4.52,12.57-1.08,1.26-3.61-.38-8.83-1.32-12.33-.57-2.16-2.68-5.53-2.6-7.61.15-4.52,5.33-3.05,8.33-2.94,5,.19,16.49-1.5,16.13,5.86-.29,5.88-.7,11.76-1,17.63,0,.48.72.48.75,0l.94-15.77c.13-2.17.9-5.61-1.12-7.27-2.29-1.88-8-.92-10.75-1l-8.82-.32c-1.15,0-3.75-.67-4.81.26s-.83,2-.53,3.18c1.2,4.85,3.35,9.29,4.1,14.32l.37,3.4q-3.47,7.71-8.41,5.16a9.88,9.88,0,0,1-3.72-2.49c-2.4-2.49-3.53-6-4.3-9.25-1.27-5.5-2.08-11.15-3.09-16.7-.09-.48-.81-.28-.73.2Z"/><path d="M129,206.69a60.38,60.38,0,0,1,1.1,23.38,58.64,58.64,0,0,1-2.42,9.88,47,47,0,0,1-2.1,5.27,17.08,17.08,0,0,1-.92,1.81q-2.62,5.44-9.3.79a.38.38,0,0,0-.73.2,4.65,4.65,0,0,0,6.63,3.26c3.49-1.42,5-5.52,6.27-8.74a60.35,60.35,0,0,0,2.19-36c-.11-.47-.84-.27-.72.2Z"/><path d="M114.52,248.65c-2.12,4.59-4.56,10.41-1.27,15.08,3.81,5.41,14,3.2,19.37,3,3.72-.14,8.76-1.23,5-5.95-4-5.12-12-5.06-16.7-9.41-.36-.33-.89.2-.53.53a19.79,19.79,0,0,0,5.94,3.68c2.11.9,4.34,1.53,6.39,2.57a15.35,15.35,0,0,1,3.34,2.12c.87,4,0,5.94-2.48,5.68-1.93.59-4.86.12-6.88.17a55,55,0,0,1-6.29.08c-10.63-.94-8.33-10.53-5.26-17.18.2-.44-.44-.82-.65-.38Z"/><path d="M83,248.62c-1.41,2.61-16,24.06-6.14,23.84,2.3,0,4.47-2.49,6.1-3.81a100.12,100.12,0,0,0,8.17-6.94c3.74-3.78,6-8.52,4.45-13.82a.37.37,0,0,0-.72.2c2.78,9.39-6.9,15.61-13.16,20.62q-2.49,3.94-5,.12c-2.84-.89-3.27-2.37-1.29-4.46.77-1.56,1.65-3.07,2.48-4.61L83.66,249c.23-.43-.41-.8-.64-.38Z"/><path d="M205.2,299.22c-46.57,32-108.91,39.21-159.93,13.44-.43-.21-.81.43-.38.65C96.14,339.2,158.78,332,205.58,299.87c.39-.27,0-.92-.38-.65Z"/><path d="M2.05,217A176.19,176.19,0,0,0,23.2,289c.24.43.88,0,.65-.38A175.07,175.07,0,0,1,2.8,217c0-.48-.79-.49-.75,0Z"/><path d="M11.26,120.57C5.31,135.37,3,151.11,1.74,166.93c-1.3,16.45-3,33.43-.4,49.82.08.47.8.27.73-.2-2.55-16.32-.87-33.25.42-49.62,1.24-15.76,3.57-31.42,9.49-46.16.18-.44-.54-.64-.72-.2Z"/><path d="M11.59,120.85C27,87.1,45.16,53.17,75.88,30.94c.38-.28,0-.93-.38-.65C44.66,52.6,26.41,86.59,10.94,120.48c-.2.43.45.81.65.37Z"/><path d="M76.83,30.92C105.18,11.56,138.66-3.47,173.7,3.27c.47.09.67-.63.19-.73C138.66-4.24,105,10.79,76.45,30.28c-.39.27,0,.92.38.64Z"/><path d="M90.85,49.82c12.76-12.25,25.73-24.12,42.26-31.06,15.72-6.6,32.71-9.3,49.46-11.94a.38.38,0,0,0,.16-.63,12.41,12.41,0,0,0-8.75-3c-.48,0-.49.77,0,.75a10.39,10.39,0,0,1,4.45.52q4.31,2.25.46,2.18c-1.74.9-5,.81-7,1.14-4.65.79-9.29,1.64-13.9,2.64a143.82,143.82,0,0,0-25.2,7.63C116.19,25,103.15,37,90.32,49.29c-.35.34.18.87.53.53Z"/><path d="M173.7,1.65a35.63,35.63,0,0,1,17.82.45,36,36,0,0,1,8.25,3.59,33.49,33.49,0,0,1,3.68,2.6c2,1.6,3.58,2,.11,4.28-4.54,3-12.26,4-17.53,3.73a33.05,33.05,0,0,1-18.84-7.14c-.37-.3-.91.23-.53.53a33.84,33.84,0,0,0,20.14,7.39,36.67,36.67,0,0,0,12.56-2.16c1.45-.49,7.22-1.49,7.58-3.61.56-3.26-8.68-7.4-10.89-8.36a36.29,36.29,0,0,0-22.55-2c-.47.1-.27.83.2.72Z"/><path d="M171.83,2l1.87-.5a.37.37,0,0,0-.2-.72l-1.87.5a.37.37,0,0,0,.2.72Z"/><path d="M90,49.36A235.27,235.27,0,0,0,39,185c0,.48.73.48.75,0A234.43,234.43,0,0,1,90.57,49.89c.3-.38-.23-.91-.53-.53Z"/><path d="M38.62,185.11a254.68,254.68,0,0,0,10,57.38c4.45,15,10.36,29.36,24.81,37.13,29.12,15.66,67.87,12.29,96.62-2.15.43-.21.05-.86-.38-.65-28.52,14.33-67,17.68-95.87,2.15-15.46-8.31-21-24.35-25.51-40.29a253.93,253.93,0,0,1-8.94-53.57c0-.48-.78-.49-.75,0Z"/><path d="M250.2,226.12c-3.3-1-1.32-4.75,1-5.44a6.41,6.41,0,0,1,4.36.28c1.88.87,3.11,3.93.44,4.78a4.07,4.07,0,0,1-2.19,0l-.47-.12q-1.08-3.72,1.26-2.16c.44.2.82-.44.38-.64-1.15-.52-2.79-1.14-3.79,0a2,2,0,0,0,.75,3c2.27,1.51,6.85.93,6.38-2.57s-5.31-4.24-8-3.06c-2.85,1.25-3.82,5.58-.31,6.65a.38.38,0,0,0,.2-.73Z"/><path d="M233,218c-1.2-1.21-2.58-2.94-2-4.78.85-2.61,4-1.83,5.65-.59s2.38,3.87-.2,4.58a3,3,0,0,1-2.64-.51,2.1,2.1,0,0,1-.89-1.71c-.18-.66.16-1,1-1.06,1-.95,1.56-.64,1.59.95-.12.46.61.66.72.19.77-3.05-4-3.39-4.17-.29-.2,3.28,4.63,4.38,6.39,1.93,2.18-3-2.63-6.27-5.32-6a3.28,3.28,0,0,0-3,2.79c-.32,2,.95,3.68,2.28,5,.35.34.88-.19.53-.53Z"/><path d="M198.64,279c17.61-3.7,25.88-24.58,36.73-36.74.33-.36-.2-.9-.53-.53-10.86,12.17-18.93,32.87-36.4,36.54-.47.1-.27.82.2.73Z"/><path d="M199.3,277.83c.87-4.63,4.72-7.85,7.79-11.17l8.65-9.34c5.64-6.1,11.1-12.51,18.78-16.08.43-.2,0-.85-.38-.64-8.23,3.82-14,10.89-20.07,17.42q-4.92,5.31-9.84,10.63c-2.53,2.73-4.95,5.22-5.65,9-.09.47.63.67.72.2Z"/><path d="M23.18,289.12a102.76,102.76,0,0,0,21.51,24.24c.37.31.91-.22.53-.53a102,102,0,0,1-21.39-24.09c-.26-.4-.91,0-.65.38Z"/><path d="M85,144.13c3.09,5.61,6.29,15.15,14.36,14.14a6.91,6.91,0,0,0,5.46-3.62,6,6,0,0,0,.44-3.72c-.58-3.87-1.55-6.55-.45-10.55a.37.37,0,0,0-.72-.2,16,16,0,0,0-.55,6.95c.15.94.51,1.8.67,2.73q1.57,4.23-2.31,6.83a6.14,6.14,0,0,1-4.21.82c-6.58-.45-9.31-8.81-12-13.76-.23-.42-.88-.05-.65.38Z"/><path d="M104.48,140.65c6.54,2.32,11,5.76,13.08,12.62a25.43,25.43,0,0,1-1.39,18.17c-.2.44.45.82.65.38a26.1,26.1,0,0,0,.93-20.31c-2.44-6.33-6.88-9.39-13.07-11.59-.46-.16-.66.57-.2.73Z"/><path d="M116.19,171.56c-1.82,10.53-18,10.8-25.86,8.4-4.42-1.36-9.19-3.9-11.77-7.91-3-4.76-2.15-10.53-.63-15.64a.37.37,0,0,0-.72-.2c-1.59,5.35-2.43,11.23.71,16.22,2.65,4.21,7.58,6.83,12.21,8.25,8.28,2.53,24.88,2.09,26.78-8.92.08-.47-.64-.67-.72-.2Z"/><path d="M78.13,156.26c1.3-3.8,2.47-11.48,7-12.51.47-.1.27-.83-.2-.72-2.32.53-3.6,2.23-4.47,4.35-1.17,2.82-2,5.8-3,8.68-.15.45.57.65.73.2Z"/><path d="M87.07,147.44a27.22,27.22,0,0,0-8.3,5.41c-.35.34.18.87.53.53a26.33,26.33,0,0,1,8-5.22c.44-.18.25-.91-.19-.72Z"/><path d="M104.51,145.13a32.7,32.7,0,0,1,9.6,2.3c.45.18.65-.54.2-.72a33.47,33.47,0,0,0-9.8-2.33c-.48,0-.48.71,0,.75Z"/><path d="M88.26,150.6l-6.89,5.77c-1.72,1.44-3.71,2.76-4.69,4.84-.21.44.44.82.64.38,1.05-2.22,3.43-3.72,5.27-5.26l6.2-5.2c.37-.31-.16-.84-.53-.53Z"/><path d="M104.23,147.88c4.55,1.53,9.47,2.33,13.07,5.78.35.33.88-.2.53-.53-3.7-3.55-8.71-4.4-13.4-6-.46-.15-.66.57-.2.72Z"/><path d="M90.12,152.64c-2.63,3-5.18,6.15-8,9-2.24,2.22-4.37,4.24-5.07,7.41-.11.47.61.67.72.2.84-3.77,4-6,6.48-8.71,2.22-2.38,4.3-4.88,6.43-7.33.32-.37-.21-.9-.53-.54Z"/><path d="M105.07,151.07c2.29,1.53,4.59,3,6.88,4.58,2.57,1.73,5,3.47,6,6.57.14.46.87.26.73-.2a10.68,10.68,0,0,0-4-5.4c-2.89-2.26-6.13-4.16-9.18-6.19-.4-.27-.78.38-.38.64Z"/><path d="M104.2,154.41a53.61,53.61,0,0,1,12,16.41c.21.43.85.05.65-.38a54.17,54.17,0,0,0-12.1-16.56c-.35-.33-.88.2-.53.53Z"/><path d="M102.87,156.52c3.26,7.07,5.23,14.8,7.61,22.21.14.46.87.26.72-.2-2.39-7.47-4.39-15.26-7.68-22.39-.2-.44-.85-.06-.65.38Z"/><path d="M100.87,157.16c.8,8.05-1.7,16.11,1,24,.16.45.88.26.72-.2-2.7-7.76-.21-15.79-1-23.75-.05-.48-.8-.49-.75,0Z"/><path d="M98.28,158.05c.08,7.83-5,14.52-4.19,22.42,0,.48.8.48.75,0-.83-7.88,4.27-14.6,4.19-22.42a.38.38,0,0,0-.75,0Z"/><path d="M94.91,157.19c-1.06,4.12-3.58,7.44-5.54,11.15a57,57,0,0,0-4,9.89.37.37,0,0,0,.72.2,56.93,56.93,0,0,1,5.3-12.13c1.71-2.9,3.42-5.63,4.27-8.91a.38.38,0,0,0-.73-.2Z"/><path d="M91.79,155.55c-4.66,5.54-9.57,11-12,17.93-.16.46.56.66.72.2,2.38-6.82,7.23-12.16,11.8-17.6.31-.37-.22-.9-.53-.53Z"/><path d="M99.23,141.31a.38.38,0,0,0,0-.75.38.38,0,0,0,0,.75Z"/><path d="M170.62,277.16a170.07,170.07,0,0,0,38.94-30.62c.33-.35-.2-.88-.53-.53a169.74,169.74,0,0,1-38.79,30.5.38.38,0,0,0,.38.65Z"/><path d="M210.48,246.45c12.56-16,17.78-46.54,40.94-51.19,18.52-3.73,9,27,6.2,35.28a234.14,234.14,0,0,1-15,35.1c-.23.43.42.81.64.38A234.56,234.56,0,0,0,260,225.53c2.33-7.59,8.23-26.89-2.91-30.87-9.15-3.27-20,6.85-25,13.26-9,11.67-13,26.36-22.15,38-.29.38.24.91.53.53Z"/><path d="M200.5,303.1c17-9.06,30.37-22.92,42.67-37.51.31-.37-.21-.9-.53-.53-12.26,14.54-25.57,28.36-42.52,37.4-.43.22-.05.87.38.64Z"/><path d="M49.15,75.61C36.08,89,31.25,107.15,26.88,124.81a.38.38,0,0,0,.69.29c5.66-8.91,11.68-17.68,17-26.82,3.92-6.78,6.54-14.13,4.72-22a.37.37,0,0,0-.72.19c2.32,10-2.84,18.69-8,26.85q-3.65,5.76-7.32,11.51l-3.14,4.93L28,123.08c.16.44.25.2.29-.72.16-3.67,2-7.87,3-11.43,1.18-4.07,2.49-8.11,4.07-12.05A68.38,68.38,0,0,1,49.68,76.14c.34-.35-.19-.88-.53-.53Z"/><path d="M21.66,190.24C14.38,209.6,22.88,229.1,33,245.66c.25.41.9,0,.65-.38-10-16.41-18.48-35.62-11.26-54.84.17-.45-.56-.65-.72-.2Z"/><path d="M23.12,189.15A197.92,197.92,0,0,0,33.66,241c.15.46.88.26.72-.2a196.9,196.9,0,0,1-10.51-51.65c0-.48-.78-.48-.75,0Z"/><path d="M33.65,241.18l.68,5.51c.05.47.8.47.75,0l-.68-5.51c-.06-.48-.81-.48-.75,0Z"/><path d="M82.88,299.8c6.08,5.1,13.63,6.37,21.38,6.23,2.81,0,31.62-2.95,31.83-2,.36,1.61-11.46,5.86-12.55,6.19a44.88,44.88,0,0,1-14.65,1.95c-9.87-.32-22-3.87-26.26-13.67-.2-.44-.84-.06-.65.38,4,9.1,14.54,12.87,23.77,13.83a45.6,45.6,0,0,0,32-9c.26-.2.22-.73-.19-.7-9.21.66-18.43,1.39-27.65,2s-19,.59-26.48-5.73c-.37-.3-.9.22-.53.53Z"/><path d="M166.47,54.93c0-.41.53-.09.16.11s0,.87.38.64a.91.91,0,1,0-1.29-.75.38.38,0,0,0,.75,0Z"/><path d="M155.7,57.7a.33.33,0,0,1-.2-.41l-.26.26a.59.59,0,0,1,.63.48.38.38,0,0,0,.73-.2,1.36,1.36,0,0,0-1.56-1,.39.39,0,0,0-.27.26,1.12,1.12,0,0,0,.73,1.34c.45.17.64-.55.2-.73Z"/><path d="M99.52,140.53c-.19-.1-.29-.43,0-.47s.29.45,0,.45a.38.38,0,0,0,0,.75,1,1,0,1,0-.34-.09c.42.23.8-.42.37-.64Z"/><path d="M90.2,144.18c-.46-.35.62-.17,0,0s-.26.87.2.72a.88.88,0,1,0-.63-.09c.38.29.76-.36.38-.65Z"/></g></g></svg>