<svg xmlns="http://www.w3.org/2000/svg" viewBox="0 0 817.85 553.9"><defs><style>.cls-1{fill:#dad0c6;}.cls-2,.cls-9{fill:none;}.cls-2,.cls-3,.cls-4,.cls-5,.cls-6,.cls-7,.cls-8,.cls-9{stroke:#000;stroke-miterlimit:10;}.cls-3{fill:#e7e7de;}.cls-5{fill:#4e8d7c;}.cls-6{fill:#f3eac2;}.cls-7{fill:#aa8976;}.cls-8{fill:#ffc764;}.cls-9{stroke-width:0.4px;}</style></defs><title>yachwe</title><g id="Layer_5" data-name="Layer 5"><path class="cls-1" d="M295,43c-1.83,69.61-203,37-204,79s54,78,8,103S2,279,14,316s46,70,52,121-71,60,17,75,200,80,246,26,91-60,110-18,6,62,112,41,127,44,182-44,43-142,37-203-7-57,19-74,46,12,40-35-35-1-31-74-17.75-43.12-37-73c-38.5-27-54-38-88-3s-63,113-96,59-46-40-90-67S430,3,403,27s-48.83-2.83-48.83-2.83S295.67,17.67,295,43Z" transform="translate(-12.22 -15.52)"/></g><g id="clouds"><path class="cls-2" d="M493.5,155h29.69a4.31,4.31,0,0,0,4.31-4.31V149a3.45,3.45,0,0,1,3.53-3.45c19,.49,107.5,3.46,91,16.42-18.5,14.5-76.5,26.5-76.5,26.5s70,23.5,50,30S468,251,468,251s33,10,19,16.5,1.5,11.5-31,14-149,7-149,7-22.5-4-38-13-44-7-54.5-3S80,329,80,329s-56,10.5-45.5-7.5,93-64,93-64S80,265,88.5,244s44-27,44-27l67.5-7s-17-6-7.5-18,58-9,58-9l92,38.5s67,7.5,86.5-28,38-81,38-81" transform="translate(-12.22 -15.52)"/><path class="cls-3" d="M632,198.33s20.67,9.34,51.67,12,29-11.33,29-11.33,95.33,13.33,111.66,6.67-61-22-61-22S757,182,785,176s-137,0-137,0-14.5-11.25-23.12,1.13S632,198.33,632,198.33Z" transform="translate(-12.22 -15.52)"/><path class="cls-2" d="M335,187.75s37.75,25.5,44.25-6.25c2.36-11.53,4.58-25.07,9.92-36.67,9.36-20.33,25.14-36.24,33-36.08" transform="translate(-12.22 -15.52)"/><ellipse class="cls-4" cx="357.51" cy="139.64" rx="13.32" ry="8.62" transform="translate(85.18 406.35) rotate(-68.67)"/><ellipse class="cls-4" cx="408" cy="164.12" rx="14.6" ry="10.6" transform="translate(94.5 468.97) rotate(-68.67)"/><path class="cls-2" d="M404.75,189.25s-10.28-12.14-7.48-24.32" transform="translate(-12.22 -15.52)"/><path class="cls-2" d="M329.5,156s29.32,14.25,34.91-10.79" transform="translate(-12.22 -15.52)"/><path class="cls-3" d="M467,112.5s-18.5,45.5-38,81-86.5,28-86.5,28l-92-38.5s-48.5-3-58,9,7.5,18,7.5,18l-67.5,7s-35.5,6-44,27,39,13.5,39,13.5-82.5,46-93,64S80,329,80,329s124-52.5,134.5-56.5,39-6,54.5,3,38,13,38,13,116.5-4.5,149-7,17-7.5,31-14S468,251,468,251s107.5-26,127.5-32.5-50-30-50-30,58-12,76.5-26.5c16.53-13-72-15.93-91-16.42A3.45,3.45,0,0,0,527.5,149v1.66a4.31,4.31,0,0,1-4.31,4.31H493.5s49.83-30,22.5-47S467,112.5,467,112.5Z" transform="translate(-12.22 -15.52)"/></g><g id="dwarf"><path class="cls-5" d="M580.33,409.33,474.5,444s-7,12.5-26.75,9.5,4-61.5,4-61.5l-25.5,4.75S405,455.5,423.25,466s44,0,44,0l7.25-3-6.25,30.75,111.5,25.75V459.75Z" transform="translate(-12.22 -15.52)"/><path class="cls-6" d="M514.87,374.33s25-38.66,43.3-29.33c8.86,4.53,17.57,20.66,16.77,32.06-.79,11.18-7.59,22.05-8.21,21.42-3.36-3.41-15.17-11.89-25.06-16A171.26,171.26,0,0,0,514.87,374.33Z" transform="translate(-12.22 -15.52)"/><path class="cls-6" d="M514.8,373.67s-3-35.34,3.53-32.17,11.23,14.23,11.23,14.23Z" transform="translate(-12.22 -15.52)"/><polyline class="cls-2" points="545.95 339.48 518.28 356.31 526.74 364.4"/><path class="cls-7" d="M540.48,485a14.64,14.64,0,0,1,12.54-1.8c3.87,1.18,9,1.47,13-2.68,6.26-6.47,10.08-40.77,11.17-52a14.65,14.65,0,0,0-.93-6.78l-7.82-20.13a15.5,15.5,0,0,0-5.73-7c-12.18-7.92-48.83-29.46-68.44-15.84-12.79,8.89-18.91,16-21.83,20.6a14.6,14.6,0,0,0-2.07,10.11c2.17,13.78,10.24,59.17,23.15,66.79,15.25,9,35.5,16.75,42.25,12C537.47,487,539.06,485.94,540.48,485Z" transform="translate(-12.22 -15.52)"/><path class="cls-4" d="M507.63,386.13S484.13,389,487.75,399s15.88,11.25,15.88,11.25l16-4.5s13.62,3.5,17.5,8.88,10.62,11.62,13.25,11.87,17.75-1,13.25-10.87S549.25,392.75,534,389.88,507.63,386.13,507.63,386.13Z" transform="translate(-12.22 -15.52)"/><path class="cls-6" d="M426.77,396c1.44-2.36,1.13-2.39.85-2.49-3.67-1.26-28.91-10.36-26.9-21.18,1.43-7.69,4.66-12,6.71-14a1.86,1.86,0,0,1,3,.48,25.94,25.94,0,0,1,2.31,7.52c.91,5.75,8.53,7.24,9.9,7.47a1.88,1.88,0,0,0,.41,0c1.16-.09,8.56,1.94,16.47,1.19,3.67-.35,11-.13,16-4.06,7.29-5.69,9.4-13.54,12.17-12.67,1.46.46,1.2,7.7-3.08,15.79-4.5,8.51-13.22,17.6-13.89,18.24Z" transform="translate(-12.22 -15.52)"/><path class="cls-5" d="M605.75,483.5s-2.5-37.17-8.17-40.83-15.33,3.5-15.33,3.5-5.87,42.46,8.13,48.71,36.25-8.5,36.25-8.5,11.62-13.13,4.75-29.88-27.5-44.25-27.5-44.25-8.63-10.62-15.25-10.87-20.55-.63-20.55-.63" transform="translate(-12.22 -15.52)"/><path class="cls-6" d="M594.71,440.67s1.3-19.62-5.59-17.68-6.24,21.19-6.24,21.19Z" transform="translate(-12.22 -15.52)"/><polygon class="cls-4" points="583.61 412.73 644.67 375.03 640.95 369.42 578.64 405.98 583.61 412.73"/><polygon class="cls-8" points="633.78 363.98 664.03 358.82 650.03 393.98 633.78 363.98"/><path class="cls-8" d="M657.25,414.5s-11.5,47.5-2.25,61,31.25-2,31.25-2,11.25-12.33,5.5-25.42S657.25,414.5,657.25,414.5Z" transform="translate(-12.22 -15.52)"/><path d="M657.89,413.87c-.19-2.3,2.71-1.05,4-1.8a2.36,2.36,0,0,0,.93-2.79c-.23-.6-1.19-.34-1,.27a1.32,1.32,0,0,1-1.14,1.85,12.63,12.63,0,0,0-2.13,0,2.28,2.28,0,0,0-1.64,2.43c.05.64,1.05.64,1,0Z" transform="translate(-12.22 -15.52)"/><path d="M402.15,366.39c.56,6,5.34,9.56,10.27,12.2,5.76,3.07,11.9,6,18.58,5.49.64-.05.64-1.05,0-1-5.92.4-11.33-1.89-16.5-4.54s-10.76-5.89-11.35-12.15c-.06-.64-1.06-.65-1,0Z" transform="translate(-12.22 -15.52)"/><ellipse cx="560.97" cy="369.35" rx="6.06" ry="3.81" transform="translate(-102.75 517.1) rotate(-47.43)"/><ellipse cx="541.96" cy="355" rx="6.06" ry="3.81" transform="translate(-98.33 498.46) rotate(-47.43)"/><path class="cls-6" d="M574.59,371S599,367.32,595,372.61s-27.13,24.14-27.13,24.14S576.38,383,574.59,371Z" transform="translate(-12.22 -15.52)"/><path d="M452.82,385.35c1.14-2.86,2.37-5.53,4.65-7.68a66.94,66.94,0,0,1,7.12-5.4c.52-.37,0-1.24-.5-.86-2.68,1.92-5.59,3.73-7.89,6.11a22.17,22.17,0,0,0-4.35,7.57c-.24.59.73.85,1,.26Z" transform="translate(-12.22 -15.52)"/><line class="cls-2" x1="645.14" y1="418" x2="676.8" y2="454.18"/><line class="cls-2" x1="648.9" y1="460.15" x2="656.46" y2="407.8"/><line class="cls-2" x1="643.61" y1="428.66" x2="666.88" y2="462.03"/><line class="cls-2" x1="660.17" y1="462.98" x2="672.42" y2="422.57"/><line class="cls-2" x1="645.14" y1="364.4" x2="656.46" y2="377.84"/><line class="cls-2" x1="653.94" y1="361.38" x2="647.68" y2="378.82"/><path class="cls-2" d="M379.67,558.67" transform="translate(-12.22 -15.52)"/></g><g id="beards_details"><path class="cls-9" d="M483.67,462.83C483,461.55,515.6,386,527,377.25" transform="translate(-12.22 -15.52)"/><path class="cls-9" d="M479.67,450.67s36-71.17,42-74.67" transform="translate(-12.22 -15.52)"/><path class="cls-9" d="M475.5,436.92s34-61.17,40-61.92" transform="translate(-12.22 -15.52)"/><path class="cls-9" d="M474.33,430.33c.27-1.09,1.84-18.35,6.84-25.08,11.16-15,22.65-29.47,27.11-30.59" transform="translate(-12.22 -15.52)"/><path class="cls-9" d="M470.58,408.08s10.38-11.54,17.25-11.66" transform="translate(-12.22 -15.52)"/><path class="cls-9" d="M479.58,390.33s14.25-3,14.88-.21" transform="translate(-12.22 -15.52)"/><path class="cls-9" d="M493.5,476.17c-.75-.49,6.93-37.68,20.25-56.17s18.67-40.58,18.67-40.58" transform="translate(-12.22 -15.52)"/><path class="cls-9" d="M505,482s1.83-12.51,2.75-26.46c1-15.35,10.12-32.42,12.63-36,5-7.17,18.87-37.67,18.87-37.67" transform="translate(-12.22 -15.52)"/><path class="cls-9" d="M519.88,487.25a203.26,203.26,0,0,0,5.5-28c1.82-15.51,1.67-32.72,3.25-36.62,3.12-7.75,18.87-37.13,18.87-37.13" transform="translate(-12.22 -15.52)"/><path class="cls-9" d="M533.25,489.13c2.37,0,1.11-49.26,1.63-57.88.53-9,20.31-41.31,20.31-41.31" transform="translate(-12.22 -15.52)"/><path class="cls-9" d="M542,484.38c1.85,0-2.31-50.14,4.38-62,7.13-12.67,12.93-30.13,12.93-30.13" transform="translate(-12.22 -15.52)"/><path class="cls-9" d="M553.25,483.5s1.25-82.56,12-86.56" transform="translate(-12.22 -15.52)"/><path class="cls-9" d="M565.13,481.25s-1.88-56.62-2.38-57.62" transform="translate(-12.22 -15.52)"/><path class="cls-9" d="M562.69,416.31s14.56,12.07,13.56,21.44" transform="translate(-12.22 -15.52)"/><path class="cls-9" d="M561.69,411.56s5.87-3,9.37-3.5" transform="translate(-12.22 -15.52)"/></g></svg>